g Body_Under
v 2.836853 -9.226731 -9.556206
v 2.902644 -9.967734 -8.738955
v 3.850406 -9.70934 -8.738955
v 3.358472 -8.867816 -9.556206
v 4.544206 -8.996096 -8.738955
v 3.803569 -8.556074 -9.556206
v 4.806147 -8.035341 -8.773532
v 4.250042 -8.018404 -9.592157
v 4.197306 -10.28235 -6.433554
v 2.902644 -10.60339 -6.433554
v 5.145037 -9.373262 -6.433554
v 5.501109 -8.083797 -6.464279
v 5.583286 -8.078631 16.93991
v 5.224157 -9.412884 16.93991
v 5.224157 -8.049863 19.51126
v 4.913118 -9.239021 19.51126
v 4.24298 -10.33836 16.93991
v 4.063401 -10.08473 19.51126
v 2.902644 -10.6634 16.93991
v 2.902644 -10.38724 19.51126
v 4.913118 -6.565991 19.51126
v 5.224157 -6.401912 16.93991
v 3.502374 -8.95464 21.3936
v 2.902644 -9.313617 21.3936
v 3.9014 -8.647912 21.3936
v 4.24298 -8.007063 21.3936
v -2.902667 -10.38724 19.51126
v -2.902667 -10.6634 16.93991
v -2.902667 -10.60339 -6.433554
v -2.902667 -9.313617 21.3936
v -4.243004 -10.33836 16.93991
v -4.063424 -10.08473 19.51126
v -5.22418 -9.412884 16.93991
v -4.913172 -9.239021 19.51126
v -5.583341 -8.078631 16.93991
v -5.501132 -8.083797 -6.464279
v -5.145091 -9.373262 -6.433554
v -4.54423 -8.996096 -8.738955
v -3.850429 -9.70934 -8.738955
v -3.358496 -8.867816 -9.556206
v -2.836907 -9.226731 -9.556206
v -2.902667 -9.967734 -8.738955
v -3.803593 -8.556074 -9.556206
v -4.80617 -8.035341 -8.773532
v -4.250066 -8.018404 -9.592157
v -4.19733 -10.28235 -6.433554
v -5.22418 -8.049863 19.51126
v -4.913172 -6.565991 19.51126
v -5.22418 -6.401912 16.93991
v -4.243004 -8.007063 21.3936
v -3.901423 -8.647912 21.3936
v -3.502398 -8.95464 21.3936
v -5.153651 -6.45156 -6.464309
v -1.144409E-05 -9.967734 -8.738955
v 5.153627 -6.45156 -6.464309
vt 0.4030484 0.1056766
vt 0.4002635 0.1188674
vt 0.4110091 0.1188674
vt 0.4107102 0.1056766
vt 0.4243901 0.1188674
vt 0.4199887 0.1056766
vt 0.4366572 0.1188674
vt 0.4347282 0.1056766
vt 0.410982 0.1456431
vt 0.3979541 0.1456431
vt 0.4262105 0.1456431
vt 0.4409229 0.1453307
vt 0.4409093 0.3848175
vt 0.4260067 0.3848175
vt 0.4366165 0.4116883
vt 0.4231539 0.4116883
vt 0.4107238 0.3848175
vt 0.4092159 0.4116883
vt 0.3975601 0.3848175
vt 0.3975601 0.4116883
vt 0.4598194 0.4116883
vt 0.4616534 0.3848175
vt 0.4054121 0.4332203
vt 0.3975601 0.4332203
vt 0.4132506 0.4332203
vt 0.4214423 0.4332203
vt 0.3401099 0.4117019
vt 0.3401099 0.3848175
vt 0.3396888 0.1456567
vt 0.3401099 0.4332203
vt 0.3269462 0.3848175
vt 0.3284541 0.4117019
vt 0.3116497 0.3848311
vt 0.3145025 0.4117019
vt 0.2967471 0.3848311
vt 0.2967336 0.1453443
vt 0.3114459 0.1456567
vt 0.3132663 0.1188674
vt 0.3266473 0.1188674
vt 0.3273673 0.1056766
vt 0.3350292 0.1056766
vt 0.3373793 0.1188674
vt 0.3155349 0.1056766
vt 0.3009992 0.1188674
vt 0.3029418 0.1056766
vt 0.3266745 0.1456567
vt 0.3010535 0.4117019
vt 0.2778371 0.4117019
vt 0.2760031 0.3848311
vt 0.3162142 0.4332339
vt 0.3244058 0.4332339
vt 0.3322579 0.4332203
vt 0.2761797 0.1453443
vt 0.3688011 0.1188674
vt 0.4614903 0.1453307
vn 0.1280487 -0.7028013 -0.6997669
vn 0.1104541 -0.9119801 -0.395085
vn 0.4603887 -0.7985935 -0.3876734
vn 0.3665515 -0.5757302 -0.7308726
vn 0.7868638 -0.481893 -0.3855185
vn 0.5581357 -0.4427942 -0.7017249
vn 0.9119801 -0.02052689 -0.4097205
vn 0.74581 -0.1534629 -0.6482411
vn 0.4779831 -0.8767911 -0.05262576
vn 0.04789603 -0.9979975 -0.04131535
vn 0.8607514 -0.5090256 0
vn 0.9999524 -0.004887342 -0.00844055
vn 0.9999524 -0.0009774566 0.009704308
vn 0.8607514 -0.5090256 0
vn 0.9686733 -0.02834666 0.2467153
vn 0.8240077 -0.4955776 0.2746163
vn 0.4778248 -0.8784551 0
vn 0.4740732 -0.8376923 0.2711571
vn 0.04594111 -0.9979975 0.04347828
vn 0.04398614 -0.9569438 0.2869214
vn 0.9588987 0.2023364 0.1989305
vn 0.9781017 0.2081276 0
vn 0.4447491 -0.7243057 0.5268581
vn 0.04789603 -0.8631065 0.5027456
vn 0.716486 -0.4701633 0.5153584
vn 0.8513769 -0.1925617 0.4879318
vn -0.0439862 -0.9569438 0.2869214
vn -0.04594111 -0.9979975 0.04347828
vn -0.04789603 -0.9979975 -0.04131535
vn -0.04789603 -0.8631065 0.5027456
vn -0.4778248 -0.8784551 0
vn -0.4740733 -0.8376923 0.2711569
vn -0.8607515 -0.5090255 0
vn -0.8240077 -0.4955776 0.2746163
vn -0.9999524 -0.0009774566 0.009704308
vn -0.9999524 -0.004887342 -0.00844055
vn -0.8607515 -0.5090255 0
vn -0.7868639 -0.481893 -0.3855183
vn -0.4603887 -0.7985935 -0.3876734
vn -0.3665515 -0.5757302 -0.7308726
vn -0.1280487 -0.7028013 -0.6997669
vn -0.1104542 -0.9119801 -0.395085
vn -0.5581357 -0.4427942 -0.7017249
vn -0.9119802 -0.02052689 -0.4097205
vn -0.7458102 -0.1534629 -0.6482409
vn -0.4779831 -0.8767911 -0.05262576
vn -0.9686733 -0.02834666 0.2467153
vn -0.9588987 0.2023364 0.1989305
vn -0.9781017 0.2081276 0
vn -0.8513769 -0.1925617 0.4879318
vn -0.716486 -0.4701633 0.5153584
vn -0.4447491 -0.7243057 0.5268581
vn -0.9777023 0.209996 0
vn -0.0009775162 -0.9549888 -0.2966403
vn 0.9777022 0.209996 0
g Body_Under_0
f 3/3/3 2/2/2 1/1/1
f 4/4/4 3/3/3 1/1/1
f 5/5/5 3/3/3 4/4/4
f 6/6/6 5/5/5 4/4/4
f 7/7/7 5/5/5 6/6/6
f 8/8/8 7/7/7 6/6/6
f 3/3/3 9/9/9 2/2/2
f 9/9/9 10/10/10 2/2/2
f 11/11/11 9/9/9 3/3/3
f 5/5/5 11/11/11 3/3/3
f 12/12/12 11/11/11 5/5/5
f 7/7/7 12/12/12 5/5/5
f 12/12/12 13/13/13 11/11/11
f 13/13/13 14/14/14 11/11/11
f 11/11/11 14/14/14 9/9/9
f 13/13/13 15/15/15 14/14/14
f 15/15/15 16/16/16 14/14/14
f 14/14/14 16/16/16 17/17/17
f 14/14/14 17/17/17 9/9/9
f 9/9/9 17/17/17 10/10/10
f 16/16/16 18/18/18 17/17/17
f 17/17/17 18/18/18 19/19/19
f 17/17/17 19/19/19 10/10/10
f 18/18/18 20/20/20 19/19/19
f 21/21/21 15/15/15 13/13/13
f 22/22/22 21/21/21 13/13/13
f 22/22/22 13/13/13 12/12/12
f 18/18/18 23/23/23 20/20/20
f 23/23/23 24/24/24 20/20/20
f 25/25/25 23/23/23 18/18/18
f 16/16/16 25/25/25 18/18/18
f 26/26/26 25/25/25 16/16/16
f 15/15/15 26/26/26 16/16/16
f 21/21/21 26/26/26 15/15/15
f 20/20/20 27/27/27 19/19/19
f 27/27/27 28/28/28 19/19/19
f 19/19/19 28/28/28 10/10/10
f 28/28/28 29/29/29 10/10/10
f 30/30/30 27/27/27 20/20/20
f 24/24/24 30/30/30 20/20/20
f 28/28/28 27/27/27 31/31/31
f 27/27/27 32/32/32 31/31/31
f 27/27/27 30/30/30 32/32/32
f 31/31/31 32/32/32 33/33/33
f 32/32/32 34/34/34 33/33/33
f 33/33/33 34/34/34 35/35/35
f 33/33/33 35/35/35 36/36/36
f 37/37/37 33/33/33 36/36/36
f 31/31/31 33/33/33 37/37/37
f 37/37/37 36/36/36 38/38/38
f 37/37/37 38/38/38 39/39/39
f 39/39/39 38/38/38 40/40/40
f 39/39/39 40/40/40 41/41/41
f 42/42/42 39/39/39 41/41/41
f 38/38/38 43/43/43 40/40/40
f 38/38/38 44/44/44 43/43/43
f 36/36/36 44/44/44 38/38/38
f 44/44/44 45/45/45 43/43/43
f 46/46/46 39/39/39 42/42/42
f 46/46/46 37/37/37 39/39/39
f 46/46/46 31/31/31 37/37/37
f 29/29/29 46/46/46 42/42/42
f 34/34/34 47/47/47 35/35/35
f 35/35/35 47/47/47 48/48/48
f 49/49/49 35/35/35 48/48/48
f 36/36/36 35/35/35 49/49/49
f 48/48/48 47/47/47 50/50/50
f 51/51/51 50/50/50 47/47/47
f 34/34/34 51/51/51 47/47/47
f 52/52/52 51/51/51 34/34/34
f 32/32/32 52/52/52 34/34/34
f 30/30/30 52/52/52 32/32/32
f 29/29/29 28/28/28 46/46/46
f 28/28/28 31/31/31 46/46/46
f 53/53/53 45/45/45 44/44/44
f 53/53/53 36/36/36 49/49/49
f 36/36/36 53/53/53 44/44/44
f 29/29/29 42/42/42 54/54/54
f 54/54/54 42/42/42 41/41/41
f 10/10/10 29/29/29 54/54/54
f 2/2/2 10/10/10 54/54/54
f 2/2/2 54/54/54 1/1/1
f 55/55/55 12/12/12 7/7/7
f 55/55/55 22/22/22 12/12/12
f 55/55/55 7/7/7 8/8/8
