g Combined_M_Cmn_ami01_Prefab_Mesh
v 518.4814 56.36896 -389.4617
v 508.6864 50.83557 -378.268
v 508.6864 50.83557 -389.4617
v 518.4814 56.36896 -378.268
v 508.6864 50.83557 -378.268
v 518.4814 56.36896 -367.0744
v 508.6864 50.83557 -367.0744
v 518.4814 56.36896 -378.268
v 506.8232 49.78345 -389.4617
v 497.0282 44.24951 -378.268
v 497.0282 44.24951 -389.4617
v 506.8232 49.78345 -378.268
v 497.0282 44.24951 -378.268
v 506.8232 49.78345 -367.0744
v 497.0282 44.24951 -367.0744
v 506.8232 49.78345 -378.268
v 495.1651 43.19745 -389.4617
v 485.37 37.66406 -378.268
v 485.37 37.66406 -389.4617
v 495.1651 43.19745 -378.268
v 485.37 37.66406 -378.268
v 495.1651 43.19745 -367.0744
v 485.37 37.66406 -367.0744
v 495.1651 43.19745 -378.268
v 483.5074 36.61139 -389.4617
v 473.7118 31.078 -378.268
v 473.7118 31.078 -389.4617
v 483.5074 36.61139 -378.268
v 473.7118 31.078 -378.268
v 483.5074 36.61139 -367.0744
v 473.7118 31.078 -367.0744
v 483.5074 36.61139 -378.268
v 471.8492 30.02533 -389.4617
v 462.0536 24.49194 -378.268
v 462.0536 24.49194 -389.4617
v 471.8492 30.02533 -378.268
v 462.0536 24.49194 -378.268
v 471.8492 30.02533 -367.0744
v 462.0536 24.49194 -367.0744
v 471.8492 30.02533 -378.268
v 448.5329 16.85382 -389.4617
v 438.7373 11.31989 -378.268
v 438.7373 11.31989 -389.4617
v 448.5329 16.85382 -378.268
v 438.7373 11.31989 -378.268
v 448.5329 16.85382 -367.0744
v 438.7373 11.31989 -367.0744
v 448.5329 16.85382 -378.268
v 519.4012 54.81006 -389.4617
v 509.6056 49.27667 -389.4617
v 509.6056 49.27667 -378.268
v 519.4012 54.81006 -378.268
v 509.6056 49.27667 -378.268
v 509.6056 49.27667 -367.0744
v 519.4012 54.81006 -367.0744
v 519.4012 54.81006 -378.268
v 507.743 48.22455 -389.4617
v 497.9479 42.69061 -389.4617
v 497.9479 42.69061 -378.268
v 507.743 48.22455 -378.268
v 497.9479 42.69061 -378.268
v 497.9479 42.69061 -367.0744
v 507.743 48.22455 -367.0744
v 507.743 48.22455 -378.268
v 496.0848 41.63849 -389.4617
v 486.2898 36.10455 -389.4617
v 486.2898 36.10455 -378.268
v 496.0848 41.63849 -378.268
v 486.2898 36.10455 -378.268
v 486.2898 36.10455 -367.0744
v 496.0848 41.63849 -367.0744
v 496.0848 41.63849 -378.268
v 484.4266 35.05249 -389.4617
v 474.6316 29.51904 -389.4617
v 474.6316 29.51904 -378.268
v 484.4266 35.05249 -378.268
v 474.6316 29.51904 -378.268
v 474.6316 29.51904 -367.0744
v 484.4266 35.05249 -367.0744
v 484.4266 35.05249 -378.268
v 472.769 28.46698 -389.4617
v 462.9734 22.93304 -389.4617
v 462.9734 22.93304 -378.268
v 472.769 28.46698 -378.268
v 462.9734 22.93304 -378.268
v 462.9734 22.93304 -367.0744
v 472.769 28.46698 -367.0744
v 472.769 28.46698 -378.268
v 449.4526 15.29492 -389.4617
v 439.6576 9.760925 -389.4617
v 439.6576 9.760925 -378.268
v 449.4526 15.29492 -378.268
v 439.6576 9.760925 -378.268
v 439.6576 9.760925 -367.0744
v 449.4526 15.29492 -367.0744
v 449.4526 15.29492 -378.268
v 461.1108 21.88092 -389.4617
v 451.3152 16.34698 -389.4617
v 451.3152 16.34698 -378.268
v 461.1108 21.88092 -378.268
v 451.3152 16.34698 -378.268
v 451.3152 16.34698 -367.0744
v 461.1108 21.88092 -367.0744
v 461.1108 21.88092 -378.268
v 460.191 23.43988 -389.4617
v 450.3954 17.90594 -378.268
v 450.3954 17.90594 -389.4617
v 460.191 23.43988 -378.268
v 450.3954 17.90594 -378.268
v 460.191 23.43988 -367.0744
v 450.3954 17.90594 -367.0744
v 460.191 23.43988 -378.268
v 518.4814 56.38324 -416.1139
v 508.6864 50.84985 -404.9203
v 508.6864 50.84985 -416.1139
v 518.4814 56.38324 -404.9203
v 508.6864 50.84985 -404.9203
v 518.4814 56.38324 -393.7266
v 508.6864 50.84985 -393.7266
v 518.4814 56.38324 -404.9203
v 506.8232 49.79718 -416.1139
v 497.0282 44.26379 -404.9203
v 497.0282 44.26379 -416.1139
v 506.8232 49.79718 -404.9203
v 497.0282 44.26379 -404.9203
v 506.8232 49.79718 -393.7266
v 497.0282 44.26379 -393.7266
v 506.8232 49.79718 -404.9203
v 495.1651 43.21118 -416.1139
v 485.37 37.6778 -404.9203
v 485.37 37.6778 -416.1139
v 495.1651 43.21118 -404.9203
v 485.37 37.6778 -404.9203
v 495.1651 43.21118 -393.7266
v 485.37 37.6778 -393.7266
v 495.1651 43.21118 -404.9203
v 483.5074 36.62567 -416.1139
v 473.7118 31.09174 -404.9203
v 473.7118 31.09174 -416.1139
v 483.5074 36.62567 -404.9203
v 473.7118 31.09174 -404.9203
v 483.5074 36.62567 -393.7266
v 473.7118 31.09174 -393.7266
v 483.5074 36.62567 -404.9203
v 471.8492 30.03961 -416.1139
v 462.0536 24.50623 -404.9203
v 462.0536 24.50623 -416.1139
v 471.8492 30.03961 -404.9203
v 462.0536 24.50623 -404.9203
v 471.8492 30.03961 -393.7266
v 462.0536 24.50623 -393.7266
v 471.8492 30.03961 -404.9203
v 448.5329 16.86755 -416.1139
v 438.7373 11.33417 -404.9203
v 438.7373 11.33417 -416.1139
v 448.5329 16.86755 -404.9203
v 438.7373 11.33417 -404.9203
v 448.5329 16.86755 -393.7266
v 438.7373 11.33417 -393.7266
v 448.5329 16.86755 -404.9203
v 519.4012 54.82434 -416.1139
v 509.6056 49.29095 -416.1139
v 509.6056 49.29095 -404.9203
v 519.4012 54.82434 -404.9203
v 509.6056 49.29095 -404.9203
v 509.6056 49.29095 -393.7266
v 519.4012 54.82434 -393.7266
v 519.4012 54.82434 -404.9203
v 507.743 48.23828 -416.1139
v 497.9479 42.7049 -416.1139
v 497.9479 42.7049 -404.9203
v 507.743 48.23828 -404.9203
v 497.9479 42.7049 -404.9203
v 497.9479 42.7049 -393.7266
v 507.743 48.23828 -393.7266
v 507.743 48.23828 -404.9203
v 496.0848 41.65222 -416.1139
v 486.2898 36.11884 -416.1139
v 486.2898 36.11884 -404.9203
v 496.0848 41.65222 -404.9203
v 486.2898 36.11884 -404.9203
v 486.2898 36.11884 -393.7266
v 496.0848 41.65222 -393.7266
v 496.0848 41.65222 -404.9203
v 484.4266 35.06677 -416.1139
v 474.6316 29.53333 -416.1139
v 474.6316 29.53333 -404.9203
v 484.4266 35.06677 -404.9203
v 474.6316 29.53333 -404.9203
v 474.6316 29.53333 -393.7266
v 484.4266 35.06677 -393.7266
v 484.4266 35.06677 -404.9203
v 472.769 28.48071 -416.1139
v 462.9734 22.94733 -416.1139
v 462.9734 22.94733 -404.9203
v 472.769 28.48071 -404.9203
v 462.9734 22.94733 -404.9203
v 462.9734 22.94733 -393.7266
v 472.769 28.48071 -393.7266
v 472.769 28.48071 -404.9203
v 449.4526 15.30859 -416.1139
v 439.6576 9.775208 -416.1139
v 439.6576 9.775208 -404.9203
v 449.4526 15.30859 -404.9203
v 439.6576 9.775208 -404.9203
v 439.6576 9.775208 -393.7266
v 449.4526 15.30859 -393.7266
v 449.4526 15.30859 -404.9203
v 461.1108 21.89465 -416.1139
v 451.3152 16.36127 -416.1139
v 451.3152 16.36127 -404.9203
v 461.1108 21.89465 -404.9203
v 451.3152 16.36127 -404.9203
v 451.3152 16.36127 -393.7266
v 461.1108 21.89465 -393.7266
v 461.1108 21.89465 -404.9203
v 460.191 23.45361 -416.1139
v 450.3954 17.92017 -404.9203
v 450.3954 17.92017 -416.1139
v 460.191 23.45361 -404.9203
v 450.3954 17.92017 -404.9203
v 460.191 23.45361 -393.7266
v 450.3954 17.92017 -393.7266
v 460.191 23.45361 -404.9203
v -25.75708 23.32343 -42.82581
v -14.33502 23.32343 -32.09067
v -25.75708 23.32343 -32.09067
v -14.33502 23.32343 -42.82581
v -14.33502 23.32343 -32.09067
v -2.912964 23.32343 -42.82581
v -2.912964 23.32343 -32.09067
v -14.33502 23.32343 -42.82581
v -25.75708 23.32343 -30.04907
v -14.33502 23.32343 -19.31393
v -25.75708 23.32343 -19.31393
v -14.33502 23.32343 -30.04907
v -14.33502 23.32343 -19.31393
v -2.912964 23.32343 -30.04907
v -2.912964 23.32343 -19.31393
v -14.33502 23.32343 -30.04907
v -25.75708 23.32343 -17.27234
v -14.33502 23.32343 -6.537231
v -25.75708 23.32343 -6.537231
v -14.33502 23.32343 -17.27234
v -14.33502 23.32343 -6.537231
v -2.912964 23.32343 -17.27234
v -2.912964 23.32343 -6.537231
v -14.33502 23.32343 -17.27234
v -25.75708 21.52344 -30.04907
v -25.75708 21.52344 -19.31393
v -14.33502 21.52344 -19.31393
v -14.33502 21.52344 -30.04907
v -14.33502 21.52344 -19.31393
v -2.912964 21.52344 -19.31393
v -2.912964 21.52344 -30.04907
v -14.33502 21.52344 -30.04907
v -25.75708 21.52344 -42.82581
v -25.75708 21.52344 -32.09067
v -14.33502 21.52344 -32.09067
v -14.33502 21.52344 -42.82581
v -14.33502 21.52344 -32.09067
v -2.912964 21.52344 -32.09067
v -2.912964 21.52344 -42.82581
v -14.33502 21.52344 -42.82581
v -25.75708 21.52344 -17.27234
v -25.75708 21.52344 -6.537231
v -14.33502 21.52344 -6.537231
v -14.33502 21.52344 -17.27234
v -14.33502 21.52344 -6.537231
v -2.912964 21.52344 -6.537231
v -2.912964 21.52344 -17.27234
v -14.33502 21.52344 -17.27234
vt -1.5 2.5
vt 2.5 -1.5
vt 2.5 2.5
vt -1.5 -1.5
vt -1.5 2.5
vt 2.5 -1.5
vt 2.5 2.5
vt -1.5 -1.5
vt -1.5 2.5
vt 2.5 -1.5
vt 2.5 2.5
vt -1.5 -1.5
vt -1.5 2.5
vt 2.5 -1.5
vt 2.5 2.5
vt -1.5 -1.5
vt -1.5 2.5
vt 2.5 -1.5
vt 2.5 2.5
vt -1.5 -1.5
vt -1.5 2.5
vt 2.5 -1.5
vt 2.5 2.5
vt -1.5 -1.5
vt -1.5 2.5
vt 2.5 -1.5
vt 2.5 2.5
vt -1.5 -1.5
vt -1.5 2.5
vt 2.5 -1.5
vt 2.5 2.5
vt -1.5 -1.5
vt -1.5 2.5
vt 2.5 -1.5
vt 2.5 2.5
vt -1.5 -1.5
vt -1.5 2.5
vt 2.5 -1.5
vt 2.5 2.5
vt -1.5 -1.5
vt -1.5 2.5
vt 2.5 -1.5
vt 2.5 2.5
vt -1.5 -1.5
vt -1.5 2.5
vt 2.5 -1.5
vt 2.5 2.5
vt -1.5 -1.5
vt -1.5 2.5
vt 2.5 2.5
vt 2.5 -1.5
vt -1.5 -1.5
vt -1.5 2.5
vt 2.5 2.5
vt 2.5 -1.5
vt -1.5 -1.5
vt -1.5 2.5
vt 2.5 2.5
vt 2.5 -1.5
vt -1.5 -1.5
vt -1.5 2.5
vt 2.5 2.5
vt 2.5 -1.5
vt -1.5 -1.5
vt -1.5 2.5
vt 2.5 2.5
vt 2.5 -1.5
vt -1.5 -1.5
vt -1.5 2.5
vt 2.5 2.5
vt 2.5 -1.5
vt -1.5 -1.5
vt -1.5 2.5
vt 2.5 2.5
vt 2.5 -1.5
vt -1.5 -1.5
vt -1.5 2.5
vt 2.5 2.5
vt 2.5 -1.5
vt -1.5 -1.5
vt -1.5 2.5
vt 2.5 2.5
vt 2.5 -1.5
vt -1.5 -1.5
vt -1.5 2.5
vt 2.5 2.5
vt 2.5 -1.5
vt -1.5 -1.5
vt -1.5 2.5
vt 2.5 2.5
vt 2.5 -1.5
vt -1.5 -1.5
vt -1.5 2.5
vt 2.5 2.5
vt 2.5 -1.5
vt -1.5 -1.5
vt -1.5 2.5
vt 2.5 2.5
vt 2.5 -1.5
vt -1.5 -1.5
vt -1.5 2.5
vt 2.5 2.5
vt 2.5 -1.5
vt -1.5 -1.5
vt -1.5 2.5
vt 2.5 -1.5
vt 2.5 2.5
vt -1.5 -1.5
vt -1.5 2.5
vt 2.5 -1.5
vt 2.5 2.5
vt -1.5 -1.5
vt -1.5 2.5
vt 2.5 -1.5
vt 2.5 2.5
vt -1.5 -1.5
vt -1.5 2.5
vt 2.5 -1.5
vt 2.5 2.5
vt -1.5 -1.5
vt -1.5 2.5
vt 2.5 -1.5
vt 2.5 2.5
vt -1.5 -1.5
vt -1.5 2.5
vt 2.5 -1.5
vt 2.5 2.5
vt -1.5 -1.5
vt -1.5 2.5
vt 2.5 -1.5
vt 2.5 2.5
vt -1.5 -1.5
vt -1.5 2.5
vt 2.5 -1.5
vt 2.5 2.5
vt -1.5 -1.5
vt -1.5 2.5
vt 2.5 -1.5
vt 2.5 2.5
vt -1.5 -1.5
vt -1.5 2.5
vt 2.5 -1.5
vt 2.5 2.5
vt -1.5 -1.5
vt -1.5 2.5
vt 2.5 -1.5
vt 2.5 2.5
vt -1.5 -1.5
vt -1.5 2.5
vt 2.5 -1.5
vt 2.5 2.5
vt -1.5 -1.5
vt -1.5 2.5
vt 2.5 -1.5
vt 2.5 2.5
vt -1.5 -1.5
vt -1.5 2.5
vt 2.5 -1.5
vt 2.5 2.5
vt -1.5 -1.5
vt -1.5 2.5
vt 2.5 2.5
vt 2.5 -1.5
vt -1.5 -1.5
vt -1.5 2.5
vt 2.5 2.5
vt 2.5 -1.5
vt -1.5 -1.5
vt -1.5 2.5
vt 2.5 2.5
vt 2.5 -1.5
vt -1.5 -1.5
vt -1.5 2.5
vt 2.5 2.5
vt 2.5 -1.5
vt -1.5 -1.5
vt -1.5 2.5
vt 2.5 2.5
vt 2.5 -1.5
vt -1.5 -1.5
vt -1.5 2.5
vt 2.5 2.5
vt 2.5 -1.5
vt -1.5 -1.5
vt -1.5 2.5
vt 2.5 2.5
vt 2.5 -1.5
vt -1.5 -1.5
vt -1.5 2.5
vt 2.5 2.5
vt 2.5 -1.5
vt -1.5 -1.5
vt -1.5 2.5
vt 2.5 2.5
vt 2.5 -1.5
vt -1.5 -1.5
vt -1.5 2.5
vt 2.5 2.5
vt 2.5 -1.5
vt -1.5 -1.5
vt -1.5 2.5
vt 2.5 2.5
vt 2.5 -1.5
vt -1.5 -1.5
vt -1.5 2.5
vt 2.5 2.5
vt 2.5 -1.5
vt -1.5 -1.5
vt -1.5 2.5
vt 2.5 2.5
vt 2.5 -1.5
vt -1.5 -1.5
vt -1.5 2.5
vt 2.5 2.5
vt 2.5 -1.5
vt -1.5 -1.5
vt -1.5 2.5
vt 2.5 -1.5
vt 2.5 2.5
vt -1.5 -1.5
vt -1.5 2.5
vt 2.5 -1.5
vt 2.5 2.5
vt -1.5 -1.5
vt -1.5 2.5
vt 2.5 -1.5
vt 2.5 2.5
vt -1.5 -1.5
vt -1.5 2.5
vt 2.5 -1.5
vt 2.5 2.5
vt -1.5 -1.5
vt -1.5 2.5
vt 2.5 -1.5
vt 2.5 2.5
vt -1.5 -1.5
vt -1.5 2.5
vt 2.5 -1.5
vt 2.5 2.5
vt -1.5 -1.5
vt -1.5 2.5
vt 2.5 -1.5
vt 2.5 2.5
vt -1.5 -1.5
vt -1.5 2.5
vt 2.5 -1.5
vt 2.5 2.5
vt -1.5 -1.5
vt -1.5 2.5
vt 2.5 2.5
vt 2.5 -1.5
vt -1.5 -1.5
vt -1.5 2.5
vt 2.5 2.5
vt 2.5 -1.5
vt -1.5 -1.5
vt -1.5 2.5
vt 2.5 2.5
vt 2.5 -1.5
vt -1.5 -1.5
vt -1.5 2.5
vt 2.5 2.5
vt 2.5 -1.5
vt -1.5 -1.5
vt -1.5 2.5
vt 2.5 2.5
vt 2.5 -1.5
vt -1.5 -1.5
vt -1.5 2.5
vt 2.5 2.5
vt 2.5 -1.5
vt -1.5 -1.5
vn -0.4916064 0.8708175 0
vn -0.4916064 0.8708175 0
vn -0.4916064 0.8708175 0
vn -0.4916064 0.8708175 0
vn -0.4916064 0.8708175 0
vn -0.4916064 0.8708175 0
vn -0.4916064 0.8708175 0
vn -0.4916064 0.8708175 0
vn -0.4916064 0.8708175 0
vn -0.4916064 0.8708175 0
vn -0.4916064 0.8708175 0
vn -0.4916064 0.8708175 0
vn -0.4916064 0.8708175 0
vn -0.4916064 0.8708175 0
vn -0.4916064 0.8708175 0
vn -0.4916064 0.8708175 0
vn -0.4916064 0.8708175 0
vn -0.4916064 0.8708175 0
vn -0.4916064 0.8708175 0
vn -0.4916064 0.8708175 0
vn -0.4916064 0.8708175 0
vn -0.4916064 0.8708175 0
vn -0.4916064 0.8708175 0
vn -0.4916064 0.8708175 0
vn -0.4916064 0.8708175 0
vn -0.4916064 0.8708175 0
vn -0.4916064 0.8708175 0
vn -0.4916064 0.8708175 0
vn -0.4916064 0.8708175 0
vn -0.4916064 0.8708175 0
vn -0.4916064 0.8708175 0
vn -0.4916064 0.8708175 0
vn -0.4916064 0.8708175 0
vn -0.4916064 0.8708175 0
vn -0.4916064 0.8708175 0
vn -0.4916064 0.8708175 0
vn -0.4916064 0.8708175 0
vn -0.4916064 0.8708175 0
vn -0.4916064 0.8708175 0
vn -0.4916064 0.8708175 0
vn -0.4916064 0.8708175 0
vn -0.4916064 0.8708175 0
vn -0.4916064 0.8708175 0
vn -0.4916064 0.8708175 0
vn -0.4916064 0.8708175 0
vn -0.4916064 0.8708175 0
vn -0.4916064 0.8708175 0
vn -0.4916064 0.8708175 0
vn 0.4916063 -0.8708175 0
vn 0.4916063 -0.8708175 0
vn 0.4916063 -0.8708175 0
vn 0.4916063 -0.8708175 0
vn 0.4916063 -0.8708175 0
vn 0.4916063 -0.8708175 0
vn 0.4916063 -0.8708175 0
vn 0.4916063 -0.8708175 0
vn 0.4916063 -0.8708175 0
vn 0.4916063 -0.8708175 0
vn 0.4916063 -0.8708175 0
vn 0.4916063 -0.8708175 0
vn 0.4916063 -0.8708175 0
vn 0.4916063 -0.8708175 0
vn 0.4916063 -0.8708175 0
vn 0.4916063 -0.8708175 0
vn 0.4916063 -0.8708175 0
vn 0.4916063 -0.8708175 0
vn 0.4916063 -0.8708175 0
vn 0.4916063 -0.8708175 0
vn 0.4916063 -0.8708175 0
vn 0.4916063 -0.8708175 0
vn 0.4916063 -0.8708175 0
vn 0.4916063 -0.8708175 0
vn 0.4916063 -0.8708175 0
vn 0.4916063 -0.8708175 0
vn 0.4916063 -0.8708175 0
vn 0.4916063 -0.8708175 0
vn 0.4916063 -0.8708175 0
vn 0.4916063 -0.8708175 0
vn 0.4916063 -0.8708175 0
vn 0.4916063 -0.8708175 0
vn 0.4916063 -0.8708175 0
vn 0.4916063 -0.8708175 0
vn 0.4916063 -0.8708175 0
vn 0.4916063 -0.8708175 0
vn 0.4916063 -0.8708175 0
vn 0.4916063 -0.8708175 0
vn 0.4916063 -0.8708175 0
vn 0.4916063 -0.8708175 0
vn 0.4916063 -0.8708175 0
vn 0.4916063 -0.8708175 0
vn 0.4916063 -0.8708175 0
vn 0.4916063 -0.8708175 0
vn 0.4916063 -0.8708175 0
vn 0.4916063 -0.8708175 0
vn 0.4916063 -0.8708175 0
vn 0.4916063 -0.8708175 0
vn 0.4916063 -0.8708175 0
vn 0.4916063 -0.8708175 0
vn 0.4916063 -0.8708175 0
vn 0.4916063 -0.8708175 0
vn 0.4916063 -0.8708175 0
vn 0.4916063 -0.8708175 0
vn 0.4916063 -0.8708175 0
vn 0.4916063 -0.8708175 0
vn -0.4916064 0.8708175 0
vn -0.4916064 0.8708175 0
vn -0.4916064 0.8708175 0
vn -0.4916064 0.8708175 0
vn -0.4916064 0.8708175 0
vn -0.4916064 0.8708175 0
vn -0.4916064 0.8708175 0
vn -0.4916064 0.8708175 0
vn -0.4916064 0.8708175 0
vn -0.4916064 0.8708175 0
vn -0.4916064 0.8708175 0
vn -0.4916064 0.8708175 0
vn -0.4916064 0.8708175 0
vn -0.4916064 0.8708175 0
vn -0.4916064 0.8708175 0
vn -0.4916064 0.8708175 0
vn -0.4916064 0.8708175 0
vn -0.4916064 0.8708175 0
vn -0.4916064 0.8708175 0
vn -0.4916064 0.8708175 0
vn -0.4916064 0.8708175 0
vn -0.4916064 0.8708175 0
vn -0.4916064 0.8708175 0
vn -0.4916064 0.8708175 0
vn -0.4916064 0.8708175 0
vn -0.4916064 0.8708175 0
vn -0.4916064 0.8708175 0
vn -0.4916064 0.8708175 0
vn -0.4916064 0.8708175 0
vn -0.4916064 0.8708175 0
vn -0.4916064 0.8708175 0
vn -0.4916064 0.8708175 0
vn -0.4916064 0.8708175 0
vn -0.4916064 0.8708175 0
vn -0.4916064 0.8708175 0
vn -0.4916064 0.8708175 0
vn -0.4916064 0.8708175 0
vn -0.4916064 0.8708175 0
vn -0.4916064 0.8708175 0
vn -0.4916064 0.8708175 0
vn -0.4916064 0.8708175 0
vn -0.4916064 0.8708175 0
vn -0.4916064 0.8708175 0
vn -0.4916064 0.8708175 0
vn -0.4916064 0.8708175 0
vn -0.4916064 0.8708175 0
vn -0.4916064 0.8708175 0
vn -0.4916064 0.8708175 0
vn -0.4916064 0.8708175 0
vn -0.4916064 0.8708175 0
vn -0.4916064 0.8708175 0
vn -0.4916064 0.8708175 0
vn -0.4916064 0.8708175 0
vn -0.4916064 0.8708175 0
vn -0.4916064 0.8708175 0
vn -0.4916064 0.8708175 0
vn 0.4916063 -0.8708175 0
vn 0.4916063 -0.8708175 0
vn 0.4916063 -0.8708175 0
vn 0.4916063 -0.8708175 0
vn 0.4916063 -0.8708175 0
vn 0.4916063 -0.8708175 0
vn 0.4916063 -0.8708175 0
vn 0.4916063 -0.8708175 0
vn 0.4916063 -0.8708175 0
vn 0.4916063 -0.8708175 0
vn 0.4916063 -0.8708175 0
vn 0.4916063 -0.8708175 0
vn 0.4916063 -0.8708175 0
vn 0.4916063 -0.8708175 0
vn 0.4916063 -0.8708175 0
vn 0.4916063 -0.8708175 0
vn 0.4916063 -0.8708175 0
vn 0.4916063 -0.8708175 0
vn 0.4916063 -0.8708175 0
vn 0.4916063 -0.8708175 0
vn 0.4916063 -0.8708175 0
vn 0.4916063 -0.8708175 0
vn 0.4916063 -0.8708175 0
vn 0.4916063 -0.8708175 0
vn 0.4916063 -0.8708175 0
vn 0.4916063 -0.8708175 0
vn 0.4916063 -0.8708175 0
vn 0.4916063 -0.8708175 0
vn 0.4916063 -0.8708175 0
vn 0.4916063 -0.8708175 0
vn 0.4916063 -0.8708175 0
vn 0.4916063 -0.8708175 0
vn 0.4916063 -0.8708175 0
vn 0.4916063 -0.8708175 0
vn 0.4916063 -0.8708175 0
vn 0.4916063 -0.8708175 0
vn 0.4916063 -0.8708175 0
vn 0.4916063 -0.8708175 0
vn 0.4916063 -0.8708175 0
vn 0.4916063 -0.8708175 0
vn 0.4916063 -0.8708175 0
vn 0.4916063 -0.8708175 0
vn 0.4916063 -0.8708175 0
vn 0.4916063 -0.8708175 0
vn 0.4916063 -0.8708175 0
vn 0.4916063 -0.8708175 0
vn 0.4916063 -0.8708175 0
vn 0.4916063 -0.8708175 0
vn 0.4916063 -0.8708175 0
vn 0.4916063 -0.8708175 0
vn 0.4916063 -0.8708175 0
vn 0.4916063 -0.8708175 0
vn 0.4916063 -0.8708175 0
vn 0.4916063 -0.8708175 0
vn 0.4916063 -0.8708175 0
vn 0.4916063 -0.8708175 0
vn -0.4916064 0.8708175 0
vn -0.4916064 0.8708175 0
vn -0.4916064 0.8708175 0
vn -0.4916064 0.8708175 0
vn -0.4916064 0.8708175 0
vn -0.4916064 0.8708175 0
vn -0.4916064 0.8708175 0
vn -0.4916064 0.8708175 0
vn -0.0009775162 0.9999995 0
vn -0.0009775162 0.9999995 0
vn -0.0009775162 0.9999995 0
vn -0.0009775162 0.9999995 0
vn -0.0009775162 0.9999995 0
vn -0.0009775162 0.9999995 0
vn -0.0009775162 0.9999995 0
vn -0.0009775162 0.9999995 0
vn -0.0009775162 0.9999995 0
vn -0.0009775162 0.9999995 0
vn -0.0009775162 0.9999995 0
vn -0.0009775162 0.9999995 0
vn -0.0009775162 0.9999995 0
vn -0.0009775162 0.9999995 0
vn -0.0009775162 0.9999995 0
vn -0.0009775162 0.9999995 0
vn -0.0009775162 0.9999995 0
vn -0.0009775162 0.9999995 0
vn -0.0009775162 0.9999995 0
vn -0.0009775162 0.9999995 0
vn -0.0009775162 0.9999995 0
vn -0.0009775162 0.9999995 0
vn -0.0009775162 0.9999995 0
vn -0.0009775162 0.9999995 0
vn -0.0009775162 -0.9999995 0
vn -0.0009775162 -0.9999995 0
vn -0.0009775162 -0.9999995 0
vn -0.0009775162 -0.9999995 0
vn -0.0009775162 -0.9999995 0
vn -0.0009775162 -0.9999995 0
vn -0.0009775162 -0.9999995 0
vn -0.0009775162 -0.9999995 0
vn -0.0009775162 -0.9999995 0
vn -0.0009775162 -0.9999995 0
vn -0.0009775162 -0.9999995 0
vn -0.0009775162 -0.9999995 0
vn -0.0009775162 -0.9999995 0
vn -0.0009775162 -0.9999995 0
vn -0.0009775162 -0.9999995 0
vn -0.0009775162 -0.9999995 0
vn -0.0009775162 -0.9999995 0
vn -0.0009775162 -0.9999995 0
vn -0.0009775162 -0.9999995 0
vn -0.0009775162 -0.9999995 0
vn -0.0009775162 -0.9999995 0
vn -0.0009775162 -0.9999995 0
vn -0.0009775162 -0.9999995 0
vn -0.0009775162 -0.9999995 0
g Combined_M_Cmn_ami01_Prefab_Mesh_0
f 3/3/3 2/2/2 1/1/1
f 4/4/4 1/1/1 2/2/2
f 7/7/7 6/6/6 5/5/5
f 8/8/8 5/5/5 6/6/6
f 11/11/11 10/10/10 9/9/9
f 12/12/12 9/9/9 10/10/10
f 15/15/15 14/14/14 13/13/13
f 16/16/16 13/13/13 14/14/14
f 19/19/19 18/18/18 17/17/17
f 20/20/20 17/17/17 18/18/18
f 23/23/23 22/22/22 21/21/21
f 24/24/24 21/21/21 22/22/22
f 27/27/27 26/26/26 25/25/25
f 28/28/28 25/25/25 26/26/26
f 31/31/31 30/30/30 29/29/29
f 32/32/32 29/29/29 30/30/30
f 35/35/35 34/34/34 33/33/33
f 36/36/36 33/33/33 34/34/34
f 39/39/39 38/38/38 37/37/37
f 40/40/40 37/37/37 38/38/38
f 43/43/43 42/42/42 41/41/41
f 44/44/44 41/41/41 42/42/42
f 47/47/47 46/46/46 45/45/45
f 48/48/48 45/45/45 46/46/46
f 51/51/51 50/50/50 49/49/49
f 49/49/49 52/52/52 51/51/51
f 55/55/55 54/54/54 53/53/53
f 53/53/53 56/56/56 55/55/55
f 59/59/59 58/58/58 57/57/57
f 57/57/57 60/60/60 59/59/59
f 63/63/63 62/62/62 61/61/61
f 61/61/61 64/64/64 63/63/63
f 67/67/67 66/66/66 65/65/65
f 65/65/65 68/68/68 67/67/67
f 71/71/71 70/70/70 69/69/69
f 69/69/69 72/72/72 71/71/71
f 75/75/75 74/74/74 73/73/73
f 73/73/73 76/76/76 75/75/75
f 79/79/79 78/78/78 77/77/77
f 77/77/77 80/80/80 79/79/79
f 83/83/83 82/82/82 81/81/81
f 81/81/81 84/84/84 83/83/83
f 87/87/87 86/86/86 85/85/85
f 85/85/85 88/88/88 87/87/87
f 91/91/91 90/90/90 89/89/89
f 89/89/89 92/92/92 91/91/91
f 95/95/95 94/94/94 93/93/93
f 93/93/93 96/96/96 95/95/95
f 99/99/99 98/98/98 97/97/97
f 97/97/97 100/100/100 99/99/99
f 103/103/103 102/102/102 101/101/101
f 101/101/101 104/104/104 103/103/103
f 107/107/107 106/106/106 105/105/105
f 108/108/108 105/105/105 106/106/106
f 111/111/111 110/110/110 109/109/109
f 112/112/112 109/109/109 110/110/110
f 115/115/115 114/114/114 113/113/113
f 116/116/116 113/113/113 114/114/114
f 119/119/119 118/118/118 117/117/117
f 120/120/120 117/117/117 118/118/118
f 123/123/123 122/122/122 121/121/121
f 124/124/124 121/121/121 122/122/122
f 127/127/127 126/126/126 125/125/125
f 128/128/128 125/125/125 126/126/126
f 131/131/131 130/130/130 129/129/129
f 132/132/132 129/129/129 130/130/130
f 135/135/135 134/134/134 133/133/133
f 136/136/136 133/133/133 134/134/134
f 139/139/139 138/138/138 137/137/137
f 140/140/140 137/137/137 138/138/138
f 143/143/143 142/142/142 141/141/141
f 144/144/144 141/141/141 142/142/142
f 147/147/147 146/146/146 145/145/145
f 148/148/148 145/145/145 146/146/146
f 151/151/151 150/150/150 149/149/149
f 152/152/152 149/149/149 150/150/150
f 155/155/155 154/154/154 153/153/153
f 156/156/156 153/153/153 154/154/154
f 159/159/159 158/158/158 157/157/157
f 160/160/160 157/157/157 158/158/158
f 163/163/163 162/162/162 161/161/161
f 161/161/161 164/164/164 163/163/163
f 167/167/167 166/166/166 165/165/165
f 165/165/165 168/168/168 167/167/167
f 171/171/171 170/170/170 169/169/169
f 169/169/169 172/172/172 171/171/171
f 175/175/175 174/174/174 173/173/173
f 173/173/173 176/176/176 175/175/175
f 179/179/179 178/178/178 177/177/177
f 177/177/177 180/180/180 179/179/179
f 183/183/183 182/182/182 181/181/181
f 181/181/181 184/184/184 183/183/183
f 187/187/187 186/186/186 185/185/185
f 185/185/185 188/188/188 187/187/187
f 191/191/191 190/190/190 189/189/189
f 189/189/189 192/192/192 191/191/191
f 195/195/195 194/194/194 193/193/193
f 193/193/193 196/196/196 195/195/195
f 199/199/199 198/198/198 197/197/197
f 197/197/197 200/200/200 199/199/199
f 203/203/203 202/202/202 201/201/201
f 201/201/201 204/204/204 203/203/203
f 207/207/207 206/206/206 205/205/205
f 205/205/205 208/208/208 207/207/207
f 211/211/211 210/210/210 209/209/209
f 209/209/209 212/212/212 211/211/211
f 215/215/215 214/214/214 213/213/213
f 213/213/213 216/216/216 215/215/215
f 219/219/219 218/218/218 217/217/217
f 220/220/220 217/217/217 218/218/218
f 223/223/223 222/222/222 221/221/221
f 224/224/224 221/221/221 222/222/222
f 227/227/227 226/226/226 225/225/225
f 228/228/228 225/225/225 226/226/226
f 231/231/231 230/230/230 229/229/229
f 232/232/232 229/229/229 230/230/230
f 235/235/235 234/234/234 233/233/233
f 236/236/236 233/233/233 234/234/234
f 239/239/239 238/238/238 237/237/237
f 240/240/240 237/237/237 238/238/238
f 243/243/243 242/242/242 241/241/241
f 244/244/244 241/241/241 242/242/242
f 247/247/247 246/246/246 245/245/245
f 248/248/248 245/245/245 246/246/246
f 251/251/251 250/250/250 249/249/249
f 249/249/249 252/252/252 251/251/251
f 255/255/255 254/254/254 253/253/253
f 253/253/253 256/256/256 255/255/255
f 259/259/259 258/258/258 257/257/257
f 257/257/257 260/260/260 259/259/259
f 263/263/263 262/262/262 261/261/261
f 261/261/261 264/264/264 263/263/263
f 267/267/267 266/266/266 265/265/265
f 265/265/265 268/268/268 267/267/267
f 271/271/271 270/270/270 269/269/269
f 269/269/269 272/272/272 271/271/271
