g Combined_M_Cmn_ami01_Prefab_Mesh
v 297.2946 27.67725 -206.4403
v 306.6602 21.70499 -219.4792
v 307.8184 21.70499 -207.4534
v 296.137 27.67725 -218.4661
v 306.6602 21.70499 -219.4792
v 294.9788 27.67725 -230.492
v 305.5025 21.70499 -231.5056
v 296.137 27.67725 -218.4661
v 309.8196 20.56912 -207.6463
v 319.1857 14.59631 -220.6853
v 320.3434 14.59631 -208.6594
v 308.6619 20.56912 -219.6722
v 319.1857 14.59631 -220.6853
v 307.5037 20.56912 -231.698
v 318.0275 14.59631 -232.7111
v 308.6619 20.56912 -219.6722
v 322.3445 13.46042 -208.8524
v 331.7106 7.488159 -221.8913
v 332.8683 7.488159 -209.8654
v 321.1869 13.46042 -220.8782
v 331.7106 7.488159 -221.8913
v 320.0287 13.46042 -232.9041
v 330.5524 7.488159 -233.9172
v 321.1869 13.46042 -220.8782
v 334.8695 6.352295 -210.0579
v 344.2356 0.3794861 -223.0974
v 345.3933 0.3794861 -211.0715
v 333.7119 6.352295 -222.0842
v 344.2356 0.3794861 -223.0974
v 332.5536 6.352295 -234.1101
v 343.0774 0.3794861 -235.1232
v 333.7119 6.352295 -222.0842
v 347.395 -0.7563782 -211.2639
v 356.7606 -6.728668 -224.3034
v 357.9182 -6.728668 -212.2775
v 346.2368 -0.7563782 -223.2898
v 356.7606 -6.728668 -224.3034
v 345.0791 -0.7563782 -235.3161
v 355.6024 -6.728668 -236.3292
v 346.2368 -0.7563782 -223.2898
v 372.4449 -14.97321 -213.676
v 381.8105 -20.94547 -226.7155
v 382.9687 -20.94547 -214.6896
v 371.2867 -14.97321 -225.7018
v 381.8105 -20.94547 -226.7155
v 370.1291 -14.97321 -237.7282
v 380.6528 -20.94547 -238.7413
v 371.2867 -14.97321 -225.7018
v 296.3065 25.99496 -206.3451
v 306.8303 20.02216 -207.3582
v 305.6721 20.02216 -219.3841
v 295.1483 25.99496 -218.371
v 305.6721 20.02216 -219.3841
v 304.5144 20.02216 -231.4105
v 293.9906 25.99496 -230.3968
v 295.1483 25.99496 -218.371
v 308.8315 18.88629 -207.5512
v 319.3552 12.91403 -208.5643
v 318.197 12.91403 -220.5901
v 307.6738 18.88629 -219.577
v 318.197 12.91403 -220.5901
v 317.0394 12.91403 -232.616
v 306.5156 18.88629 -231.6029
v 307.6738 18.88629 -219.577
v 321.3564 11.77814 -208.7567
v 331.8802 5.805359 -209.7703
v 330.7225 5.805359 -221.7962
v 320.1982 11.77814 -220.7831
v 330.7225 5.805359 -221.7962
v 329.5643 5.805359 -233.822
v 319.0406 11.77814 -232.8089
v 320.1982 11.77814 -220.7831
v 333.8814 4.669983 -209.9627
v 344.4052 -1.302795 -210.9763
v 343.2469 -1.302795 -223.0022
v 332.7237 4.669983 -221.9886
v 343.2469 -1.302795 -223.0022
v 342.0893 -1.302795 -235.0281
v 331.5655 4.669983 -234.015
v 332.7237 4.669983 -221.9886
v 346.4064 -2.43869 -211.1688
v 356.9301 -8.411469 -212.1824
v 355.7725 -8.411469 -224.2082
v 345.2487 -2.43869 -223.1946
v 355.7725 -8.411469 -224.2082
v 354.6143 -8.411469 -236.2341
v 344.0905 -2.43869 -235.221
v 345.2487 -2.43869 -223.1946
v 371.4568 -16.65549 -213.5808
v 381.9806 -22.6283 -214.5945
v 380.8224 -22.6283 -226.6203
v 370.2986 -16.65549 -225.6067
v 380.8224 -22.6283 -226.6203
v 379.6642 -22.6283 -238.6462
v 369.1404 -16.65549 -237.6331
v 370.2986 -16.65549 -225.6067
v 358.9319 -9.547363 -212.3748
v 369.4556 -15.51962 -213.3884
v 368.2974 -15.51962 -225.4143
v 357.7737 -9.547363 -224.4007
v 368.2974 -15.51962 -225.4143
v 367.1397 -15.51962 -237.4401
v 356.616 -9.547363 -236.427
v 357.7737 -9.547363 -224.4007
v 359.92 -7.864532 -212.4699
v 369.2855 -13.83734 -225.5094
v 370.4437 -13.83734 -213.4836
v 358.7618 -7.864532 -224.4958
v 369.2855 -13.83734 -225.5094
v 357.6036 -7.864532 -236.5222
v 368.1278 -13.83734 -237.5353
v 358.7618 -7.864532 -224.4958
v -164.9331 41.94669 -123.5046
v -153.4771 35.67572 -111.1381
v -166.0934 35.67572 -112.4642
v -152.3167 41.94669 -122.1785
v -153.4771 35.67572 -111.1381
v -139.6998 41.94669 -120.8523
v -140.8601 35.67572 -109.8119
v -152.3167 41.94669 -122.1785
v -166.314 34.48297 -110.3642
v -154.8579 28.21146 -97.99759
v -167.4743 28.21146 -99.32376
v -153.6976 34.48297 -109.0385
v -154.8579 28.21146 -97.99759
v -141.0812 34.48297 -107.7124
v -142.2416 28.21146 -96.67145
v -153.6976 34.48297 -109.0385
v -167.6954 27.01868 -97.22421
v -156.2394 20.74771 -84.85767
v -168.8558 20.74771 -86.18384
v -155.0785 27.01868 -95.89807
v -156.2394 20.74771 -84.85767
v -142.4622 27.01868 -94.5719
v -143.6224 20.74771 -83.53149
v -155.0785 27.01868 -95.89807
v -169.0764 19.55496 -84.08429
v -157.6203 13.28345 -71.71771
v -170.2367 13.28345 -73.04337
v -156.46 19.55496 -82.75812
v -157.6203 13.28345 -71.71771
v -143.843 19.55496 -81.43195
v -145.0034 13.28345 -70.39154
v -156.46 19.55496 -82.75812
v -170.4573 12.09067 -70.94382
v -159.0012 5.819153 -58.57776
v -171.6176 5.819153 -59.90341
v -157.8409 12.09067 -69.61765
v -159.0012 5.819153 -58.57776
v -145.2239 12.09067 -68.29202
v -146.3848 5.819153 -57.25162
v -157.8409 12.09067 -69.61765
v -173.2196 -2.837341 -44.66391
v -161.7635 -9.108856 -32.29681
v -174.3799 -9.108856 -33.62299
v -160.6032 -2.837341 -43.33777
v -161.7635 -9.108856 -32.29681
v -147.9863 -2.837341 -42.0116
v -149.1467 -9.108856 -30.97119
v -160.6032 -2.837341 -43.33777
v -164.8241 40.18042 -124.5411
v -165.9844 33.90891 -113.5007
v -153.368 33.90891 -112.1746
v -152.2077 40.18042 -123.215
v -153.368 33.90891 -112.1746
v -140.7512 33.90891 -110.8484
v -139.5908 40.18042 -121.8893
v -152.2077 40.18042 -123.215
v -166.205 32.71616 -111.4012
v -167.3654 26.44464 -100.3608
v -154.749 26.44464 -99.03461
v -153.5886 32.71616 -110.075
v -154.749 26.44464 -99.03461
v -142.1326 26.44464 -97.70844
v -140.9722 32.71616 -108.7488
v -153.5886 32.71616 -110.075
v -167.5865 25.25189 -98.26123
v -168.7468 18.98038 -87.22031
v -156.1304 18.98038 -85.89413
v -154.9701 25.25189 -96.93509
v -156.1304 18.98038 -85.89413
v -143.5135 18.98038 -84.56851
v -142.3531 25.25189 -95.60892
v -154.9701 25.25189 -96.93509
v -168.9674 17.78815 -85.12076
v -170.1277 11.51663 -74.08035
v -157.5114 11.51663 -72.75421
v -156.351 17.78815 -83.79459
v -157.5114 11.51663 -72.75421
v -144.8944 11.51663 -71.42804
v -143.7341 17.78815 -82.46844
v -156.351 17.78815 -83.79459
v -170.3483 10.3244 -71.98083
v -171.5086 4.052887 -60.93988
v -158.8923 4.052887 -59.61426
v -157.7319 10.3244 -70.65466
v -158.8923 4.052887 -59.61426
v -146.2759 4.052887 -58.28809
v -145.1155 10.3244 -69.32849
v -157.7319 10.3244 -70.65466
v -173.1107 -4.604126 -45.70041
v -174.271 -10.87564 -34.66
v -161.6546 -10.87564 -33.33383
v -160.4943 -4.604126 -44.37476
v -161.6546 -10.87564 -33.33383
v -149.0377 -10.87564 -32.00766
v -147.8774 -4.604126 -43.04861
v -160.4943 -4.604126 -44.37476
v -171.7292 2.860138 -58.84036
v -172.8901 -3.411377 -47.79996
v -160.2737 -3.411377 -46.47379
v -159.1129 2.860138 -57.51471
v -160.2737 -3.411377 -46.47379
v -147.6568 -3.411377 -45.14761
v -146.4965 2.860138 -56.18854
v -159.1129 2.860138 -57.51471
v -171.8387 4.626953 -57.80386
v -160.3826 -1.644562 -45.43729
v -172.999 -1.644562 -46.76346
v -159.2218 4.626953 -56.47769
v -160.3826 -1.644562 -45.43729
v -146.6054 4.626953 -55.15207
v -147.7657 -1.644562 -44.11115
v -159.2218 4.626953 -56.47769
vt -1.5 2.5
vt 2.5 -1.5
vt 2.5 2.5
vt -1.5 -1.5
vt -1.5 2.5
vt 2.5 -1.5
vt 2.5 2.5
vt -1.5 -1.5
vt -1.5 2.5
vt 2.5 -1.5
vt 2.5 2.5
vt -1.5 -1.5
vt -1.5 2.5
vt 2.5 -1.5
vt 2.5 2.5
vt -1.5 -1.5
vt -1.5 2.5
vt 2.5 -1.5
vt 2.5 2.5
vt -1.5 -1.5
vt -1.5 2.5
vt 2.5 -1.5
vt 2.5 2.5
vt -1.5 -1.5
vt -1.5 2.5
vt 2.5 -1.5
vt 2.5 2.5
vt -1.5 -1.5
vt -1.5 2.5
vt 2.5 -1.5
vt 2.5 2.5
vt -1.5 -1.5
vt -1.5 2.5
vt 2.5 -1.5
vt 2.5 2.5
vt -1.5 -1.5
vt -1.5 2.5
vt 2.5 -1.5
vt 2.5 2.5
vt -1.5 -1.5
vt -1.5 2.5
vt 2.5 -1.5
vt 2.5 2.5
vt -1.5 -1.5
vt -1.5 2.5
vt 2.5 -1.5
vt 2.5 2.5
vt -1.5 -1.5
vt -1.5 2.5
vt 2.5 2.5
vt 2.5 -1.5
vt -1.5 -1.5
vt -1.5 2.5
vt 2.5 2.5
vt 2.5 -1.5
vt -1.5 -1.5
vt -1.5 2.5
vt 2.5 2.5
vt 2.5 -1.5
vt -1.5 -1.5
vt -1.5 2.5
vt 2.5 2.5
vt 2.5 -1.5
vt -1.5 -1.5
vt -1.5 2.5
vt 2.5 2.5
vt 2.5 -1.5
vt -1.5 -1.5
vt -1.5 2.5
vt 2.5 2.5
vt 2.5 -1.5
vt -1.5 -1.5
vt -1.5 2.5
vt 2.5 2.5
vt 2.5 -1.5
vt -1.5 -1.5
vt -1.5 2.5
vt 2.5 2.5
vt 2.5 -1.5
vt -1.5 -1.5
vt -1.5 2.5
vt 2.5 2.5
vt 2.5 -1.5
vt -1.5 -1.5
vt -1.5 2.5
vt 2.5 2.5
vt 2.5 -1.5
vt -1.5 -1.5
vt -1.5 2.5
vt 2.5 2.5
vt 2.5 -1.5
vt -1.5 -1.5
vt -1.5 2.5
vt 2.5 2.5
vt 2.5 -1.5
vt -1.5 -1.5
vt -1.5 2.5
vt 2.5 2.5
vt 2.5 -1.5
vt -1.5 -1.5
vt -1.5 2.5
vt 2.5 2.5
vt 2.5 -1.5
vt -1.5 -1.5
vt -1.5 2.5
vt 2.5 -1.5
vt 2.5 2.5
vt -1.5 -1.5
vt -1.5 2.5
vt 2.5 -1.5
vt 2.5 2.5
vt -1.5 -1.5
vt -1.5 2.5
vt 2.5 -1.5
vt 2.5 2.5
vt -1.5 -1.5
vt -1.5 2.5
vt 2.5 -1.5
vt 2.5 2.5
vt -1.5 -1.5
vt -1.5 2.5
vt 2.5 -1.5
vt 2.5 2.5
vt -1.5 -1.5
vt -1.5 2.5
vt 2.5 -1.5
vt 2.5 2.5
vt -1.5 -1.5
vt -1.5 2.5
vt 2.5 -1.5
vt 2.5 2.5
vt -1.5 -1.5
vt -1.5 2.5
vt 2.5 -1.5
vt 2.5 2.5
vt -1.5 -1.5
vt -1.5 2.5
vt 2.5 -1.5
vt 2.5 2.5
vt -1.5 -1.5
vt -1.5 2.5
vt 2.5 -1.5
vt 2.5 2.5
vt -1.5 -1.5
vt -1.5 2.5
vt 2.5 -1.5
vt 2.5 2.5
vt -1.5 -1.5
vt -1.5 2.5
vt 2.5 -1.5
vt 2.5 2.5
vt -1.5 -1.5
vt -1.5 2.5
vt 2.5 -1.5
vt 2.5 2.5
vt -1.5 -1.5
vt -1.5 2.5
vt 2.5 -1.5
vt 2.5 2.5
vt -1.5 -1.5
vt -1.5 2.5
vt 2.5 2.5
vt 2.5 -1.5
vt -1.5 -1.5
vt -1.5 2.5
vt 2.5 2.5
vt 2.5 -1.5
vt -1.5 -1.5
vt -1.5 2.5
vt 2.5 2.5
vt 2.5 -1.5
vt -1.5 -1.5
vt -1.5 2.5
vt 2.5 2.5
vt 2.5 -1.5
vt -1.5 -1.5
vt -1.5 2.5
vt 2.5 2.5
vt 2.5 -1.5
vt -1.5 -1.5
vt -1.5 2.5
vt 2.5 2.5
vt 2.5 -1.5
vt -1.5 -1.5
vt -1.5 2.5
vt 2.5 2.5
vt 2.5 -1.5
vt -1.5 -1.5
vt -1.5 2.5
vt 2.5 2.5
vt 2.5 -1.5
vt -1.5 -1.5
vt -1.5 2.5
vt 2.5 2.5
vt 2.5 -1.5
vt -1.5 -1.5
vt -1.5 2.5
vt 2.5 2.5
vt 2.5 -1.5
vt -1.5 -1.5
vt -1.5 2.5
vt 2.5 2.5
vt 2.5 -1.5
vt -1.5 -1.5
vt -1.5 2.5
vt 2.5 2.5
vt 2.5 -1.5
vt -1.5 -1.5
vt -1.5 2.5
vt 2.5 2.5
vt 2.5 -1.5
vt -1.5 -1.5
vt -1.5 2.5
vt 2.5 2.5
vt 2.5 -1.5
vt -1.5 -1.5
vt -1.5 2.5
vt 2.5 -1.5
vt 2.5 2.5
vt -1.5 -1.5
vt -1.5 2.5
vt 2.5 -1.5
vt 2.5 2.5
vt -1.5 -1.5
vn 0.4893816 0.8706742 -0.04931641
vn 0.4893816 0.8706742 -0.04931641
vn 0.4893816 0.8706742 -0.04931641
vn 0.4893816 0.8706742 -0.04931641
vn 0.4893816 0.8706742 -0.04931641
vn 0.4893816 0.8706742 -0.04931641
vn 0.4893816 0.8706742 -0.04931641
vn 0.4893816 0.8706742 -0.04931641
vn 0.4893816 0.8706742 -0.04931641
vn 0.4893816 0.8706742 -0.04931641
vn 0.4893816 0.8706742 -0.04931641
vn 0.4893816 0.8706742 -0.04931641
vn 0.4893816 0.8706742 -0.04931641
vn 0.4893816 0.8706742 -0.04931641
vn 0.4893816 0.8706742 -0.04931641
vn 0.4893816 0.8706742 -0.04931641
vn 0.4893816 0.8706742 -0.04931641
vn 0.4893816 0.8706742 -0.04931641
vn 0.4893816 0.8706742 -0.04931641
vn 0.4893816 0.8706742 -0.04931641
vn 0.4893816 0.8706742 -0.04931641
vn 0.4893816 0.8706742 -0.04931641
vn 0.4893816 0.8706742 -0.04931641
vn 0.4893816 0.8706742 -0.04931641
vn 0.4893816 0.8706742 -0.04931641
vn 0.4893816 0.8706742 -0.04931641
vn 0.4893816 0.8706742 -0.04931641
vn 0.4893816 0.8706742 -0.04931641
vn 0.4893816 0.8706742 -0.04931641
vn 0.4893816 0.8706742 -0.04931641
vn 0.4893816 0.8706742 -0.04931641
vn 0.4893816 0.8706742 -0.04931641
vn 0.4893816 0.8706742 -0.04931641
vn 0.4893816 0.8706742 -0.04931641
vn 0.4893816 0.8706742 -0.04931641
vn 0.4893816 0.8706742 -0.04931641
vn 0.4893816 0.8706742 -0.04931641
vn 0.4893816 0.8706742 -0.04931641
vn 0.4893816 0.8706742 -0.04931641
vn 0.4893816 0.8706742 -0.04931641
vn 0.4893816 0.8706742 -0.04931641
vn 0.4893816 0.8706742 -0.04931641
vn 0.4893816 0.8706742 -0.04931641
vn 0.4893816 0.8706742 -0.04931641
vn 0.4893816 0.8706742 -0.04931641
vn 0.4893816 0.8706742 -0.04931641
vn 0.4893816 0.8706742 -0.04931641
vn 0.4893816 0.8706742 -0.04931641
vn -0.489382 -0.8706738 0.04931943
vn -0.489382 -0.8706738 0.04931943
vn -0.489382 -0.8706738 0.04931943
vn -0.489382 -0.8706738 0.04931943
vn -0.489382 -0.8706738 0.04931943
vn -0.489382 -0.8706738 0.04931943
vn -0.489382 -0.8706738 0.04931943
vn -0.489382 -0.8706738 0.04931943
vn -0.489382 -0.8706738 0.04931943
vn -0.489382 -0.8706738 0.04931943
vn -0.489382 -0.8706738 0.04931943
vn -0.489382 -0.8706738 0.04931943
vn -0.489382 -0.8706738 0.04931943
vn -0.489382 -0.8706738 0.04931943
vn -0.489382 -0.8706738 0.04931943
vn -0.489382 -0.8706738 0.04931943
vn -0.489382 -0.8706738 0.04931943
vn -0.489382 -0.8706738 0.04931943
vn -0.489382 -0.8706738 0.04931943
vn -0.489382 -0.8706738 0.04931943
vn -0.489382 -0.8706738 0.04931943
vn -0.489382 -0.8706738 0.04931943
vn -0.489382 -0.8706738 0.04931943
vn -0.489382 -0.8706738 0.04931943
vn -0.489382 -0.8706738 0.04931943
vn -0.489382 -0.8706738 0.04931943
vn -0.489382 -0.8706738 0.04931943
vn -0.489382 -0.8706738 0.04931943
vn -0.489382 -0.8706738 0.04931943
vn -0.489382 -0.8706738 0.04931943
vn -0.489382 -0.8706738 0.04931943
vn -0.489382 -0.8706738 0.04931943
vn -0.489382 -0.8706738 0.04931943
vn -0.489382 -0.8706738 0.04931943
vn -0.489382 -0.8706738 0.04931943
vn -0.489382 -0.8706738 0.04931943
vn -0.489382 -0.8706738 0.04931943
vn -0.489382 -0.8706738 0.04931943
vn -0.489382 -0.8706738 0.04931943
vn -0.489382 -0.8706738 0.04931943
vn -0.489382 -0.8706738 0.04931943
vn -0.489382 -0.8706738 0.04931943
vn -0.489382 -0.8706738 0.04931943
vn -0.489382 -0.8706738 0.04931943
vn -0.489382 -0.8706738 0.04931943
vn -0.489382 -0.8706738 0.04931943
vn -0.489382 -0.8706738 0.04931943
vn -0.489382 -0.8706738 0.04931943
vn -0.489382 -0.8706738 0.04931943
vn -0.489382 -0.8706738 0.04931943
vn -0.489382 -0.8706738 0.04931943
vn -0.489382 -0.8706738 0.04931943
vn -0.489382 -0.8706738 0.04931943
vn -0.489382 -0.8706738 0.04931943
vn -0.489382 -0.8706738 0.04931943
vn -0.489382 -0.8706738 0.04931943
vn 0.4893816 0.8706742 -0.04931641
vn 0.4893816 0.8706742 -0.04931641
vn 0.4893816 0.8706742 -0.04931641
vn 0.4893816 0.8706742 -0.04931641
vn 0.4893816 0.8706742 -0.04931641
vn 0.4893816 0.8706742 -0.04931641
vn 0.4893816 0.8706742 -0.04931641
vn 0.4893816 0.8706742 -0.04931641
vn -0.05021501 0.8706742 0.4892901
vn -0.05021501 0.8706742 0.4892901
vn -0.05021501 0.8706742 0.4892901
vn -0.05021501 0.8706742 0.4892901
vn -0.05021501 0.8706742 0.4892901
vn -0.05021501 0.8706742 0.4892901
vn -0.05021501 0.8706742 0.4892901
vn -0.05021501 0.8706742 0.4892901
vn -0.05021501 0.8706742 0.4892901
vn -0.05021501 0.8706742 0.4892901
vn -0.05021501 0.8706742 0.4892901
vn -0.05021501 0.8706742 0.4892901
vn -0.05021501 0.8706742 0.4892901
vn -0.05021501 0.8706742 0.4892901
vn -0.05021501 0.8706742 0.4892901
vn -0.05021501 0.8706742 0.4892901
vn -0.05021501 0.8706742 0.4892901
vn -0.05021501 0.8706742 0.4892901
vn -0.05021501 0.8706742 0.4892901
vn -0.05021501 0.8706742 0.4892901
vn -0.05021501 0.8706742 0.4892901
vn -0.05021501 0.8706742 0.4892901
vn -0.05021501 0.8706742 0.4892901
vn -0.05021501 0.8706742 0.4892901
vn -0.05021501 0.8706742 0.4892901
vn -0.05021501 0.8706742 0.4892901
vn -0.05021501 0.8706742 0.4892901
vn -0.05021501 0.8706742 0.4892901
vn -0.05021501 0.8706742 0.4892901
vn -0.05021501 0.8706742 0.4892901
vn -0.05021501 0.8706742 0.4892901
vn -0.05021501 0.8706742 0.4892901
vn -0.05021501 0.8706742 0.4892901
vn -0.05021501 0.8706742 0.4892901
vn -0.05021501 0.8706742 0.4892901
vn -0.05021501 0.8706742 0.4892901
vn -0.05021501 0.8706742 0.4892901
vn -0.05021501 0.8706742 0.4892901
vn -0.05021501 0.8706742 0.4892901
vn -0.05021501 0.8706742 0.4892901
vn -0.05021501 0.8706742 0.4892901
vn -0.05021501 0.8706742 0.4892901
vn -0.05021501 0.8706742 0.4892901
vn -0.05021501 0.8706742 0.4892901
vn -0.05021501 0.8706742 0.4892901
vn -0.05021501 0.8706742 0.4892901
vn -0.05021501 0.8706742 0.4892901
vn -0.05021501 0.8706742 0.4892901
vn 0.05191684 -0.8706738 -0.4891132
vn 0.05191684 -0.8706738 -0.4891132
vn 0.05191684 -0.8706738 -0.4891132
vn 0.05191684 -0.8706738 -0.4891132
vn 0.05191684 -0.8706738 -0.4891132
vn 0.05191684 -0.8706738 -0.4891132
vn 0.05191684 -0.8706738 -0.4891132
vn 0.05191684 -0.8706738 -0.4891132
vn 0.05191684 -0.8706738 -0.4891132
vn 0.05191684 -0.8706738 -0.4891132
vn 0.05191684 -0.8706738 -0.4891132
vn 0.05191684 -0.8706738 -0.4891132
vn 0.05191684 -0.8706738 -0.4891132
vn 0.05191684 -0.8706738 -0.4891132
vn 0.05191684 -0.8706738 -0.4891132
vn 0.05191684 -0.8706738 -0.4891132
vn 0.05191684 -0.8706738 -0.4891132
vn 0.05191684 -0.8706738 -0.4891132
vn 0.05191684 -0.8706738 -0.4891132
vn 0.05191684 -0.8706738 -0.4891132
vn 0.05191684 -0.8706738 -0.4891132
vn 0.05191684 -0.8706738 -0.4891132
vn 0.05191684 -0.8706738 -0.4891132
vn 0.05191684 -0.8706738 -0.4891132
vn 0.05191684 -0.8706738 -0.4891132
vn 0.05191684 -0.8706738 -0.4891132
vn 0.05191684 -0.8706738 -0.4891132
vn 0.05191684 -0.8706738 -0.4891132
vn 0.05191684 -0.8706738 -0.4891132
vn 0.05191684 -0.8706738 -0.4891132
vn 0.05191684 -0.8706738 -0.4891132
vn 0.05191684 -0.8706738 -0.4891132
vn 0.05191684 -0.8706738 -0.4891132
vn 0.05191684 -0.8706738 -0.4891132
vn 0.05191684 -0.8706738 -0.4891132
vn 0.05191684 -0.8706738 -0.4891132
vn 0.05191684 -0.8706738 -0.4891132
vn 0.05191684 -0.8706738 -0.4891132
vn 0.05191684 -0.8706738 -0.4891132
vn 0.05191684 -0.8706738 -0.4891132
vn 0.05191684 -0.8706738 -0.4891132
vn 0.05191684 -0.8706738 -0.4891132
vn 0.05191684 -0.8706738 -0.4891132
vn 0.05191684 -0.8706738 -0.4891132
vn 0.05191684 -0.8706738 -0.4891132
vn 0.05191684 -0.8706738 -0.4891132
vn 0.05191684 -0.8706738 -0.4891132
vn 0.05191684 -0.8706738 -0.4891132
vn 0.05191684 -0.8706738 -0.4891132
vn 0.05191684 -0.8706738 -0.4891132
vn 0.05191684 -0.8706738 -0.4891132
vn 0.05191684 -0.8706738 -0.4891132
vn 0.05191684 -0.8706738 -0.4891132
vn 0.05191684 -0.8706738 -0.4891132
vn 0.05191684 -0.8706738 -0.4891132
vn 0.05191684 -0.8706738 -0.4891132
vn -0.05021501 0.8706742 0.4892901
vn -0.05021501 0.8706742 0.4892901
vn -0.05021501 0.8706742 0.4892901
vn -0.05021501 0.8706742 0.4892901
vn -0.05021501 0.8706742 0.4892901
vn -0.05021501 0.8706742 0.4892901
vn -0.05021501 0.8706742 0.4892901
vn -0.05021501 0.8706742 0.4892901
g Combined_M_Cmn_ami01_Prefab_Mesh_0
f 3/3/3 2/2/2 1/1/1
f 4/4/4 1/1/1 2/2/2
f 7/7/7 6/6/6 5/5/5
f 8/8/8 5/5/5 6/6/6
f 11/11/11 10/10/10 9/9/9
f 12/12/12 9/9/9 10/10/10
f 15/15/15 14/14/14 13/13/13
f 16/16/16 13/13/13 14/14/14
f 19/19/19 18/18/18 17/17/17
f 20/20/20 17/17/17 18/18/18
f 23/23/23 22/22/22 21/21/21
f 24/24/24 21/21/21 22/22/22
f 27/27/27 26/26/26 25/25/25
f 28/28/28 25/25/25 26/26/26
f 31/31/31 30/30/30 29/29/29
f 32/32/32 29/29/29 30/30/30
f 35/35/35 34/34/34 33/33/33
f 36/36/36 33/33/33 34/34/34
f 39/39/39 38/38/38 37/37/37
f 40/40/40 37/37/37 38/38/38
f 43/43/43 42/42/42 41/41/41
f 44/44/44 41/41/41 42/42/42
f 47/47/47 46/46/46 45/45/45
f 48/48/48 45/45/45 46/46/46
f 51/51/51 50/50/50 49/49/49
f 49/49/49 52/52/52 51/51/51
f 55/55/55 54/54/54 53/53/53
f 53/53/53 56/56/56 55/55/55
f 59/59/59 58/58/58 57/57/57
f 57/57/57 60/60/60 59/59/59
f 63/63/63 62/62/62 61/61/61
f 61/61/61 64/64/64 63/63/63
f 67/67/67 66/66/66 65/65/65
f 65/65/65 68/68/68 67/67/67
f 71/71/71 70/70/70 69/69/69
f 69/69/69 72/72/72 71/71/71
f 75/75/75 74/74/74 73/73/73
f 73/73/73 76/76/76 75/75/75
f 79/79/79 78/78/78 77/77/77
f 77/77/77 80/80/80 79/79/79
f 83/83/83 82/82/82 81/81/81
f 81/81/81 84/84/84 83/83/83
f 87/87/87 86/86/86 85/85/85
f 85/85/85 88/88/88 87/87/87
f 91/91/91 90/90/90 89/89/89
f 89/89/89 92/92/92 91/91/91
f 95/95/95 94/94/94 93/93/93
f 93/93/93 96/96/96 95/95/95
f 99/99/99 98/98/98 97/97/97
f 97/97/97 100/100/100 99/99/99
f 103/103/103 102/102/102 101/101/101
f 101/101/101 104/104/104 103/103/103
f 107/107/107 106/106/106 105/105/105
f 108/108/108 105/105/105 106/106/106
f 111/111/111 110/110/110 109/109/109
f 112/112/112 109/109/109 110/110/110
f 115/115/115 114/114/114 113/113/113
f 116/116/116 113/113/113 114/114/114
f 119/119/119 118/118/118 117/117/117
f 120/120/120 117/117/117 118/118/118
f 123/123/123 122/122/122 121/121/121
f 124/124/124 121/121/121 122/122/122
f 127/127/127 126/126/126 125/125/125
f 128/128/128 125/125/125 126/126/126
f 131/131/131 130/130/130 129/129/129
f 132/132/132 129/129/129 130/130/130
f 135/135/135 134/134/134 133/133/133
f 136/136/136 133/133/133 134/134/134
f 139/139/139 138/138/138 137/137/137
f 140/140/140 137/137/137 138/138/138
f 143/143/143 142/142/142 141/141/141
f 144/144/144 141/141/141 142/142/142
f 147/147/147 146/146/146 145/145/145
f 148/148/148 145/145/145 146/146/146
f 151/151/151 150/150/150 149/149/149
f 152/152/152 149/149/149 150/150/150
f 155/155/155 154/154/154 153/153/153
f 156/156/156 153/153/153 154/154/154
f 159/159/159 158/158/158 157/157/157
f 160/160/160 157/157/157 158/158/158
f 163/163/163 162/162/162 161/161/161
f 161/161/161 164/164/164 163/163/163
f 167/167/167 166/166/166 165/165/165
f 165/165/165 168/168/168 167/167/167
f 171/171/171 170/170/170 169/169/169
f 169/169/169 172/172/172 171/171/171
f 175/175/175 174/174/174 173/173/173
f 173/173/173 176/176/176 175/175/175
f 179/179/179 178/178/178 177/177/177
f 177/177/177 180/180/180 179/179/179
f 183/183/183 182/182/182 181/181/181
f 181/181/181 184/184/184 183/183/183
f 187/187/187 186/186/186 185/185/185
f 185/185/185 188/188/188 187/187/187
f 191/191/191 190/190/190 189/189/189
f 189/189/189 192/192/192 191/191/191
f 195/195/195 194/194/194 193/193/193
f 193/193/193 196/196/196 195/195/195
f 199/199/199 198/198/198 197/197/197
f 197/197/197 200/200/200 199/199/199
f 203/203/203 202/202/202 201/201/201
f 201/201/201 204/204/204 203/203/203
f 207/207/207 206/206/206 205/205/205
f 205/205/205 208/208/208 207/207/207
f 211/211/211 210/210/210 209/209/209
f 209/209/209 212/212/212 211/211/211
f 215/215/215 214/214/214 213/213/213
f 213/213/213 216/216/216 215/215/215
f 219/219/219 218/218/218 217/217/217
f 220/220/220 217/217/217 218/218/218
f 223/223/223 222/222/222 221/221/221
f 224/224/224 221/221/221 222/222/222
