g Combined_M_Cmn_ami01_Prefab_Mesh
v 148.7727 41.48412 113.4035
v 141.7846 42.74129 116.1172
v 140.211 40.15468 110.4428
v 146.0242 39.27481 108.1931
v 140.211 40.15468 110.4428
v 138.6373 37.56805 104.7684
v 143.2754 37.06552 102.9823
v 146.0242 39.27481 108.1931
v 166.3941 29.93535 60.77289
v 166.402 30.21379 67.03568
v 160.1647 30.26024 67.03215
v 160.1566 29.94322 60.78239
v 160.1647 30.26024 67.03215
v 153.9272 30.30641 67.02888
v 153.9193 29.95137 60.7919
v 160.1566 29.94322 60.78239
v 166.3941 28.95389 60.82748
v 160.1647 29.28149 67.12288
v 166.402 29.23505 67.1264
v 160.1569 28.96204 60.83727
v 160.1647 29.28149 67.12288
v 153.9193 28.96992 60.84705
v 153.9272 29.32768 67.11935
v 160.1569 28.96204 60.83727
v 166.3955 30.38004 68.34937
v 166.3634 31.1852 74.80177
v 160.1264 31.18927 74.71701
v 160.1582 30.41914 68.33197
v 160.1264 31.18927 74.71701
v 153.8897 31.19334 74.63226
v 153.921 30.45827 68.31459
v 160.1582 30.41914 68.33197
v 166.3949 29.40292 68.45313
v 160.1248 30.21107 74.69203
v 166.3615 30.207 74.77678
v 160.1577 29.44203 68.43547
v 160.1248 30.21107 74.69203
v 153.9204 29.48143 68.41809
v 153.8878 30.21515 74.60727
v 160.1577 29.44203 68.43547
v 166.3224 31.38919 75.95247
v 166.1225 32.41521 82.51135
v 159.8964 32.30383 82.14545
v 160.0873 31.37344 75.81935
v 159.8964 32.30383 82.14545
v 153.67 32.19273 81.77982
v 153.8525 31.35742 75.68625
v 160.0873 31.37344 75.81935
v 166.3183 30.42105 76.12306
v 159.8852 31.33243 82.17479
v 166.1113 31.44353 82.5407
v 160.0835 30.40529 75.98994
v 159.8852 31.33243 82.17479
v 153.8484 30.38954 75.85657
v 153.6588 31.22131 81.80916
v 160.0835 30.40529 75.98994
v 165.9568 32.66702 83.76691
v 165.1549 33.90953 90.54068
v 159.0325 33.53764 89.36662
v 159.7483 32.51109 83.26219
v 159.0325 33.53764 89.36662
v 152.9104 33.1655 88.19284
v 153.5398 32.3549 82.75774
v 159.7483 32.51109 83.26219
v 165.9402 31.70377 83.96249
v 158.9926 32.57683 89.57172
v 165.1149 32.94899 90.74576
v 159.732 31.54784 83.45778
v 158.9926 32.57683 89.57172
v 153.5233 31.39191 82.95305
v 152.8705 32.20496 88.39766
v 159.732 31.54784 83.45778
v 164.7341 34.34851 91.9823
v 162.7025 36.46707 99.00461
v 156.9634 35.49187 96.61087
v 158.6777 33.87286 90.59799
v 156.9634 35.49187 96.61087
v 151.2243 34.51639 94.21658
v 152.6211 33.39748 89.21396
v 158.6777 33.87286 90.59799
v 164.7102 33.38878 92.20016
v 157.0172 34.52969 96.74261
v 162.7562 35.50491 99.13663
v 158.6536 32.91341 90.81613
v 157.0172 34.52969 96.74261
v 152.597 32.43774 89.43181
v 151.2781 33.55421 94.3486
v 158.6536 32.91341 90.81613
v 154.8044 36.7428 100.4074
v 156.3212 35.85588 97.59341
v 161.8612 36.94354 100.2469
v 159.861 38.09859 103.6824
v 153.0422 37.62999 102.9761
v 157.4692 39.26231 107.0546
v 150.7813 34.7682 94.93997
v 156.3212 35.85588 97.59341
v 154.8044 36.7428 100.4074
v 149.8148 35.38728 97.02078
v 153.0422 37.62999 102.9761
v 148.4652 36.00636 98.85574
v 154.8777 35.78824 100.7198
v 159.9341 37.14375 103.9948
v 161.9207 35.98871 100.5375
v 156.3807 34.90103 97.88409
v 153.1291 36.67543 103.3102
v 157.7023 38.29906 107.207
v 150.8408 33.81337 95.23065
v 149.821 34.43272 97.44482
v 154.8777 35.78824 100.7198
v 156.3807 34.90103 97.88409
v 153.1291 36.67543 103.3102
v 148.556 35.0518 99.41373
v 156.4953 39.59807 107.9135
v 150.2331 41.21735 112.8165
v 147.2368 39.08737 107.7076
v 152.1938 37.88615 103.8051
v 147.2368 39.08737 107.7076
v 144.2403 36.95767 102.5988
v 147.892 36.17397 99.69678
v 152.1938 37.88615 103.8051
v 156.5633 38.64296 108.252
v 147.2102 38.12927 108.0659
v 150.2067 40.25926 113.1748
v 152.2617 36.93105 104.1436
v 147.2102 38.12927 108.0659
v 147.96 35.21886 100.0355
v 144.214 35.99957 102.9571
v 152.2617 36.93105 104.1436
v 148.7404 40.52574 113.7689
v 140.1523 39.19522 110.8419
v 141.7257 41.78183 116.516
v 145.9916 38.31644 108.5584
v 140.1523 39.19522 110.8419
v 143.2428 36.10715 103.3477
v 138.5784 36.60861 105.1674
v 145.9916 38.31644 108.5584
v 140.3186 42.89775 116.3829
v 133.1857 43.61952 117.5828
v 132.6057 40.84221 111.9062
v 138.9198 40.27637 110.7047
v 132.6057 40.84221 111.9062
v 132.026 38.0649 106.2299
v 137.5214 37.65498 105.0265
v 138.9198 40.27637 110.7047
v 140.2637 41.93803 116.7792
v 132.716 39.88031 112.287
v 133.296 42.65762 117.9633
v 138.865 39.31665 111.1007
v 132.716 39.88031 112.287
v 137.4665 36.69499 105.4225
v 132.136 37.103 106.6104
v 138.865 39.31665 111.1007
v 131.9135 43.72818 117.6523
v 125.0276 44.23669 117.9365
v 125.0281 41.34041 112.1262
v 131.4373 40.92995 111.9537
v 125.0281 41.34041 112.1262
v 125.0284 38.44438 106.316
v 130.9609 38.13145 106.2551
v 131.4373 40.92995 111.9537
v 131.8739 42.76736 118.0527
v 125.1077 40.38394 112.6288
v 125.1072 43.28023 118.4393
v 131.3977 39.96887 112.3541
v 125.1077 40.38394 112.6288
v 130.9215 37.17036 106.6555
v 125.1083 37.48766 106.8185
v 131.3977 39.96887 112.3541
v 123.8916 44.30896 117.8848
v 117.8344 44.64253 117.6056
v 117.9996 41.70441 111.8192
v 123.9239 41.40479 112.0773
v 117.9996 41.70441 111.8192
v 118.165 38.7663 106.0329
v 123.9562 38.50063 106.2698
v 123.9239 41.40479 112.0773
v 123.8324 43.35222 118.3879
v 117.9618 40.74658 112.3196
v 117.7964 43.68471 118.1062
v 123.8647 40.44804 112.5804
v 117.9618 40.74658 112.3196
v 123.897 37.54388 106.7729
v 118.1272 37.80847 106.5333
v 123.8647 40.44804 112.5804
vt -1.5 2.5
vt 2.5 2.5
vt 2.5 -1.5
vt -1.5 -1.5
vt -1.5 2.5
vt 2.5 2.5
vt 2.5 -1.5
vt -1.5 -1.5
vt -1.5 2.5
vt 2.5 2.5
vt 2.5 -1.5
vt -1.5 -1.5
vt -1.5 2.5
vt 2.5 2.5
vt 2.5 -1.5
vt -1.5 -1.5
vt -1.5 2.5
vt 2.5 -1.5
vt 2.5 2.5
vt -1.5 -1.5
vt -1.5 2.5
vt 2.5 -1.5
vt 2.5 2.5
vt -1.5 -1.5
vt -1.5 2.5
vt 2.5 2.5
vt 2.5 -1.5
vt -1.5 -1.5
vt -1.5 2.5
vt 2.5 2.5
vt 2.5 -1.5
vt -1.5 -1.5
vt -1.5 2.5
vt 2.5 -1.5
vt 2.5 2.5
vt -1.5 -1.5
vt -1.5 2.5
vt 2.5 -1.5
vt 2.5 2.5
vt -1.5 -1.5
vt -1.5 2.5
vt 2.5 2.5
vt 2.5 -1.5
vt -1.5 -1.5
vt -1.5 2.5
vt 2.5 2.5
vt 2.5 -1.5
vt -1.5 -1.5
vt -1.5 2.5
vt 2.5 -1.5
vt 2.5 2.5
vt -1.5 -1.5
vt -1.5 2.5
vt 2.5 -1.5
vt 2.5 2.5
vt -1.5 -1.5
vt -1.5 2.5
vt 2.5 2.5
vt 2.5 -1.5
vt -1.5 -1.5
vt -1.5 2.5
vt 2.5 2.5
vt 2.5 -1.5
vt -1.5 -1.5
vt -1.5 2.5
vt 2.5 -1.5
vt 2.5 2.5
vt -1.5 -1.5
vt -1.5 2.5
vt 2.5 -1.5
vt 2.5 2.5
vt -1.5 -1.5
vt -1.5 2.5
vt 2.5 2.5
vt 2.5 -1.5
vt -1.5 -1.5
vt -1.5 2.5
vt 2.5 2.5
vt 2.5 -1.5
vt -1.5 -1.5
vt -1.5 2.5
vt 2.5 -1.5
vt 2.5 2.5
vt -1.5 -1.5
vt -1.5 2.5
vt 2.5 -1.5
vt 2.5 2.5
vt -1.5 -1.5
vt 0.5000076 -1.5
vt -1.5 -1.5
vt -1.5 2.5
vt 0.5000076 2.5
vt 2.5 -1.5
vt 2.5 2.5
vt 2.5 -1.5
vt -1.5 -1.5
vt -1.5 0.5000076
vt 2.5 0.5000076
vt -1.5 2.5
vt 2.5 2.5
vt 0.5000076 -1.5
vt 0.5000076 2.5
vt -1.5 2.5
vt -1.5 -1.5
vt 2.5 -1.5
vt 2.5 2.5
vt 2.5 -1.5
vt 2.5 0.5000076
vt -1.5 0.5000076
vt -1.5 -1.5
vt -1.5 2.5
vt 2.5 2.5
vt -1.5 2.5
vt 2.5 2.5
vt 2.5 -1.5
vt -1.5 -1.5
vt -1.5 2.5
vt 2.5 2.5
vt 2.5 -1.5
vt -1.5 -1.5
vt -1.5 2.5
vt 2.5 -1.5
vt 2.5 2.5
vt -1.5 -1.5
vt -1.5 2.5
vt 2.5 -1.5
vt 2.5 2.5
vt -1.5 -1.5
vt -1.5 2.5
vt 2.5 -1.5
vt 2.5 2.5
vt -1.5 -1.5
vt -1.5 2.5
vt 2.5 -1.5
vt 2.5 2.5
vt -1.5 -1.5
vt -1.5 2.5
vt 2.5 2.5
vt 2.5 -1.5
vt -1.5 -1.5
vt -1.5 2.5
vt 2.5 2.5
vt 2.5 -1.5
vt -1.5 -1.5
vt -1.5 2.5
vt 2.5 -1.5
vt 2.5 2.5
vt -1.5 -1.5
vt -1.5 2.5
vt 2.5 -1.5
vt 2.5 2.5
vt -1.5 -1.5
vt -1.5 2.5
vt 2.5 2.5
vt 2.5 -1.5
vt -1.5 -1.5
vt -1.5 2.5
vt 2.5 2.5
vt 2.5 -1.5
vt -1.5 -1.5
vt -1.5 2.5
vt 2.5 -1.5
vt 2.5 2.5
vt -1.5 -1.5
vt -1.5 2.5
vt 2.5 -1.5
vt 2.5 2.5
vt -1.5 -1.5
vt -1.5 2.5
vt 2.5 2.5
vt 2.5 -1.5
vt -1.5 -1.5
vt -1.5 2.5
vt 2.5 2.5
vt 2.5 -1.5
vt -1.5 -1.5
vt -1.5 2.5
vt 2.5 -1.5
vt 2.5 2.5
vt -1.5 -1.5
vt -1.5 2.5
vt 2.5 -1.5
vt 2.5 2.5
vt -1.5 -1.5
vn -0.0341779 0.9149941 -0.402017
vn 0.0478493 0.9091351 -0.4137437
vn 0.0009765625 0.9169472 -0.3990073
vn -0.0341779 0.9228063 -0.3837453
vn 0.0009765625 0.9169472 -0.3990073
vn -0.06933248 0.9130411 -0.4019315
vn 0.0009765625 0.9189003 -0.3944887
vn -0.0341779 0.9228063 -0.3837453
vn 0.002929628 0.9989744 -0.04518251
vn 0.0009765625 0.9989744 -0.04526686
vn 0.0009765625 0.9989744 -0.04526686
vn 0.0009765625 0.9989744 -0.04526686
vn 0.0009765625 0.9989744 -0.04526686
vn 0.0009765625 0.9989744 -0.04526686
vn 0.0009765625 0.9989744 -0.04526686
vn 0.0009765625 0.9989744 -0.04526686
vn -0.002929449 -0.9989746 0.04517987
vn -0.0009764433 -0.9989746 0.04526423
vn -0.0009764433 -0.9989746 0.04526423
vn -0.0009764433 -0.9989746 0.04526423
vn -0.0009764433 -0.9989746 0.04526423
vn -0.0009764433 -0.9989746 0.04526423
vn -0.0009764433 -0.9989746 0.04526423
vn -0.0009764433 -0.9989746 0.04526423
vn 0.0009765625 0.9931153 -0.1171369
vn 0.0009765625 0.9931153 -0.1171369
vn 0.0009765625 0.9931153 -0.1171369
vn 0.0009765625 0.9931153 -0.1171369
vn 0.0009765625 0.9931153 -0.1171369
vn 0.0009765625 0.9931153 -0.1171369
vn 0.0009765625 0.9931153 -0.1171369
vn 0.0009765625 0.9931153 -0.1171369
vn -0.0009764433 -0.9931155 0.1171354
vn -0.0009764433 -0.9931155 0.1171354
vn -0.04394305 -0.9911624 0.1251642
vn -0.0009764433 -0.9931155 0.1171354
vn -0.0009764433 -0.9931155 0.1171354
vn -0.0009764433 -0.9931155 0.1171354
vn -0.0009764433 -0.9931155 0.1171354
vn -0.0009764433 -0.9931155 0.1171354
vn -0.0341779 0.9872563 -0.1554248
vn -0.01855373 0.9872563 -0.1580531
vn 0.0009765625 0.9892093 -0.1465059
vn 0.0009765625 0.9892093 -0.1465059
vn 0.0009765625 0.9892093 -0.1465059
vn 0.0009765625 0.9911623 -0.1326513
vn 0.0009765625 0.9892093 -0.1465059
vn 0.0009765625 0.9892093 -0.1465059
vn 0.02636594 -0.9872564 0.1569382
vn 0.04003716 -0.9872564 0.1540189
vn -0.0009764433 -0.9872564 0.1591346
vn -0.04003704 -0.9872564 0.1540189
vn 0.04003716 -0.9872564 0.1540189
vn -0.0009764433 -0.9892094 0.1465053
vn -0.0009764433 -0.9911624 0.1326504
vn -0.04003704 -0.9872564 0.1540189
vn 0.0009765625 0.9853032 -0.1708119
vn -0.03222489 0.9833502 -0.1788408
vn -0.02441275 0.9853032 -0.1690612
vn -0.0341779 0.9853032 -0.1673605
vn -0.02441275 0.9853032 -0.1690612
vn -0.0341779 0.9872563 -0.1554248
vn 0.0009765625 0.9872563 -0.1591353
vn -0.0341779 0.9853032 -0.1673605
vn -0.0009764433 -0.9853033 0.1708109
vn 0.02441293 -0.9853033 0.1690601
vn 0.03222507 -0.9833503 0.1788398
vn 0.03417808 -0.9853033 0.1673594
vn 0.02441293 -0.9853033 0.1690601
vn -0.0009764433 -0.9872564 0.1591346
vn 0.03417808 -0.9872564 0.155424
vn 0.03417808 -0.9853033 0.1673594
vn -0.04784918 0.9579608 -0.2828807
vn -0.04784918 0.9540547 -0.2957872
vn 0.0009765625 0.9618669 -0.2735164
vn 0.0009765625 0.9638199 -0.2665527
vn 0.0009765625 0.9618669 -0.2735164
vn -0.05566132 0.969679 -0.237959
vn -0.02831888 0.967726 -0.2504086
vn 0.0009765625 0.9638199 -0.2665527
vn 0.02050686 -0.957961 0.2861648
vn 0.04589623 -0.959914 0.2765116
vn 0.01660085 -0.9540549 0.2991716
vn 0.04199022 -0.96382 0.2632257
vn 0.04589623 -0.959914 0.2765116
vn 0.002929628 -0.9677261 0.2519873
vn 0.07909775 -0.9677261 0.2392692
vn 0.04199022 -0.96382 0.2632257
vn -0.04589617 0.9423366 -0.3315047
vn -0.0341779 0.9462427 -0.3216467
vn -0.02441275 0.9442896 -0.3282091
vn 0.0009765625 0.9423366 -0.3346653
vn -0.0126946 0.9403836 -0.3398788
vn -0.05175519 0.9384305 -0.3415692
vn -0.04003704 0.9481957 -0.3151539
vn -0.0341779 0.9462427 -0.3216467
vn -0.04589617 0.9423366 -0.3315047
vn -0.05175519 0.9442896 -0.325021
vn -0.0126946 0.9403836 -0.3398788
vn -0.03613102 0.9403836 -0.3381913
vn 0.05566138 -0.9423367 0.330005
vn 0.0498023 -0.9403837 0.3364495
vn 0.04003716 -0.9442897 0.326671
vn 0.05761445 -0.9462427 0.3182847
vn 0.04003716 -0.9384307 0.3431398
vn -0.0009764433 -0.9364776 0.350726
vn 0.03222507 -0.9501488 0.310127
vn 0.03417808 -0.9462427 0.3216465
vn 0.05566138 -0.9423367 0.330005
vn 0.05761445 -0.9462427 0.3182847
vn 0.04003716 -0.9384307 0.3431398
vn 0.0498023 -0.9403837 0.3364495
vn -0.0537082 0.9325714 -0.3569677
vn -0.04199004 0.9306184 -0.3635742
vn -0.04199004 0.9345244 -0.3534133
vn -0.05175519 0.9384305 -0.3415692
vn -0.04199004 0.9345244 -0.3534133
vn -0.07128549 0.9364775 -0.3434068
vn -0.04003704 0.9384305 -0.3431402
vn -0.05175519 0.9384305 -0.3415692
vn 0.02245992 -0.9345246 0.3551892
vn 0.04199022 -0.9345246 0.3534128
vn 0.04199022 -0.9306185 0.3635739
vn 0.05175537 -0.9384307 0.3415688
vn 0.04199022 -0.9345246 0.3534128
vn 0.04003716 -0.9384307 0.3431398
vn 0.07128567 -0.9364776 0.3434065
vn 0.05175537 -0.9384307 0.3415688
vn 0.03417808 -0.9149943 0.4020165
vn 0.01855385 -0.9169473 0.3985767
vn -0.0009764433 -0.9091352 0.4164999
vn 0.0498023 -0.9228064 0.3820314
vn 0.01855385 -0.9169473 0.3985767
vn 0.028319 -0.9189004 0.3934719
vn 0.03417808 -0.9149943 0.4020165
vn 0.0498023 -0.9228064 0.3820314
vn 0.03613108 0.901323 -0.4316382
vn 0.0009765625 0.8974169 -0.4411824
vn 0.03613108 0.901323 -0.4316382
vn 0.0009765625 0.9091351 -0.4165002
vn 0.03613108 0.901323 -0.4316382
vn 0.0009765625 0.89937 -0.4371873
vn 0.0009765625 0.903276 -0.4290589
vn 0.0009765625 0.9091351 -0.4165002
vn -0.03613102 -0.9013231 0.4316379
vn -0.03613102 -0.9013231 0.4316379
vn -0.0009764433 -0.8974171 0.4411821
vn 0.03613108 -0.9071822 0.4191837
vn -0.03613102 -0.9013231 0.4316379
vn -0.0009764433 -0.9032761 0.4290586
vn -0.0009764433 -0.8993701 0.4371871
vn 0.03613108 -0.9071822 0.4191837
vn 0.05761445 0.8935108 -0.4453302
vn 0.05761445 0.8935108 -0.4453302
vn 0.0009765625 0.8954638 -0.4451332
vn 0.03613108 0.8954638 -0.4436655
vn 0.0009765625 0.8954638 -0.4451332
vn 0.05761445 0.8935108 -0.4453302
vn 0.0009765625 0.8954638 -0.4451332
vn 0.03613108 0.8954638 -0.4436655
vn -0.0009764433 -0.895464 0.4451329
vn -0.0009764433 -0.895464 0.4451329
vn -0.05761433 -0.893511 0.4453299
vn -0.03613102 -0.895464 0.4436651
vn -0.0009764433 -0.895464 0.4451329
vn -0.0009764433 -0.895464 0.4451329
vn -0.05761433 -0.893511 0.4453299
vn -0.03613102 -0.895464 0.4436651
vn 0.06152052 0.8915578 -0.4487092
vn 0.07519168 0.8896048 -0.4504991
vn 0.07323867 0.8915578 -0.4469461
vn 0.05761445 0.8935108 -0.4453302
vn 0.07323867 0.8915578 -0.4469461
vn 0.04589623 0.8915578 -0.4505754
vn 0.06152052 0.8915578 -0.4487092
vn 0.05761445 0.8935108 -0.4453302
vn -0.06152034 -0.8915579 0.4487089
vn -0.07323849 -0.8915579 0.4469458
vn -0.07519162 -0.8896049 0.4504989
vn -0.05761433 -0.893511 0.4453299
vn -0.07323849 -0.8915579 0.4469458
vn -0.06152034 -0.8915579 0.4487089
vn -0.04589617 -0.8915579 0.4505751
vn -0.05761433 -0.893511 0.4453299
g Combined_M_Cmn_ami01_Prefab_Mesh_0
f 3/3/3 2/2/2 1/1/1
f 1/1/1 4/4/4 3/3/3
f 7/7/7 6/6/6 5/5/5
f 5/5/5 8/8/8 7/7/7
f 11/11/11 10/10/10 9/9/9
f 9/9/9 12/12/12 11/11/11
f 15/15/15 14/14/14 13/13/13
f 13/13/13 16/16/16 15/15/15
f 19/19/19 18/18/18 17/17/17
f 20/20/20 17/17/17 18/18/18
f 23/23/23 22/22/22 21/21/21
f 24/24/24 21/21/21 22/22/22
f 27/27/27 26/26/26 25/25/25
f 25/25/25 28/28/28 27/27/27
f 31/31/31 30/30/30 29/29/29
f 29/29/29 32/32/32 31/31/31
f 35/35/35 34/34/34 33/33/33
f 36/36/36 33/33/33 34/34/34
f 39/39/39 38/38/38 37/37/37
f 40/40/40 37/37/37 38/38/38
f 43/43/43 42/42/42 41/41/41
f 41/41/41 44/44/44 43/43/43
f 47/47/47 46/46/46 45/45/45
f 45/45/45 48/48/48 47/47/47
f 51/51/51 50/50/50 49/49/49
f 52/52/52 49/49/49 50/50/50
f 55/55/55 54/54/54 53/53/53
f 56/56/56 53/53/53 54/54/54
f 59/59/59 58/58/58 57/57/57
f 57/57/57 60/60/60 59/59/59
f 63/63/63 62/62/62 61/61/61
f 61/61/61 64/64/64 63/63/63
f 67/67/67 66/66/66 65/65/65
f 68/68/68 65/65/65 66/66/66
f 71/71/71 70/70/70 69/69/69
f 72/72/72 69/69/69 70/70/70
f 75/75/75 74/74/74 73/73/73
f 73/73/73 76/76/76 75/75/75
f 79/79/79 78/78/78 77/77/77
f 77/77/77 80/80/80 79/79/79
f 83/83/83 82/82/82 81/81/81
f 84/84/84 81/81/81 82/82/82
f 87/87/87 86/86/86 85/85/85
f 88/88/88 85/85/85 86/86/86
f 91/91/91 90/90/90 89/89/89
f 92/92/92 91/91/91 89/89/89
f 92/92/92 89/89/89 93/93/93
f 94/94/94 92/92/92 93/93/93
f 97/97/97 96/96/96 95/95/95
f 98/98/98 97/97/97 95/95/95
f 99/99/99 97/97/97 98/98/98
f 100/100/100 99/99/99 98/98/98
f 103/103/103 102/102/102 101/101/101
f 104/104/104 103/103/103 101/101/101
f 101/101/101 102/102/102 105/105/105
f 102/102/102 106/106/106 105/105/105
f 109/109/109 108/108/108 107/107/107
f 110/110/110 109/109/109 107/107/107
f 109/109/109 111/111/111 108/108/108
f 111/111/111 112/112/112 108/108/108
f 115/115/115 114/114/114 113/113/113
f 113/113/113 116/116/116 115/115/115
f 119/119/119 118/118/118 117/117/117
f 117/117/117 120/120/120 119/119/119
f 123/123/123 122/122/122 121/121/121
f 124/124/124 121/121/121 122/122/122
f 127/127/127 126/126/126 125/125/125
f 128/128/128 125/125/125 126/126/126
f 131/131/131 130/130/130 129/129/129
f 132/132/132 129/129/129 130/130/130
f 135/135/135 134/134/134 133/133/133
f 136/136/136 133/133/133 134/134/134
f 139/139/139 138/138/138 137/137/137
f 137/137/137 140/140/140 139/139/139
f 143/143/143 142/142/142 141/141/141
f 141/141/141 144/144/144 143/143/143
f 147/147/147 146/146/146 145/145/145
f 148/148/148 145/145/145 146/146/146
f 151/151/151 150/150/150 149/149/149
f 152/152/152 149/149/149 150/150/150
f 155/155/155 154/154/154 153/153/153
f 153/153/153 156/156/156 155/155/155
f 159/159/159 158/158/158 157/157/157
f 157/157/157 160/160/160 159/159/159
f 163/163/163 162/162/162 161/161/161
f 164/164/164 161/161/161 162/162/162
f 167/167/167 166/166/166 165/165/165
f 168/168/168 165/165/165 166/166/166
f 171/171/171 170/170/170 169/169/169
f 169/169/169 172/172/172 171/171/171
f 175/175/175 174/174/174 173/173/173
f 173/173/173 176/176/176 175/175/175
f 179/179/179 178/178/178 177/177/177
f 180/180/180 177/177/177 178/178/178
f 183/183/183 182/182/182 181/181/181
f 184/184/184 181/181/181 182/182/182
