g Combined_M_Cmn_ami01_Prefab_Mesh
v 204.438 58.62892 137.1355
v 201.5096 55.15263 129.1868
v 206.6366 58.97551 129.8673
v 199.6562 55.02541 135.2016
v 201.5096 55.15263 129.1868
v 194.8748 51.42223 133.2677
v 196.3827 51.32942 128.5063
v 199.6562 55.02541 135.2016
v 155.5554 41.41618 160.116
v 161.4352 41.65028 153.5237
v 161.6483 42.81584 159.6474
v 155.3625 40.21582 153.9982
v 161.4352 41.65028 153.5237
v 155.1698 39.01582 147.8804
v 161.2226 40.48471 147.3996
v 155.3625 40.21582 153.9982
v 155.7959 40.4798 160.2935
v 161.9231 41.8886 159.8218
v 161.7101 40.72304 153.698
v 155.6029 39.27943 154.1757
v 161.7101 40.72304 153.698
v 161.4975 39.55746 147.5739
v 155.4103 38.07944 148.0579
v 155.6029 39.27943 154.1757
v 162.9055 43.21198 159.5213
v 168.7682 43.91849 152.7961
v 169.0529 45.13922 158.9061
v 162.6803 42.03693 153.3996
v 168.7682 43.91849 152.7961
v 162.4549 40.86188 147.2779
v 168.4834 42.69739 146.686
v 162.6803 42.03693 153.3996
v 163.1927 42.28859 159.6938
v 169.2441 44.19827 159.0836
v 168.9594 42.97717 152.9736
v 162.9674 41.11354 153.5725
v 168.9594 42.97717 152.9736
v 168.6747 41.75607 146.8635
v 162.7421 39.93849 147.4509
v 162.9674 41.11354 153.5725
v 170.172 45.54239 158.7473
v 175.8666 46.2953 151.858
v 176.4044 47.67596 157.9174
v 169.8437 44.29388 152.646
v 175.8666 46.2953 151.858
v 169.5154 43.04536 146.5444
v 175.3285 44.91463 145.7985
v 169.8437 44.29388 152.646
v 170.5232 44.63905 158.9104
v 176.6192 46.7424 158.0829
v 176.0814 45.36172 152.0235
v 170.1949 43.39053 152.8091
v 176.0814 45.36172 152.0235
v 175.5432 43.98105 145.9641
v 169.8666 42.14201 146.7078
v 170.1949 43.39053 152.8091
v 177.5851 48.11357 157.6225
v 182.692 48.6201 150.2927
v 183.97 50.37791 156.1472
v 176.92 46.66788 151.5982
v 182.692 48.6201 150.2927
v 176.2547 45.22218 145.5739
v 181.4136 46.86226 144.4382
v 176.92 46.66788 151.5982
v 177.9594 47.21692 157.7708
v 184.3524 49.48091 156.2713
v 183.074 47.72307 150.4168
v 177.2944 45.77121 151.7465
v 183.074 47.72307 150.4168
v 181.796 45.96524 144.5623
v 176.629 44.32587 145.7222
v 177.2944 45.77121 151.7465
v 185.2874 50.97969 155.556
v 189.395 51.41798 147.4094
v 191.7433 53.90343 152.6941
v 183.8248 49.09673 149.7992
v 189.395 51.41798 147.4094
v 182.3623 47.21376 144.0424
v 187.0466 48.93257 142.125
v 183.8248 49.09673 149.7992
v 185.6832 50.089 155.6945
v 192.0245 53.00185 152.9173
v 189.6762 50.5164 147.6329
v 184.2203 48.20638 149.9377
v 189.6762 50.5164 147.6329
v 187.3275 48.03099 142.3482
v 182.7577 46.32341 144.1813
v 184.2203 48.20638 149.9377
v 192.7802 52.88268 144.8062
v 195.8991 55.76143 149.2917
v 192.8115 54.41554 151.6991
v 190.2365 51.81377 146.6481
v 195.0755 53.85948 142.7405
v 198.9434 57.06303 146.6442
v 187.6611 49.21202 141.5971
v 189.5542 49.9969 140.3939
v 192.7802 52.88268 144.8062
v 190.2365 51.81377 146.6481
v 195.0755 53.85948 142.7405
v 191.3613 50.71254 138.873
v 193.2706 52.03242 145.0329
v 190.705 50.95683 146.8628
v 193.2801 53.55894 151.9138
v 196.3894 54.91115 149.5184
v 195.5876 53.01625 142.9791
v 199.2499 56.17198 146.8987
v 188.1296 48.35506 141.8118
v 190.705 50.95683 146.8628
v 193.2706 52.03242 145.0329
v 190.1518 49.15401 140.5475
v 195.5876 53.01625 142.9791
v 191.9254 49.86086 139.0593
v 199.6573 57.31786 145.428
v 199.2544 54.99272 136.4582
v 203.9592 58.54915 138.6561
v 195.813 54.09148 141.8048
v 199.2544 54.99272 136.4582
v 191.9686 50.8651 138.1819
v 194.5497 51.43626 134.26
v 195.813 54.09148 141.8048
v 200.1733 56.47112 145.6477
v 204.4921 57.68483 138.7826
v 199.7873 54.12837 136.5847
v 196.3289 53.24474 142.0249
v 199.7873 54.12837 136.5847
v 195.0825 50.57195 134.3865
v 192.4846 50.01833 138.402
v 196.3289 53.24474 142.0249
v 204.9772 57.7646 137.2554
v 207.2085 58.11119 129.9598
v 202.0815 54.28795 129.2793
v 200.1958 54.16106 135.3218
v 202.0815 54.28795 129.2793
v 196.9546 50.4651 128.5988
v 195.4144 50.55754 133.3879
v 200.1958 54.16106 135.3218
v 206.8207 58.89009 128.3829
v 202.5705 54.60149 121.4894
v 207.6313 58.41628 121.16
v 201.7019 55.06651 127.881
v 202.5705 54.60149 121.4894
v 196.5834 51.2433 127.3787
v 197.5096 50.78706 121.8184
v 201.7019 55.06651 127.881
v 207.3898 58.02541 128.4793
v 208.1909 57.58147 121.4342
v 203.1304 53.76704 121.7636
v 202.2713 54.20186 127.977
v 203.1304 53.76704 121.7636
v 198.0695 49.95226 122.0926
v 197.1528 50.37862 127.475
v 202.2713 54.20186 127.977
v 207.638 58.28975 119.9024
v 202.4485 53.65633 113.973
v 207.5993 57.49712 113.044
v 202.5627 54.47108 120.3386
v 202.4485 53.65633 113.973
v 197.4871 50.65208 120.7748
v 197.2973 49.81554 114.9024
v 202.5627 54.47108 120.3386
v 208.2123 57.42754 120.0138
v 208.2763 56.67955 113.2584
v 203.1251 52.83873 114.1878
v 203.1367 53.60887 120.45
v 203.1251 52.83873 114.1878
v 197.9743 48.99794 115.1168
v 198.0615 49.79021 120.8862
v 203.1367 53.60887 120.45
v 207.4977 57.33577 111.9143
v 201.8513 52.58742 107.0296
v 206.9652 56.43245 105.9325
v 202.3518 53.49394 112.876
v 201.8513 52.58742 107.0296
v 197.2063 49.65208 113.838
v 196.737 48.74242 108.1266
v 202.3518 53.49394 112.876
v 208.1712 56.49254 111.9987
v 207.6373 55.59166 106.0383
v 202.523 51.74666 107.1354
v 203.0257 52.65068 112.9603
v 202.523 51.74666 107.1354
v 197.4087 47.90163 108.2324
v 197.8797 48.80885 113.922
v 203.0257 52.65068 112.9603
vt -1.5 2.5
vt 2.5 -1.5
vt 2.5 2.5
vt -1.5 -1.5
vt -1.5 2.5
vt 2.5 -1.5
vt 2.5 2.5
vt -1.5 -1.5
vt -1.5 2.5
vt 2.5 -1.5
vt 2.5 2.5
vt -1.5 -1.5
vt -1.5 2.5
vt 2.5 -1.5
vt 2.5 2.5
vt -1.5 -1.5
vt -1.5 2.5
vt 2.5 2.5
vt 2.5 -1.5
vt -1.5 -1.5
vt -1.5 2.5
vt 2.5 2.5
vt 2.5 -1.5
vt -1.5 -1.5
vt -1.5 2.5
vt 2.5 -1.5
vt 2.5 2.5
vt -1.5 -1.5
vt -1.5 2.5
vt 2.5 -1.5
vt 2.5 2.5
vt -1.5 -1.5
vt -1.5 2.5
vt 2.5 2.5
vt 2.5 -1.5
vt -1.5 -1.5
vt -1.5 2.5
vt 2.5 2.5
vt 2.5 -1.5
vt -1.5 -1.5
vt -1.5 2.5
vt 2.5 -1.5
vt 2.5 2.5
vt -1.5 -1.5
vt -1.5 2.5
vt 2.5 -1.5
vt 2.5 2.5
vt -1.5 -1.5
vt -1.5 2.5
vt 2.5 2.5
vt 2.5 -1.5
vt -1.5 -1.5
vt -1.5 2.5
vt 2.5 2.5
vt 2.5 -1.5
vt -1.5 -1.5
vt -1.5 2.5
vt 2.5 -1.5
vt 2.5 2.5
vt -1.5 -1.5
vt -1.5 2.5
vt 2.5 -1.5
vt 2.5 2.5
vt -1.5 -1.5
vt -1.5 2.5
vt 2.5 2.5
vt 2.5 -1.5
vt -1.5 -1.5
vt -1.5 2.5
vt 2.5 2.5
vt 2.5 -1.5
vt -1.5 -1.5
vt -1.5 2.5
vt 2.5 -1.5
vt 2.5 2.5
vt -1.5 -1.5
vt -1.5 2.5
vt 2.5 -1.5
vt 2.5 2.5
vt -1.5 -1.5
vt -1.5 2.5
vt 2.5 2.5
vt 2.5 -1.5
vt -1.5 -1.5
vt -1.5 2.5
vt 2.5 2.5
vt 2.5 -1.5
vt -1.5 -1.5
vt 0.5000076 -1.5
vt 0.5000076 2.5
vt -1.5 2.5
vt -1.5 -1.5
vt 2.5 -1.5
vt 2.5 2.5
vt 2.5 -1.5
vt 2.5 0.5000076
vt -1.5 0.5000076
vt -1.5 -1.5
vt -1.5 2.5
vt 2.5 2.5
vt 0.5000076 -1.5
vt -1.5 -1.5
vt -1.5 2.5
vt 0.5000076 2.5
vt 2.5 -1.5
vt 2.5 2.5
vt 2.5 -1.5
vt -1.5 -1.5
vt -1.5 0.5000076
vt 2.5 0.5000076
vt -1.5 2.5
vt 2.5 2.5
vt -1.5 2.5
vt 2.5 -1.5
vt 2.5 2.5
vt -1.5 -1.5
vt -1.5 2.5
vt 2.5 -1.5
vt 2.5 2.5
vt -1.5 -1.5
vt -1.5 2.5
vt 2.5 2.5
vt 2.5 -1.5
vt -1.5 -1.5
vt -1.5 2.5
vt 2.5 2.5
vt 2.5 -1.5
vt -1.5 -1.5
vt -1.5 2.5
vt 2.5 2.5
vt 2.5 -1.5
vt -1.5 -1.5
vt -1.5 2.5
vt 2.5 2.5
vt 2.5 -1.5
vt -1.5 -1.5
vt -1.5 2.5
vt 2.5 -1.5
vt 2.5 2.5
vt -1.5 -1.5
vt -1.5 2.5
vt 2.5 -1.5
vt 2.5 2.5
vt -1.5 -1.5
vt -1.5 2.5
vt 2.5 2.5
vt 2.5 -1.5
vt -1.5 -1.5
vt -1.5 2.5
vt 2.5 2.5
vt 2.5 -1.5
vt -1.5 -1.5
vt -1.5 2.5
vt 2.5 -1.5
vt 2.5 2.5
vt -1.5 -1.5
vt -1.5 2.5
vt 2.5 -1.5
vt 2.5 2.5
vt -1.5 -1.5
vt -1.5 2.5
vt 2.5 2.5
vt 2.5 -1.5
vt -1.5 -1.5
vt -1.5 2.5
vt 2.5 2.5
vt 2.5 -1.5
vt -1.5 -1.5
vt -1.5 2.5
vt 2.5 -1.5
vt 2.5 2.5
vt -1.5 -1.5
vt -1.5 2.5
vt 2.5 -1.5
vt 2.5 2.5
vt -1.5 -1.5
vt -1.5 2.5
vt 2.5 2.5
vt 2.5 -1.5
vt -1.5 -1.5
vt -1.5 2.5
vt 2.5 2.5
vt 2.5 -1.5
vt -1.5 -1.5
vn -0.5670166 0.8098233 -0.1505936
vn -0.5670166 0.80422 -0.1781079
vn -0.5819585 0.8023522 -0.1324962
vn -0.5539424 0.8154265 -0.1680103
vn -0.5670166 0.80422 -0.1781079
vn -0.5614134 0.8060877 -0.1871833
vn -0.5688844 0.796749 -0.2038666
vn -0.5539424 0.8154265 -0.1680103
vn -0.2364261 0.9555072 -0.1763769
vn -0.2401617 0.9536394 -0.1813679
vn -0.2326907 0.9555072 -0.1812764
vn -0.2401617 0.9536394 -0.1813679
vn -0.2401617 0.9536394 -0.1813679
vn -0.2420293 0.9536394 -0.178868
vn -0.2457649 0.9517717 -0.1836579
vn -0.2401617 0.9536394 -0.1813679
vn 0.2361128 -0.9551939 0.1784807
vn 0.2342451 -0.9551939 0.180925
vn 0.2398483 -0.9533261 0.183418
vn 0.2398483 -0.9533261 0.183418
vn 0.2398483 -0.9533261 0.183418
vn 0.2454516 -0.9533261 0.1758491
vn 0.2435838 -0.9533261 0.1784272
vn 0.2398483 -0.9533261 0.183418
vn -0.3074003 0.942433 -0.1316246
vn -0.3074003 0.934962 -0.177062
vn -0.3092681 0.9405652 -0.1403223
vn -0.3074003 0.934962 -0.177062
vn -0.3074003 0.934962 -0.177062
vn -0.3055326 0.9368297 -0.1702938
vn -0.3036649 0.9368297 -0.1736024
vn -0.3074003 0.934962 -0.177062
vn 0.3089548 -0.9421197 0.1302208
vn 0.3108225 -0.9402519 0.1389806
vn 0.3070871 -0.9421197 0.1345662
vn 0.3070871 -0.9421197 0.1345662
vn 0.3070871 -0.9421197 0.1345662
vn 0.3052194 -0.9365165 0.1725632
vn 0.3070871 -0.9346487 0.1792466
vn 0.3070871 -0.9421197 0.1345662
vn -0.3354166 0.9218878 -0.1939554
vn -0.3335488 0.9200201 -0.2056896
vn -0.339152 0.9256233 -0.1679208
vn -0.3279456 0.934962 -0.1352689
vn -0.3335488 0.9200201 -0.2056896
vn -0.3260778 0.9293587 -0.1731057
vn -0.3204745 0.9312265 -0.1735318
vn -0.3279456 0.934962 -0.1352689
vn 0.336971 -0.92531 0.1739308
vn 0.3425742 -0.9234422 0.1729085
vn 0.3351032 -0.9215745 0.1959753
vn 0.3332354 -0.9309132 0.1495152
vn 0.3351032 -0.9215745 0.1959753
vn 0.3238968 -0.9290455 0.1787885
vn 0.3295 -0.9197068 0.2134695
vn 0.3332354 -0.9309132 0.1495152
vn -0.3615649 0.9088136 -0.2081555
vn -0.3540939 0.9200201 -0.1678706
vn -0.3671682 0.9144168 -0.1703804
vn -0.3522261 0.9181523 -0.1814747
vn -0.3540939 0.9200201 -0.1678706
vn -0.3447552 0.9125491 -0.2199954
vn -0.3354166 0.9218878 -0.1939554
vn -0.3522261 0.9181523 -0.1814747
vn 0.3612516 -0.9085003 0.2100583
vn 0.3668548 -0.9141035 0.1727203
vn 0.3537806 -0.9197068 0.1702313
vn 0.3519129 -0.917839 0.1836543
vn 0.3537806 -0.9197068 0.1702313
vn 0.3351032 -0.9215745 0.1959753
vn 0.3463097 -0.9141035 0.2109132
vn 0.3519129 -0.917839 0.1836543
vn -0.4605553 0.8639878 -0.2035039
vn -0.4493488 0.8751942 -0.1792227
vn -0.4754972 0.8602523 -0.1840338
vn -0.4418778 0.8807975 -0.170117
vn -0.4493488 0.8751942 -0.1792227
vn -0.4306715 0.8789297 -0.2049502
vn -0.4157294 0.8789297 -0.2337767
vn -0.4418778 0.8807975 -0.170117
vn 0.4621097 -0.8692777 0.1755302
vn 0.4770517 -0.8655422 0.152507
vn 0.452771 -0.8674099 0.2063937
vn 0.4453 -0.8711454 0.2069142
vn 0.452771 -0.8674099 0.2063937
vn 0.4191517 -0.8804842 0.2214938
vn 0.4322258 -0.8823519 0.1861074
vn 0.4453 -0.8711454 0.2069142
vn -0.5035133 0.8434426 -0.1872939
vn -0.5091166 0.8397071 -0.1889238
vn -0.5035133 0.8397071 -0.203387
vn -0.4960424 0.8434426 -0.2062683
vn -0.5128521 0.8341038 -0.2031097
vn -0.5165876 0.8397071 -0.1674192
vn -0.4885714 0.8565168 -0.1663637
vn -0.4979101 0.8434426 -0.2017181
vn -0.5035133 0.8434426 -0.1872939
vn -0.4960424 0.8434426 -0.2062683
vn -0.5128521 0.8341038 -0.2031097
vn -0.5091166 0.8397071 -0.1889238
vn 0.5050678 -0.8468648 0.166513
vn 0.4938614 -0.8506002 0.1804999
vn 0.4994646 -0.852468 0.1543807
vn 0.510671 -0.8431293 0.1683691
vn 0.5162743 -0.8431293 0.1503127
vn 0.5218775 -0.8393938 0.1518615
vn 0.4845226 -0.8487325 0.2118747
vn 0.4938614 -0.8506002 0.1804999
vn 0.5050678 -0.8468648 0.166513
vn 0.4957291 -0.8431293 0.2082923
vn 0.5162743 -0.8431293 0.1503127
vn 0.510671 -0.8431293 0.1683691
vn -0.5259262 0.8322362 -0.1754553
vn -0.5240586 0.8285006 -0.1973558
vn -0.535265 0.8228974 -0.1906075
vn -0.5184553 0.8303684 -0.2041874
vn -0.5240586 0.8285006 -0.1973558
vn -0.5184553 0.8303684 -0.2041874
vn -0.520323 0.8247652 -0.2214187
vn -0.5184553 0.8303684 -0.2041874
vn 0.525613 -0.8319228 0.1778633
vn 0.533084 -0.8207164 0.2055386
vn 0.525613 -0.8300551 0.1863852
vn 0.518142 -0.8300551 0.2062459
vn 0.525613 -0.8300551 0.1863852
vn 0.5200098 -0.8244519 0.2233136
vn 0.518142 -0.8300551 0.2062459
vn 0.518142 -0.8300551 0.2062459
vn 0.5685711 -0.8095099 0.1463578
vn 0.5779098 -0.8076422 0.1171939
vn 0.5667033 -0.8039067 0.1805032
vn 0.5536292 -0.8113776 0.187513
vn 0.5667033 -0.8039067 0.1805032
vn 0.5685711 -0.7964357 0.2059541
vn 0.5592324 -0.8169809 0.1407176
vn 0.5536292 -0.8113776 0.187513
vn -0.5950328 0.7855426 -0.1698787
vn -0.593165 0.7930136 -0.1388692
vn -0.6025038 0.789278 -0.1184459
vn -0.5838263 0.7986168 -0.1461442
vn -0.593165 0.7930136 -0.1388692
vn -0.5912973 0.789278 -0.1655527
vn -0.600636 0.7874103 -0.1386416
vn -0.5838263 0.7986168 -0.1461442
vn 0.5928518 -0.7983035 0.106011
vn 0.6021905 -0.7908325 0.1093186
vn 0.5928518 -0.7927002 0.1419616
vn 0.5853808 -0.8001712 0.1305963
vn 0.5928518 -0.7927002 0.1419616
vn 0.6003227 -0.787097 0.1417425
vn 0.5928518 -0.7889647 0.1614355
vn 0.5853808 -0.8001712 0.1305963
vn -0.6043715 0.789278 -0.1085136
vn -0.6043715 0.789278 -0.1085136
vn -0.6062392 0.7911458 -0.08100872
vn -0.6043715 0.789278 -0.1085136
vn -0.6043715 0.789278 -0.1085136
vn -0.6043715 0.789278 -0.1085136
vn -0.6062392 0.7911458 -0.08100872
vn -0.6043715 0.789278 -0.1085136
vn 0.6059259 -0.7889647 0.1019234
vn 0.6059259 -0.7908325 0.08624179
vn 0.6059259 -0.7889647 0.1019234
vn 0.6021905 -0.7927002 0.09483127
vn 0.6059259 -0.7889647 0.1019234
vn 0.6059259 -0.7908325 0.08624179
vn 0.6059259 -0.7889647 0.1019234
vn 0.6021905 -0.7927002 0.09483127
vn -0.6062392 0.7911458 -0.08100872
vn -0.6062392 0.7911458 -0.08100872
vn -0.608107 0.7930136 -0.03654207
vn -0.6062392 0.7911458 -0.08100872
vn -0.6062392 0.7911458 -0.08100872
vn -0.6062392 0.7911458 -0.08100872
vn -0.6099747 0.789278 -0.07050551
vn -0.6062392 0.7911458 -0.08100872
vn 0.6077937 -0.7927002 0.04704445
vn 0.6077937 -0.7927002 0.04704445
vn 0.6077937 -0.7927002 0.04704445
vn 0.6059259 -0.7908325 0.08624179
vn 0.6077937 -0.7927002 0.04704445
vn 0.6096615 -0.7889647 0.07646943
vn 0.6077937 -0.7927002 0.04704445
vn 0.6059259 -0.7908325 0.08624179
g Combined_M_Cmn_ami01_Prefab_Mesh_0
f 3/3/3 2/2/2 1/1/1
f 4/4/4 1/1/1 2/2/2
f 7/7/7 6/6/6 5/5/5
f 8/8/8 5/5/5 6/6/6
f 11/11/11 10/10/10 9/9/9
f 12/12/12 9/9/9 10/10/10
f 15/15/15 14/14/14 13/13/13
f 16/16/16 13/13/13 14/14/14
f 19/19/19 18/18/18 17/17/17
f 17/17/17 20/20/20 19/19/19
f 23/23/23 22/22/22 21/21/21
f 21/21/21 24/24/24 23/23/23
f 27/27/27 26/26/26 25/25/25
f 28/28/28 25/25/25 26/26/26
f 31/31/31 30/30/30 29/29/29
f 32/32/32 29/29/29 30/30/30
f 35/35/35 34/34/34 33/33/33
f 33/33/33 36/36/36 35/35/35
f 39/39/39 38/38/38 37/37/37
f 37/37/37 40/40/40 39/39/39
f 43/43/43 42/42/42 41/41/41
f 44/44/44 41/41/41 42/42/42
f 47/47/47 46/46/46 45/45/45
f 48/48/48 45/45/45 46/46/46
f 51/51/51 50/50/50 49/49/49
f 49/49/49 52/52/52 51/51/51
f 55/55/55 54/54/54 53/53/53
f 53/53/53 56/56/56 55/55/55
f 59/59/59 58/58/58 57/57/57
f 60/60/60 57/57/57 58/58/58
f 63/63/63 62/62/62 61/61/61
f 64/64/64 61/61/61 62/62/62
f 67/67/67 66/66/66 65/65/65
f 65/65/65 68/68/68 67/67/67
f 71/71/71 70/70/70 69/69/69
f 69/69/69 72/72/72 71/71/71
f 75/75/75 74/74/74 73/73/73
f 76/76/76 73/73/73 74/74/74
f 79/79/79 78/78/78 77/77/77
f 80/80/80 77/77/77 78/78/78
f 83/83/83 82/82/82 81/81/81
f 81/81/81 84/84/84 83/83/83
f 87/87/87 86/86/86 85/85/85
f 85/85/85 88/88/88 87/87/87
f 91/91/91 90/90/90 89/89/89
f 92/92/92 91/91/91 89/89/89
f 89/89/89 90/90/90 93/93/93
f 90/90/90 94/94/94 93/93/93
f 97/97/97 96/96/96 95/95/95
f 98/98/98 97/97/97 95/95/95
f 97/97/97 99/99/99 96/96/96
f 99/99/99 100/100/100 96/96/96
f 103/103/103 102/102/102 101/101/101
f 104/104/104 103/103/103 101/101/101
f 104/104/104 101/101/101 105/105/105
f 106/106/106 104/104/104 105/105/105
f 109/109/109 108/108/108 107/107/107
f 110/110/110 109/109/109 107/107/107
f 111/111/111 109/109/109 110/110/110
f 112/112/112 111/111/111 110/110/110
f 115/115/115 114/114/114 113/113/113
f 116/116/116 113/113/113 114/114/114
f 119/119/119 118/118/118 117/117/117
f 120/120/120 117/117/117 118/118/118
f 123/123/123 122/122/122 121/121/121
f 121/121/121 124/124/124 123/123/123
f 127/127/127 126/126/126 125/125/125
f 125/125/125 128/128/128 127/127/127
f 131/131/131 130/130/130 129/129/129
f 129/129/129 132/132/132 131/131/131
f 135/135/135 134/134/134 133/133/133
f 133/133/133 136/136/136 135/135/135
f 139/139/139 138/138/138 137/137/137
f 140/140/140 137/137/137 138/138/138
f 143/143/143 142/142/142 141/141/141
f 144/144/144 141/141/141 142/142/142
f 147/147/147 146/146/146 145/145/145
f 145/145/145 148/148/148 147/147/147
f 151/151/151 150/150/150 149/149/149
f 149/149/149 152/152/152 151/151/151
f 155/155/155 154/154/154 153/153/153
f 156/156/156 153/153/153 154/154/154
f 159/159/159 158/158/158 157/157/157
f 160/160/160 157/157/157 158/158/158
f 163/163/163 162/162/162 161/161/161
f 161/161/161 164/164/164 163/163/163
f 167/167/167 166/166/166 165/165/165
f 165/165/165 168/168/168 167/167/167
f 171/171/171 170/170/170 169/169/169
f 172/172/172 169/169/169 170/170/170
f 175/175/175 174/174/174 173/173/173
f 176/176/176 173/173/173 174/174/174
f 179/179/179 178/178/178 177/177/177
f 177/177/177 180/180/180 179/179/179
f 183/183/183 182/182/182 181/181/181
f 181/181/181 184/184/184 183/183/183
