g Combined_M_Cmn_ami01_Prefab_Mesh
v 242.1637 48.3524 -92.78008
v 233.8145 45.89491 -99.85301
v 241.7103 45.89491 -100.3272
v 234.2679 48.3524 -92.30592
v 233.8145 45.89491 -99.85301
v 226.3718 48.3524 -91.83142
v 225.9184 45.89491 -99.37852
v 234.2679 48.3524 -92.30592
v 241.6239 45.42778 -101.7627
v 233.2748 42.97032 -108.8356
v 241.1709 42.97032 -109.3098
v 233.7282 45.42778 -101.2882
v 233.2748 42.97032 -108.8356
v 225.8324 45.42778 -100.8141
v 225.379 42.97032 -108.3611
v 233.7282 45.42778 -101.2882
v 241.0845 42.50319 -110.7453
v 232.7354 40.04604 -117.8183
v 240.6311 40.04604 -118.2924
v 233.1888 42.50319 -110.2708
v 232.7354 40.04604 -117.8183
v 225.2926 42.50319 -109.7967
v 224.8392 40.04604 -117.3438
v 233.1888 42.50319 -110.2708
v 240.5448 39.57857 -119.7276
v 232.1956 37.12144 -126.8009
v 240.0914 37.12144 -127.2751
v 232.649 39.57857 -119.2535
v 232.1956 37.12144 -126.8009
v 224.7532 39.57857 -118.779
v 224.2998 37.12144 -126.3264
v 232.649 39.57857 -119.2535
v 240.0054 36.65398 -128.7103
v 231.6562 34.19682 -135.7832
v 239.552 34.19682 -136.2577
v 232.1096 36.65398 -128.2361
v 231.6562 34.19682 -135.7832
v 224.2135 36.65398 -127.7616
v 223.7601 34.19682 -135.3091
v 232.1096 36.65398 -128.2361
v 238.9262 30.80473 -146.6755
v 230.577 28.34761 -153.7485
v 238.4728 28.34761 -154.223
v 231.0301 30.80473 -146.2014
v 230.577 28.34761 -153.7485
v 223.1343 30.80473 -145.7269
v 222.6809 28.34761 -153.2743
v 231.0301 30.80473 -146.2014
v 242.1888 47.14342 -92.36247
v 241.7354 44.68626 -99.9099
v 233.8396 44.68626 -99.43575
v 234.293 47.14342 -91.88831
v 233.8396 44.68626 -99.43575
v 225.9435 44.68626 -98.96124
v 226.3969 47.14342 -91.4138
v 234.293 47.14342 -91.88831
v 241.649 44.2188 -101.3451
v 241.196 41.76164 -108.8925
v 233.2999 41.76164 -108.418
v 233.7533 44.2188 -100.8709
v 233.2999 41.76164 -108.418
v 225.4041 41.76164 -107.9439
v 225.8575 44.2188 -100.3964
v 233.7533 44.2188 -100.8709
v 241.1096 41.29417 -110.3277
v 240.6562 38.83705 -117.8752
v 232.7605 38.83705 -117.4007
v 233.2139 41.29417 -109.8536
v 232.7605 38.83705 -117.4007
v 224.8643 38.83705 -116.9265
v 225.3177 41.29417 -109.3791
v 233.2139 41.29417 -109.8536
v 240.5699 38.36992 -119.3104
v 240.1165 35.91243 -126.8575
v 232.2207 35.91243 -126.3833
v 232.6741 38.36992 -118.8362
v 232.2207 35.91243 -126.3833
v 224.3249 35.91243 -125.9088
v 224.7783 38.36992 -118.3617
v 232.6741 38.36992 -118.8362
v 240.0305 35.4453 -128.293
v 239.5771 32.98817 -135.8404
v 231.6813 32.98817 -135.3659
v 232.1347 35.4453 -127.8185
v 231.6813 32.98817 -135.3659
v 223.7852 32.98817 -134.8918
v 224.2386 35.4453 -127.3443
v 232.1347 35.4453 -127.8185
v 238.9513 29.59608 -146.2579
v 238.4979 27.13893 -153.8054
v 230.6021 27.13893 -153.3312
v 231.0552 29.59608 -145.7838
v 230.6021 27.13893 -153.3312
v 222.706 27.13893 -152.8567
v 223.1594 29.59608 -145.3096
v 231.0552 29.59608 -145.7838
v 239.4907 32.52071 -137.2756
v 239.0373 30.06355 -144.8231
v 231.1415 30.06355 -144.3486
v 231.595 32.52071 -136.8011
v 231.1415 30.06355 -144.3486
v 223.2454 30.06355 -143.8744
v 223.6988 32.52071 -136.327
v 231.595 32.52071 -136.8011
v 239.4656 33.72935 -137.6929
v 231.1164 31.2722 -144.7658
v 239.0122 31.2722 -145.2403
v 231.5699 33.72935 -137.2188
v 231.1164 31.2722 -144.7658
v 223.6737 33.72935 -136.7442
v 223.2207 31.2722 -144.2917
v 231.5699 33.72935 -137.2188
v -81.19536 38.4171 -85.98421
v -75.57436 34.75697 -73.97658
v -84.57237 34.75697 -77.6019
v -72.19701 38.4171 -82.3589
v -75.57436 34.75697 -73.97658
v -63.19865 38.4171 -78.73358
v -66.576 34.75697 -70.35127
v -72.19701 38.4171 -82.3589
v -85.21452 34.06096 -76.00775
v -79.59352 30.4012 -63.99979
v -88.59187 30.4012 -67.62509
v -76.21651 34.06096 -72.38243
v -79.59352 30.4012 -63.99979
v -67.21812 34.06096 -68.75713
v -70.59517 30.4012 -60.37447
v -76.21651 34.06096 -72.38243
v -89.23402 29.70518 -66.03094
v -83.61302 26.04539 -54.02332
v -92.61137 26.04539 -57.64828
v -80.23601 29.70518 -62.40564
v -83.61302 26.04539 -54.02332
v -71.23763 29.70518 -58.78032
v -74.61467 26.04539 -50.39801
v -80.23601 29.70518 -62.40564
v -93.25352 25.34938 -56.05414
v -87.63252 21.68959 -44.04651
v -96.63087 21.68959 -47.67183
v -84.25514 25.34938 -52.42917
v -87.63252 21.68959 -44.04651
v -75.25679 25.34938 -48.80386
v -78.63414 21.68959 -40.4212
v -84.25514 25.34938 -52.42917
v -97.27303 20.99358 -46.07768
v -91.65202 17.33348 -34.07005
v -100.65 17.33348 -37.69502
v -88.27464 20.99358 -42.45238
v -91.65202 17.33348 -34.07005
v -79.27629 20.99358 -38.82706
v -82.65364 17.33348 -30.44475
v -88.27464 20.99358 -42.45238
v -105.3117 12.28166 -26.12442
v -99.69066 8.621887 -14.11646
v -108.689 8.621887 -17.74176
v -96.31364 12.28166 -22.4991
v -99.69066 8.621887 -14.11646
v -87.31529 12.28166 -18.87379
v -90.69231 8.621887 -10.49113
v -96.31364 12.28166 -22.4991
v -80.9648 36.97453 -86.55574
v -84.34215 33.31441 -78.1731
v -75.34413 33.31441 -74.54778
v -71.96678 36.97453 -82.93044
v -75.34413 33.31441 -74.54778
v -66.34578 33.31441 -70.92247
v -62.96843 36.97453 -79.30513
v -71.96678 36.97453 -82.93044
v -84.9843 32.61839 -76.57895
v -88.36165 28.95863 -68.19662
v -79.3633 28.95863 -64.57132
v -75.98628 32.61839 -72.95363
v -79.3633 28.95863 -64.57132
v -70.36494 28.95863 -60.946
v -66.98793 32.61839 -69.32832
v -75.98628 32.61839 -72.95363
v -89.0038 28.26262 -66.60248
v -92.38115 24.60283 -58.21983
v -83.3828 24.60283 -54.59451
v -80.00578 28.26262 -62.97717
v -83.3828 24.60283 -54.59451
v -74.38445 24.60283 -50.96921
v -71.0074 28.26262 -59.35185
v -80.00578 28.26262 -62.97717
v -93.0233 23.90681 -56.62569
v -96.40031 20.24702 -48.24336
v -87.4023 20.24702 -44.61806
v -84.02495 23.90681 -53.00037
v -87.4023 20.24702 -44.61806
v -78.40395 20.24702 -40.99274
v -75.0269 23.90681 -49.37506
v -84.02495 23.90681 -53.00037
v -97.0428 19.55101 -46.64922
v -100.4198 15.89091 -38.26657
v -91.4218 15.89091 -34.64125
v -88.04445 19.55101 -43.02391
v -91.4218 15.89091 -34.64125
v -82.42342 15.89091 -31.01595
v -79.04607 19.55101 -39.39859
v -88.04445 19.55101 -43.02391
v -105.0815 10.8391 -26.69595
v -108.4588 7.179321 -18.31329
v -99.46043 7.179321 -14.68799
v -96.08342 10.8391 -23.07065
v -99.46043 7.179321 -14.68799
v -90.46208 7.179321 -11.06268
v -87.08507 10.8391 -19.44533
v -96.08342 10.8391 -23.07065
v -101.0623 15.1949 -36.67242
v -104.4393 11.53511 -28.28976
v -95.4413 11.53511 -24.66446
v -92.06392 15.1949 -33.0471
v -95.4413 11.53511 -24.66446
v -86.44292 11.53511 -21.03914
v -83.06557 15.1949 -29.4218
v -92.06392 15.1949 -33.0471
v -101.2925 16.63747 -36.10088
v -95.67149 12.97768 -24.09325
v -104.6695 12.97768 -27.71857
v -92.29414 16.63747 -32.47591
v -95.67149 12.97768 -24.09325
v -83.29579 16.63747 -28.8506
v -86.67314 12.97768 -20.46794
v -92.29414 16.63747 -32.47591
vt -1.5 2.5
vt 2.5 -1.5
vt 2.5 2.5
vt -1.5 -1.5
vt -1.5 2.5
vt 2.5 -1.5
vt 2.5 2.5
vt -1.5 -1.5
vt -1.5 2.5
vt 2.5 -1.5
vt 2.5 2.5
vt -1.5 -1.5
vt -1.5 2.5
vt 2.5 -1.5
vt 2.5 2.5
vt -1.5 -1.5
vt -1.5 2.5
vt 2.5 -1.5
vt 2.5 2.5
vt -1.5 -1.5
vt -1.5 2.5
vt 2.5 -1.5
vt 2.5 2.5
vt -1.5 -1.5
vt -1.5 2.5
vt 2.5 -1.5
vt 2.5 2.5
vt -1.5 -1.5
vt -1.5 2.5
vt 2.5 -1.5
vt 2.5 2.5
vt -1.5 -1.5
vt -1.5 2.5
vt 2.5 -1.5
vt 2.5 2.5
vt -1.5 -1.5
vt -1.5 2.5
vt 2.5 -1.5
vt 2.5 2.5
vt -1.5 -1.5
vt -1.5 2.5
vt 2.5 -1.5
vt 2.5 2.5
vt -1.5 -1.5
vt -1.5 2.5
vt 2.5 -1.5
vt 2.5 2.5
vt -1.5 -1.5
vt -1.5 2.5
vt 2.5 2.5
vt 2.5 -1.5
vt -1.5 -1.5
vt -1.5 2.5
vt 2.5 2.5
vt 2.5 -1.5
vt -1.5 -1.5
vt -1.5 2.5
vt 2.5 2.5
vt 2.5 -1.5
vt -1.5 -1.5
vt -1.5 2.5
vt 2.5 2.5
vt 2.5 -1.5
vt -1.5 -1.5
vt -1.5 2.5
vt 2.5 2.5
vt 2.5 -1.5
vt -1.5 -1.5
vt -1.5 2.5
vt 2.5 2.5
vt 2.5 -1.5
vt -1.5 -1.5
vt -1.5 2.5
vt 2.5 2.5
vt 2.5 -1.5
vt -1.5 -1.5
vt -1.5 2.5
vt 2.5 2.5
vt 2.5 -1.5
vt -1.5 -1.5
vt -1.5 2.5
vt 2.5 2.5
vt 2.5 -1.5
vt -1.5 -1.5
vt -1.5 2.5
vt 2.5 2.5
vt 2.5 -1.5
vt -1.5 -1.5
vt -1.5 2.5
vt 2.5 2.5
vt 2.5 -1.5
vt -1.5 -1.5
vt -1.5 2.5
vt 2.5 2.5
vt 2.5 -1.5
vt -1.5 -1.5
vt -1.5 2.5
vt 2.5 2.5
vt 2.5 -1.5
vt -1.5 -1.5
vt -1.5 2.5
vt 2.5 2.5
vt 2.5 -1.5
vt -1.5 -1.5
vt -1.5 2.5
vt 2.5 -1.5
vt 2.5 2.5
vt -1.5 -1.5
vt -1.5 2.5
vt 2.5 -1.5
vt 2.5 2.5
vt -1.5 -1.5
vt -1.5 2.5
vt 2.5 -1.5
vt 2.5 2.5
vt -1.5 -1.5
vt -1.5 2.5
vt 2.5 -1.5
vt 2.5 2.5
vt -1.5 -1.5
vt -1.5 2.5
vt 2.5 -1.5
vt 2.5 2.5
vt -1.5 -1.5
vt -1.5 2.5
vt 2.5 -1.5
vt 2.5 2.5
vt -1.5 -1.5
vt -1.5 2.5
vt 2.5 -1.5
vt 2.5 2.5
vt -1.5 -1.5
vt -1.5 2.5
vt 2.5 -1.5
vt 2.5 2.5
vt -1.5 -1.5
vt -1.5 2.5
vt 2.5 -1.5
vt 2.5 2.5
vt -1.5 -1.5
vt -1.5 2.5
vt 2.5 -1.5
vt 2.5 2.5
vt -1.5 -1.5
vt -1.5 2.5
vt 2.5 -1.5
vt 2.5 2.5
vt -1.5 -1.5
vt -1.5 2.5
vt 2.5 -1.5
vt 2.5 2.5
vt -1.5 -1.5
vt -1.5 2.5
vt 2.5 -1.5
vt 2.5 2.5
vt -1.5 -1.5
vt -1.5 2.5
vt 2.5 -1.5
vt 2.5 2.5
vt -1.5 -1.5
vt -1.5 2.5
vt 2.5 2.5
vt 2.5 -1.5
vt -1.5 -1.5
vt -1.5 2.5
vt 2.5 2.5
vt 2.5 -1.5
vt -1.5 -1.5
vt -1.5 2.5
vt 2.5 2.5
vt 2.5 -1.5
vt -1.5 -1.5
vt -1.5 2.5
vt 2.5 2.5
vt 2.5 -1.5
vt -1.5 -1.5
vt -1.5 2.5
vt 2.5 2.5
vt 2.5 -1.5
vt -1.5 -1.5
vt -1.5 2.5
vt 2.5 2.5
vt 2.5 -1.5
vt -1.5 -1.5
vt -1.5 2.5
vt 2.5 2.5
vt 2.5 -1.5
vt -1.5 -1.5
vt -1.5 2.5
vt 2.5 2.5
vt 2.5 -1.5
vt -1.5 -1.5
vt -1.5 2.5
vt 2.5 2.5
vt 2.5 -1.5
vt -1.5 -1.5
vt -1.5 2.5
vt 2.5 2.5
vt 2.5 -1.5
vt -1.5 -1.5
vt -1.5 2.5
vt 2.5 2.5
vt 2.5 -1.5
vt -1.5 -1.5
vt -1.5 2.5
vt 2.5 2.5
vt 2.5 -1.5
vt -1.5 -1.5
vt -1.5 2.5
vt 2.5 2.5
vt 2.5 -1.5
vt -1.5 -1.5
vt -1.5 2.5
vt 2.5 2.5
vt 2.5 -1.5
vt -1.5 -1.5
vt -1.5 2.5
vt 2.5 -1.5
vt 2.5 2.5
vt -1.5 -1.5
vt -1.5 2.5
vt 2.5 -1.5
vt 2.5 2.5
vt -1.5 -1.5
vn -0.01952291 0.951036 -0.3084629
vn -0.01952291 0.951036 -0.3084629
vn -0.01952291 0.951036 -0.3084629
vn -0.01952291 0.951036 -0.3084629
vn -0.01952291 0.951036 -0.3084629
vn -0.01952291 0.951036 -0.3084629
vn -0.01952291 0.951036 -0.3084629
vn -0.01952291 0.951036 -0.3084629
vn -0.01952291 0.951036 -0.3084629
vn -0.01952291 0.951036 -0.3084629
vn -0.01952291 0.951036 -0.3084629
vn -0.01952291 0.951036 -0.3084629
vn -0.01952291 0.951036 -0.3084629
vn -0.01952291 0.951036 -0.3084629
vn -0.01952291 0.951036 -0.3084629
vn -0.01952291 0.951036 -0.3084629
vn -0.01952291 0.951036 -0.3084629
vn -0.01952291 0.951036 -0.3084629
vn -0.01952291 0.951036 -0.3084629
vn -0.01952291 0.951036 -0.3084629
vn -0.01952291 0.951036 -0.3084629
vn -0.01952291 0.951036 -0.3084629
vn -0.01952291 0.951036 -0.3084629
vn -0.01952291 0.951036 -0.3084629
vn -0.01952291 0.951036 -0.3084629
vn -0.01952291 0.951036 -0.3084629
vn -0.01952291 0.951036 -0.3084629
vn -0.01952291 0.951036 -0.3084629
vn -0.01952291 0.951036 -0.3084629
vn -0.01952291 0.951036 -0.3084629
vn -0.01952291 0.951036 -0.3084629
vn -0.01952291 0.951036 -0.3084629
vn -0.01952291 0.951036 -0.3084629
vn -0.01952291 0.951036 -0.3084629
vn -0.01952291 0.951036 -0.3084629
vn -0.01952291 0.951036 -0.3084629
vn -0.01952291 0.951036 -0.3084629
vn -0.01952291 0.951036 -0.3084629
vn -0.01952291 0.951036 -0.3084629
vn -0.01952291 0.951036 -0.3084629
vn -0.01952291 0.951036 -0.3084629
vn -0.01952291 0.951036 -0.3084629
vn -0.01952291 0.951036 -0.3084629
vn -0.01952291 0.951036 -0.3084629
vn -0.01952291 0.951036 -0.3084629
vn -0.01952291 0.951036 -0.3084629
vn -0.01952291 0.951036 -0.3084629
vn -0.01952291 0.951036 -0.3084629
vn 0.0176633 -0.9510357 0.3085759
vn 0.0176633 -0.9510357 0.3085759
vn 0.0176633 -0.9510357 0.3085759
vn 0.0176633 -0.9510357 0.3085759
vn 0.0176633 -0.9510357 0.3085759
vn 0.0176633 -0.9510357 0.3085759
vn 0.0176633 -0.9510357 0.3085759
vn 0.0176633 -0.9510357 0.3085759
vn 0.0176633 -0.9510357 0.3085759
vn 0.0176633 -0.9510357 0.3085759
vn 0.0176633 -0.9510357 0.3085759
vn 0.0176633 -0.9510357 0.3085759
vn 0.0176633 -0.9510357 0.3085759
vn 0.0176633 -0.9510357 0.3085759
vn 0.0176633 -0.9510357 0.3085759
vn 0.0176633 -0.9510357 0.3085759
vn 0.0176633 -0.9510357 0.3085759
vn 0.0176633 -0.9510357 0.3085759
vn 0.0176633 -0.9510357 0.3085759
vn 0.0176633 -0.9510357 0.3085759
vn 0.0176633 -0.9510357 0.3085759
vn 0.0176633 -0.9510357 0.3085759
vn 0.0176633 -0.9510357 0.3085759
vn 0.0176633 -0.9510357 0.3085759
vn 0.0176633 -0.9510357 0.3085759
vn 0.0176633 -0.9510357 0.3085759
vn 0.0176633 -0.9510357 0.3085759
vn 0.0176633 -0.9510357 0.3085759
vn 0.0176633 -0.9510357 0.3085759
vn 0.0176633 -0.9510357 0.3085759
vn 0.0176633 -0.9510357 0.3085759
vn 0.0176633 -0.9510357 0.3085759
vn 0.0176633 -0.9510357 0.3085759
vn 0.0176633 -0.9510357 0.3085759
vn 0.0176633 -0.9510357 0.3085759
vn 0.0176633 -0.9510357 0.3085759
vn 0.0176633 -0.9510357 0.3085759
vn 0.0176633 -0.9510357 0.3085759
vn 0.0176633 -0.9510357 0.3085759
vn 0.0176633 -0.9510357 0.3085759
vn 0.0176633 -0.9510357 0.3085759
vn 0.0176633 -0.9510357 0.3085759
vn 0.0176633 -0.9510357 0.3085759
vn 0.0176633 -0.9510357 0.3085759
vn 0.0176633 -0.9510357 0.3085759
vn 0.0176633 -0.9510357 0.3085759
vn 0.0176633 -0.9510357 0.3085759
vn 0.0176633 -0.9510357 0.3085759
vn 0.0176633 -0.9510357 0.3085759
vn 0.0176633 -0.9510357 0.3085759
vn 0.0176633 -0.9510357 0.3085759
vn 0.0176633 -0.9510357 0.3085759
vn 0.0176633 -0.9510357 0.3085759
vn 0.0176633 -0.9510357 0.3085759
vn 0.0176633 -0.9510357 0.3085759
vn 0.0176633 -0.9510357 0.3085759
vn -0.01952291 0.951036 -0.3084629
vn -0.01952291 0.951036 -0.3084629
vn -0.01952291 0.951036 -0.3084629
vn -0.01952291 0.951036 -0.3084629
vn -0.01952291 0.951036 -0.3084629
vn -0.01952291 0.951036 -0.3084629
vn -0.01952291 0.951036 -0.3084629
vn -0.01952291 0.951036 -0.3084629
vn -0.1403779 0.926865 0.3481599
vn -0.1403779 0.926865 0.3481599
vn -0.1403779 0.926865 0.3481599
vn -0.1403779 0.926865 0.3481599
vn -0.1403779 0.926865 0.3481599
vn -0.1403779 0.926865 0.3481599
vn -0.1403779 0.926865 0.3481599
vn -0.1403779 0.926865 0.3481599
vn -0.1403779 0.926865 0.3481599
vn -0.1403779 0.926865 0.3481599
vn -0.1403779 0.926865 0.3481599
vn -0.1403779 0.926865 0.3481599
vn -0.1403779 0.926865 0.3481599
vn -0.1403779 0.926865 0.3481599
vn -0.1403779 0.926865 0.3481599
vn -0.1403779 0.926865 0.3481599
vn -0.1403779 0.926865 0.3481599
vn -0.1403779 0.926865 0.3481599
vn -0.1403779 0.926865 0.3481599
vn -0.1403779 0.926865 0.3481599
vn -0.1403779 0.926865 0.3481599
vn -0.1403779 0.926865 0.3481599
vn -0.1403779 0.926865 0.3481599
vn -0.1403779 0.926865 0.3481599
vn -0.1403779 0.926865 0.3481599
vn -0.1403779 0.926865 0.3481599
vn -0.1403779 0.926865 0.3481599
vn -0.1403779 0.926865 0.3481599
vn -0.1403779 0.926865 0.3481599
vn -0.1403779 0.926865 0.3481599
vn -0.1403779 0.926865 0.3481599
vn -0.1403779 0.926865 0.3481599
vn -0.1403779 0.926865 0.3481599
vn -0.1403779 0.926865 0.3481599
vn -0.1403779 0.926865 0.3481599
vn -0.1403779 0.926865 0.3481599
vn -0.1403779 0.926865 0.3481599
vn -0.1403779 0.926865 0.3481599
vn -0.1403779 0.926865 0.3481599
vn -0.1403779 0.926865 0.3481599
vn -0.1403779 0.926865 0.3481599
vn -0.1403779 0.926865 0.3481599
vn -0.1403779 0.926865 0.3481599
vn -0.1403779 0.926865 0.3481599
vn -0.1403779 0.926865 0.3481599
vn -0.1403779 0.926865 0.3481599
vn -0.1403779 0.926865 0.3481599
vn -0.1403779 0.926865 0.3481599
vn 0.1403776 -0.9268647 -0.3481607
vn 0.1403776 -0.9268647 -0.3481607
vn 0.1403776 -0.9268647 -0.3481607
vn 0.1403776 -0.9268647 -0.3481607
vn 0.1403776 -0.9268647 -0.3481607
vn 0.1403776 -0.9268647 -0.3481607
vn 0.1403776 -0.9268647 -0.3481607
vn 0.1403776 -0.9268647 -0.3481607
vn 0.1403776 -0.9268647 -0.3481607
vn 0.1403776 -0.9268647 -0.3481607
vn 0.1403776 -0.9268647 -0.3481607
vn 0.1403776 -0.9268647 -0.3481607
vn 0.1403776 -0.9268647 -0.3481607
vn 0.1403776 -0.9268647 -0.3481607
vn 0.1403776 -0.9268647 -0.3481607
vn 0.1403776 -0.9268647 -0.3481607
vn 0.1403776 -0.9268647 -0.3481607
vn 0.1403776 -0.9268647 -0.3481607
vn 0.1403776 -0.9268647 -0.3481607
vn 0.1403776 -0.9268647 -0.3481607
vn 0.1403776 -0.9268647 -0.3481607
vn 0.1403776 -0.9268647 -0.3481607
vn 0.1403776 -0.9268647 -0.3481607
vn 0.1403776 -0.9268647 -0.3481607
vn 0.1403776 -0.9268647 -0.3481607
vn 0.1403776 -0.9268647 -0.3481607
vn 0.1403776 -0.9268647 -0.3481607
vn 0.1403776 -0.9268647 -0.3481607
vn 0.1403776 -0.9268647 -0.3481607
vn 0.1403776 -0.9268647 -0.3481607
vn 0.1403776 -0.9268647 -0.3481607
vn 0.1403776 -0.9268647 -0.3481607
vn 0.1403776 -0.9268647 -0.3481607
vn 0.1403776 -0.9268647 -0.3481607
vn 0.1403776 -0.9268647 -0.3481607
vn 0.1403776 -0.9268647 -0.3481607
vn 0.1403776 -0.9268647 -0.3481607
vn 0.1403776 -0.9268647 -0.3481607
vn 0.1403776 -0.9268647 -0.3481607
vn 0.1403776 -0.9268647 -0.3481607
vn 0.1403776 -0.9268647 -0.3481607
vn 0.1403776 -0.9268647 -0.3481607
vn 0.1403776 -0.9268647 -0.3481607
vn 0.1403776 -0.9268647 -0.3481607
vn 0.1403776 -0.9268647 -0.3481607
vn 0.1403776 -0.9268647 -0.3481607
vn 0.1403776 -0.9268647 -0.3481607
vn 0.1403776 -0.9268647 -0.3481607
vn 0.1403776 -0.9268647 -0.3481607
vn 0.1403776 -0.9268647 -0.3481607
vn 0.1403776 -0.9268647 -0.3481607
vn 0.1403776 -0.9268647 -0.3481607
vn 0.1403776 -0.9268647 -0.3481607
vn 0.1403776 -0.9268647 -0.3481607
vn 0.1403776 -0.9268647 -0.3481607
vn 0.1403776 -0.9268647 -0.3481607
vn -0.1403779 0.926865 0.3481599
vn -0.1403779 0.926865 0.3481599
vn -0.1403779 0.926865 0.3481599
vn -0.1403779 0.926865 0.3481599
vn -0.1403779 0.926865 0.3481599
vn -0.1403779 0.926865 0.3481599
vn -0.1403779 0.926865 0.3481599
vn -0.1403779 0.926865 0.3481599
g Combined_M_Cmn_ami01_Prefab_Mesh_0
f 3/3/3 2/2/2 1/1/1
f 4/4/4 1/1/1 2/2/2
f 7/7/7 6/6/6 5/5/5
f 8/8/8 5/5/5 6/6/6
f 11/11/11 10/10/10 9/9/9
f 12/12/12 9/9/9 10/10/10
f 15/15/15 14/14/14 13/13/13
f 16/16/16 13/13/13 14/14/14
f 19/19/19 18/18/18 17/17/17
f 20/20/20 17/17/17 18/18/18
f 23/23/23 22/22/22 21/21/21
f 24/24/24 21/21/21 22/22/22
f 27/27/27 26/26/26 25/25/25
f 28/28/28 25/25/25 26/26/26
f 31/31/31 30/30/30 29/29/29
f 32/32/32 29/29/29 30/30/30
f 35/35/35 34/34/34 33/33/33
f 36/36/36 33/33/33 34/34/34
f 39/39/39 38/38/38 37/37/37
f 40/40/40 37/37/37 38/38/38
f 43/43/43 42/42/42 41/41/41
f 44/44/44 41/41/41 42/42/42
f 47/47/47 46/46/46 45/45/45
f 48/48/48 45/45/45 46/46/46
f 51/51/51 50/50/50 49/49/49
f 49/49/49 52/52/52 51/51/51
f 55/55/55 54/54/54 53/53/53
f 53/53/53 56/56/56 55/55/55
f 59/59/59 58/58/58 57/57/57
f 57/57/57 60/60/60 59/59/59
f 63/63/63 62/62/62 61/61/61
f 61/61/61 64/64/64 63/63/63
f 67/67/67 66/66/66 65/65/65
f 65/65/65 68/68/68 67/67/67
f 71/71/71 70/70/70 69/69/69
f 69/69/69 72/72/72 71/71/71
f 75/75/75 74/74/74 73/73/73
f 73/73/73 76/76/76 75/75/75
f 79/79/79 78/78/78 77/77/77
f 77/77/77 80/80/80 79/79/79
f 83/83/83 82/82/82 81/81/81
f 81/81/81 84/84/84 83/83/83
f 87/87/87 86/86/86 85/85/85
f 85/85/85 88/88/88 87/87/87
f 91/91/91 90/90/90 89/89/89
f 89/89/89 92/92/92 91/91/91
f 95/95/95 94/94/94 93/93/93
f 93/93/93 96/96/96 95/95/95
f 99/99/99 98/98/98 97/97/97
f 97/97/97 100/100/100 99/99/99
f 103/103/103 102/102/102 101/101/101
f 101/101/101 104/104/104 103/103/103
f 107/107/107 106/106/106 105/105/105
f 108/108/108 105/105/105 106/106/106
f 111/111/111 110/110/110 109/109/109
f 112/112/112 109/109/109 110/110/110
f 115/115/115 114/114/114 113/113/113
f 116/116/116 113/113/113 114/114/114
f 119/119/119 118/118/118 117/117/117
f 120/120/120 117/117/117 118/118/118
f 123/123/123 122/122/122 121/121/121
f 124/124/124 121/121/121 122/122/122
f 127/127/127 126/126/126 125/125/125
f 128/128/128 125/125/125 126/126/126
f 131/131/131 130/130/130 129/129/129
f 132/132/132 129/129/129 130/130/130
f 135/135/135 134/134/134 133/133/133
f 136/136/136 133/133/133 134/134/134
f 139/139/139 138/138/138 137/137/137
f 140/140/140 137/137/137 138/138/138
f 143/143/143 142/142/142 141/141/141
f 144/144/144 141/141/141 142/142/142
f 147/147/147 146/146/146 145/145/145
f 148/148/148 145/145/145 146/146/146
f 151/151/151 150/150/150 149/149/149
f 152/152/152 149/149/149 150/150/150
f 155/155/155 154/154/154 153/153/153
f 156/156/156 153/153/153 154/154/154
f 159/159/159 158/158/158 157/157/157
f 160/160/160 157/157/157 158/158/158
f 163/163/163 162/162/162 161/161/161
f 161/161/161 164/164/164 163/163/163
f 167/167/167 166/166/166 165/165/165
f 165/165/165 168/168/168 167/167/167
f 171/171/171 170/170/170 169/169/169
f 169/169/169 172/172/172 171/171/171
f 175/175/175 174/174/174 173/173/173
f 173/173/173 176/176/176 175/175/175
f 179/179/179 178/178/178 177/177/177
f 177/177/177 180/180/180 179/179/179
f 183/183/183 182/182/182 181/181/181
f 181/181/181 184/184/184 183/183/183
f 187/187/187 186/186/186 185/185/185
f 185/185/185 188/188/188 187/187/187
f 191/191/191 190/190/190 189/189/189
f 189/189/189 192/192/192 191/191/191
f 195/195/195 194/194/194 193/193/193
f 193/193/193 196/196/196 195/195/195
f 199/199/199 198/198/198 197/197/197
f 197/197/197 200/200/200 199/199/199
f 203/203/203 202/202/202 201/201/201
f 201/201/201 204/204/204 203/203/203
f 207/207/207 206/206/206 205/205/205
f 205/205/205 208/208/208 207/207/207
f 211/211/211 210/210/210 209/209/209
f 209/209/209 212/212/212 211/211/211
f 215/215/215 214/214/214 213/213/213
f 213/213/213 216/216/216 215/215/215
f 219/219/219 218/218/218 217/217/217
f 220/220/220 217/217/217 218/218/218
f 223/223/223 222/222/222 221/221/221
f 224/224/224 221/221/221 222/222/222
