g Combined_M_Cmn_ami01_Prefab_Mesh
v 84.48694 32.74724 -19.01254
v 88.33429 33.55971 -12.49567
v 80.97684 30.30554 -9.047318
v 78.48831 30.09433 -16.20122
v 75.99934 29.88269 -23.35471
v 80.63916 31.93518 -25.5294
v 84.48694 32.74724 -19.01254
v 78.48831 30.09433 -16.20122
v 90.51453 35.66884 -24.2285
v 95.72751 37.14262 -18.89288
v 89.53087 34.13544 -13.49211
v 85.46251 33.21692 -19.82501
v 81.39415 32.29842 -26.15793
v 85.30197 34.19505 -29.56412
v 90.51453 35.66884 -24.2285
v 85.46251 33.21692 -19.82501
v 95.06279 38.1693 -30.93529
v 101.3054 40.20987 -27.11902
v 96.69244 37.65363 -20.13374
v 91.30146 36.0853 -25.24026
v 85.91048 34.5174 -30.34679
v 88.81973 36.12917 -34.75198
v 95.06279 38.1693 -30.93529
v 91.30146 36.0853 -25.24026
v 97.84515 40.09106 -38.70366
v 104.718 42.56639 -36.64648
v 102.0025 40.63612 -28.55278
v 95.63084 38.5172 -32.1046
v 89.25919 36.39828 -35.65643
v 90.97186 37.6153 -40.76083
v 97.84515 40.09106 -38.70366
v 95.63084 38.5172 -32.1046
v 98.68787 41.31233 -47.03711
v 105.7519 44.06445 -46.8672
v 105.1191 42.89172 -38.21651
v 98.17176 40.35593 -39.98369
v 91.22481 37.82054 -41.75089
v 91.62424 38.56021 -47.20659
v 98.68787 41.31233 -47.03711
v 98.17176 40.35593 -39.98369
v 97.54196 41.75732 -55.40419
v 104.3463 44.61037 -57.12964
v 105.8388 44.27438 -48.51175
v 98.75897 41.48352 -48.37761
v 91.67874 38.69264 -48.2439
v 90.73766 38.90428 -53.67874
v 97.54196 41.75732 -55.40419
v 98.75897 41.48352 -48.37761
v 90.95058 34.55701 -24.34731
v 85.89856 32.10509 -19.94382
v 89.96691 33.02359 -13.61092
v 96.16313 36.03122 -19.01169
v 81.8302 31.18658 -26.27673
v 85.89856 32.10509 -19.94382
v 90.95058 34.55701 -24.34731
v 85.73802 33.08321 -29.68292
v 84.92299 31.63582 -19.13135
v 78.92435 28.9825 -16.32002
v 81.41289 29.19371 -9.166122
v 88.77034 32.44788 -12.61447
v 76.43539 28.77129 -23.47351
v 78.92435 28.9825 -16.32002
v 84.92299 31.63582 -19.13135
v 81.07521 30.82335 -25.64864
v 95.49884 37.05789 -31.05452
v 91.7375 34.97389 -25.35907
v 97.12806 36.54221 -20.25255
v 101.7415 39.09802 -27.23782
v 86.34653 33.40556 -30.46559
v 91.7375 34.97389 -25.35907
v 95.49884 37.05789 -31.05452
v 89.25578 35.01732 -34.87079
v 98.28077 38.97922 -38.82246
v 96.06689 37.40536 -32.22342
v 102.4381 39.5247 -28.67159
v 105.1541 41.45499 -36.76529
v 89.69524 35.28644 -35.77524
v 96.06689 37.40536 -32.22342
v 98.28077 38.97922 -38.82246
v 91.40791 36.50389 -40.87964
v 99.12391 40.20093 -47.15591
v 98.6078 39.24451 -40.10249
v 105.5548 41.77989 -38.33531
v 106.188 42.95305 -46.98601
v 91.66086 36.70871 -41.86969
v 98.6078 39.24451 -40.10249
v 99.12391 40.20093 -47.15591
v 92.06028 37.44879 -47.32539
v 97.97758 40.64549 -55.52299
v 99.1946 40.37167 -48.49684
v 106.2748 43.16298 -48.63055
v 104.7819 43.49854 -57.24844
v 92.11478 37.58081 -48.3627
v 99.1946 40.37167 -48.49684
v 97.97758 40.64549 -55.52299
v 91.17329 37.79286 -53.79755
v 63.56305 25.60994 236.3043
v 64.10768 30.67815 219.8325
v 71.91779 30.67815 229.6746
v 55.75294 25.60994 226.4626
v 64.10768 30.67815 219.8325
v 47.94327 25.60994 216.6205
v 56.298 30.67815 209.9908
v 55.75294 25.60994 226.4626
v 73.50655 31.64178 228.4138
v 74.05161 36.70999 211.9419
v 81.86128 36.70999 221.7836
v 65.69644 31.64178 218.5716
v 74.05161 36.70999 211.9419
v 57.88676 31.64178 208.7299
v 66.2415 36.70999 202.0997
v 65.69644 31.64178 218.5716
v 74.17255 29.85373 227.8853
v 82.52728 34.92194 221.2556
v 74.71718 34.92194 211.4134
v 66.36244 29.85373 218.0436
v 74.71718 34.92194 211.4134
v 66.90707 34.92194 201.5717
v 58.55234 29.85373 208.2014
v 66.36244 29.85373 218.0436
v 64.22862 23.82146 235.7763
v 72.58336 28.88966 229.1462
v 64.77368 28.88966 219.3044
v 56.41893 23.82146 225.9341
v 64.77368 28.88966 219.3044
v 56.96358 28.88966 209.4623
v 48.60883 23.82146 216.0924
v 56.41893 23.82146 225.9341
v 191.2436 25.58908 136.1531
v 191.7887 30.65727 119.6812
v 199.5984 30.65727 129.5229
v 183.4339 25.58908 126.3109
v 191.7887 30.65727 119.6812
v 175.6238 25.58908 116.4692
v 183.9786 30.65727 109.8395
v 183.4339 25.58908 126.3109
v 201.1875 31.62093 128.2621
v 201.7322 36.68912 111.7902
v 209.5423 36.68912 121.6324
v 193.3774 31.62093 118.4203
v 201.7322 36.68912 111.7902
v 185.5673 31.62093 108.5786
v 193.9221 36.68912 101.9485
v 193.3774 31.62093 118.4203
v 201.8531 29.83244 127.734
v 210.2079 34.90065 121.1039
v 202.3978 34.90065 111.2622
v 194.043 29.83244 117.8919
v 202.3978 34.90065 111.2622
v 194.5876 34.90065 101.4204
v 186.2329 29.83244 108.0502
v 194.043 29.83244 117.8919
v 191.9096 23.8006 135.6246
v 200.2644 28.8688 128.9949
v 192.4543 28.8688 119.1528
v 184.0995 23.8006 125.7829
v 192.4543 28.8688 119.1528
v 184.6441 28.8688 109.311
v 176.2894 23.8006 115.9407
v 184.0995 23.8006 125.7829
v 140.0361 22.92084 4.462921
v 139.4626 27.91112 20.95735
v 131.6525 27.91112 11.11562
v 147.8458 22.92084 14.30507
v 139.4626 27.91112 20.95735
v 155.6559 22.92084 24.14679
v 147.2727 27.91112 30.7995
v 147.8458 22.92084 14.30507
v 130.0582 28.86028 12.38075
v 129.485 33.85098 28.87518
v 121.6749 33.85098 19.03346
v 137.8683 28.86028 22.22247
v 129.485 33.85098 28.87518
v 145.6784 28.86028 32.06464
v 137.2951 33.85098 38.71733
v 137.8683 28.86028 22.22247
v 120.0806 34.80016 20.29858
v 119.5074 39.79042 36.79303
v 111.6973 39.79042 26.95129
v 127.8907 34.80016 30.14032
v 119.5074 39.79042 36.79303
v 135.7008 34.80016 39.98247
v 127.3175 39.79042 46.63516
v 127.8907 34.80016 30.14032
v 129.4028 27.06584 12.90111
v 121.0195 32.05655 19.55382
v 128.8297 32.05655 29.39555
v 137.2129 27.06584 22.74284
v 128.8297 32.05655 29.39555
v 136.6393 32.05655 39.23727
v 145.023 27.06584 32.58456
v 137.2129 27.06584 22.74284
v 139.3804 21.1264 4.983276
v 130.9971 26.11667 11.63599
v 138.8072 26.11667 21.47771
v 147.1905 21.1264 14.825
v 138.8072 26.11667 21.47771
v 146.6173 26.11667 31.31944
v 155.0006 21.1264 24.66673
v 147.1905 21.1264 14.825
v 119.4252 33.00528 20.81895
v 111.042 37.99599 27.47124
v 118.8517 37.99599 37.31339
v 127.2353 33.00528 30.66068
v 118.8517 37.99599 37.31339
v 126.6618 37.99599 47.15512
v 135.0454 33.00528 40.50241
v 127.2353 33.00528 30.66068
vt 2.5 -1.5
vt 2.5 2.5
vt -1.5 2.5
vt -1.5 -1.5
vt 2.5 -1.5
vt 2.5 2.5
vt -1.5 2.5
vt -1.5 -1.5
vt 2.5 -1.5
vt 2.5 2.5
vt -1.5 2.5
vt -1.5 -1.5
vt 2.5 -1.5
vt 2.5 2.5
vt -1.5 2.5
vt -1.5 -1.5
vt 2.5 -1.5
vt 2.5 2.5
vt -1.5 2.5
vt -1.5 -1.5
vt 2.5 -1.5
vt 2.5 2.5
vt -1.5 2.5
vt -1.5 -1.5
vt 2.5 -1.5
vt 2.5 2.5
vt -1.5 2.5
vt -1.5 -1.5
vt 2.5 -1.5
vt 2.5 2.5
vt -1.5 2.5
vt -1.5 -1.5
vt 2.5 -1.5
vt 2.5 2.5
vt -1.5 2.5
vt -1.5 -1.5
vt 2.5 -1.5
vt 2.5 2.5
vt -1.5 2.5
vt -1.5 -1.5
vt 2.5 -1.5
vt 2.5 2.5
vt -1.5 2.5
vt -1.5 -1.5
vt 2.5 -1.5
vt 2.5 2.5
vt -1.5 2.5
vt -1.5 -1.5
vt 2.5 -1.5
vt -1.5 -1.5
vt -1.5 2.5
vt 2.5 2.5
vt 2.5 -1.5
vt -1.5 -1.5
vt -1.5 2.5
vt 2.5 2.5
vt 2.5 -1.5
vt -1.5 -1.5
vt -1.5 2.5
vt 2.5 2.5
vt 2.5 -1.5
vt -1.5 -1.5
vt -1.5 2.5
vt 2.5 2.5
vt 2.5 -1.5
vt -1.5 -1.5
vt -1.5 2.5
vt 2.5 2.5
vt 2.5 -1.5
vt -1.5 -1.5
vt -1.5 2.5
vt 2.5 2.5
vt 2.5 -1.5
vt -1.5 -1.5
vt -1.5 2.5
vt 2.5 2.5
vt 2.5 -1.5
vt -1.5 -1.5
vt -1.5 2.5
vt 2.5 2.5
vt 2.5 -1.5
vt -1.5 -1.5
vt -1.5 2.5
vt 2.5 2.5
vt 2.5 -1.5
vt -1.5 -1.5
vt -1.5 2.5
vt 2.5 2.5
vt 2.5 -1.5
vt -1.5 -1.5
vt -1.5 2.5
vt 2.5 2.5
vt 2.5 -1.5
vt -1.5 -1.5
vt -1.5 2.5
vt 2.5 2.5
vt -1.5 2.5
vt 2.5 -1.5
vt 2.5 2.5
vt -1.5 -1.5
vt -1.5 2.5
vt 2.5 -1.5
vt 2.5 2.5
vt -1.5 -1.5
vt -1.5 2.5
vt 2.5 -1.5
vt 2.5 2.5
vt -1.5 -1.5
vt -1.5 2.5
vt 2.5 -1.5
vt 2.5 2.5
vt -1.5 -1.5
vt -1.5 2.5
vt 2.5 2.5
vt 2.5 -1.5
vt -1.5 -1.5
vt -1.5 2.5
vt 2.5 2.5
vt 2.5 -1.5
vt -1.5 -1.5
vt -1.5 2.5
vt 2.5 2.5
vt 2.5 -1.5
vt -1.5 -1.5
vt -1.5 2.5
vt 2.5 2.5
vt 2.5 -1.5
vt -1.5 -1.5
vt -1.5 2.5
vt 2.5 -1.5
vt 2.5 2.5
vt -1.5 -1.5
vt -1.5 2.5
vt 2.5 -1.5
vt 2.5 2.5
vt -1.5 -1.5
vt -1.5 2.5
vt 2.5 -1.5
vt 2.5 2.5
vt -1.5 -1.5
vt -1.5 2.5
vt 2.5 -1.5
vt 2.5 2.5
vt -1.5 -1.5
vt -1.5 2.5
vt 2.5 2.5
vt 2.5 -1.5
vt -1.5 -1.5
vt -1.5 2.5
vt 2.5 2.5
vt 2.5 -1.5
vt -1.5 -1.5
vt -1.5 2.5
vt 2.5 2.5
vt 2.5 -1.5
vt -1.5 -1.5
vt -1.5 2.5
vt 2.5 2.5
vt 2.5 -1.5
vt -1.5 -1.5
vt -1.5 2.5
vt 2.5 -1.5
vt 2.5 2.5
vt -1.5 -1.5
vt -1.5 2.5
vt 2.5 -1.5
vt 2.5 2.5
vt -1.5 -1.5
vt -1.5 2.5
vt 2.5 -1.5
vt 2.5 2.5
vt -1.5 -1.5
vt -1.5 2.5
vt 2.5 -1.5
vt 2.5 2.5
vt -1.5 -1.5
vt -1.5 2.5
vt 2.5 -1.5
vt 2.5 2.5
vt -1.5 -1.5
vt -1.5 2.5
vt 2.5 -1.5
vt 2.5 2.5
vt -1.5 -1.5
vt -1.5 2.5
vt 2.5 2.5
vt 2.5 -1.5
vt -1.5 -1.5
vt -1.5 2.5
vt 2.5 2.5
vt 2.5 -1.5
vt -1.5 -1.5
vt -1.5 2.5
vt 2.5 2.5
vt 2.5 -1.5
vt -1.5 -1.5
vt -1.5 2.5
vt 2.5 2.5
vt 2.5 -1.5
vt -1.5 -1.5
vt -1.5 2.5
vt 2.5 2.5
vt 2.5 -1.5
vt -1.5 -1.5
vt -1.5 2.5
vt 2.5 2.5
vt 2.5 -1.5
vt -1.5 -1.5
vn -0.3633986 0.9266587 0.09615112
vn -0.3633986 0.9266587 0.09615112
vn -0.3633986 0.9266587 0.09615112
vn -0.3633986 0.9266587 0.09615112
vn -0.3633986 0.9266587 0.09615112
vn -0.3633986 0.9266587 0.09615112
vn -0.3633986 0.9266587 0.09615112
vn -0.3633986 0.9266587 0.09615112
vn -0.3633986 0.9266587 0.09615112
vn -0.3633986 0.9266587 0.09615112
vn -0.3633986 0.9266587 0.09615112
vn -0.3633986 0.9266587 0.09615112
vn -0.3633986 0.9266587 0.09615112
vn -0.3633986 0.9266587 0.09615112
vn -0.3633986 0.9266587 0.09615112
vn -0.3633986 0.9266587 0.09615112
vn -0.3633986 0.9266587 0.09615112
vn -0.3633986 0.9266587 0.09615112
vn -0.3633986 0.9266587 0.09615112
vn -0.3633986 0.9266587 0.09615112
vn -0.3633986 0.9266587 0.09615112
vn -0.3633986 0.9266587 0.09615112
vn -0.3633986 0.9266587 0.09615112
vn -0.3633986 0.9266587 0.09615112
vn -0.3633986 0.9266587 0.09615112
vn -0.3633986 0.9266587 0.09615112
vn -0.3633986 0.9266587 0.09615112
vn -0.3633986 0.9266587 0.09615112
vn -0.3633986 0.9266587 0.09615112
vn -0.3633986 0.9266587 0.09615112
vn -0.3633986 0.9266587 0.09615112
vn -0.3633986 0.9266587 0.09615112
vn -0.3633986 0.9266587 0.09615112
vn -0.3633986 0.9266587 0.09615112
vn -0.3633986 0.9266587 0.09615112
vn -0.3633986 0.9266587 0.09615112
vn -0.3633986 0.9266587 0.09615112
vn -0.3633986 0.9266587 0.09615112
vn -0.3633986 0.9266587 0.09615112
vn -0.3633986 0.9266587 0.09615112
vn -0.3633986 0.9266587 0.09615112
vn -0.3633986 0.9266587 0.09615112
vn -0.3633986 0.9266587 0.09615112
vn -0.3633986 0.9266587 0.09615112
vn -0.3633986 0.9266587 0.09615112
vn -0.3633986 0.9266587 0.09615112
vn -0.3633986 0.9266587 0.09615112
vn -0.3633986 0.9266587 0.09615112
vn 0.3646743 -0.9261235 -0.09647726
vn 0.3646743 -0.9261235 -0.09647726
vn 0.3646743 -0.9261235 -0.09647726
vn 0.3646743 -0.9261235 -0.09647726
vn 0.3646743 -0.9261235 -0.09647726
vn 0.3646743 -0.9261235 -0.09647726
vn 0.3646743 -0.9261235 -0.09647726
vn 0.3646743 -0.9261235 -0.09647726
vn 0.3646743 -0.9261235 -0.09647726
vn 0.3646743 -0.9261235 -0.09647726
vn 0.3646743 -0.9261235 -0.09647726
vn 0.3646743 -0.9261235 -0.09647726
vn 0.3646743 -0.9261235 -0.09647726
vn 0.3646743 -0.9261235 -0.09647726
vn 0.3646743 -0.9261235 -0.09647726
vn 0.3646743 -0.9261235 -0.09647726
vn 0.3646743 -0.9261235 -0.09647726
vn 0.3646743 -0.9261235 -0.09647726
vn 0.3646743 -0.9261235 -0.09647726
vn 0.3646743 -0.9261235 -0.09647726
vn 0.3646743 -0.9261235 -0.09647726
vn 0.3646743 -0.9261235 -0.09647726
vn 0.3646743 -0.9261235 -0.09647726
vn 0.3646743 -0.9261235 -0.09647726
vn 0.3646743 -0.9261235 -0.09647726
vn 0.3646743 -0.9261235 -0.09647726
vn 0.3646743 -0.9261235 -0.09647726
vn 0.3646743 -0.9261235 -0.09647726
vn 0.3646743 -0.9261235 -0.09647726
vn 0.3646743 -0.9261235 -0.09647726
vn 0.3646743 -0.9261235 -0.09647726
vn 0.3646743 -0.9261235 -0.09647726
vn 0.3646743 -0.9261235 -0.09647726
vn 0.3646743 -0.9261235 -0.09647726
vn 0.3646743 -0.9261235 -0.09647726
vn 0.3646743 -0.9261235 -0.09647726
vn 0.3646743 -0.9261235 -0.09647726
vn 0.3646743 -0.9261235 -0.09647726
vn 0.3646743 -0.9261235 -0.09647726
vn 0.3646743 -0.9261235 -0.09647726
vn 0.3646743 -0.9261235 -0.09647726
vn 0.3646743 -0.9261235 -0.09647726
vn 0.3646743 -0.9261235 -0.09647726
vn 0.3646743 -0.9261235 -0.09647726
vn 0.3646743 -0.9261235 -0.09647726
vn 0.3646743 -0.9261235 -0.09647726
vn 0.3646743 -0.9261235 -0.09647726
vn 0.3646743 -0.9261235 -0.09647726
vn -0.3362316 0.9031142 0.2670826
vn -0.3362316 0.9031142 0.2670826
vn -0.3362316 0.9031142 0.2670826
vn -0.3362316 0.9031142 0.2670826
vn -0.3362316 0.9031142 0.2670826
vn -0.3362316 0.9031142 0.2670826
vn -0.3362316 0.9031142 0.2670826
vn -0.3362316 0.9031142 0.2670826
vn -0.3362316 0.9031142 0.2670826
vn -0.3362316 0.9031142 0.2670826
vn -0.3362316 0.9031142 0.2670826
vn -0.3362316 0.9031142 0.2670826
vn -0.3362316 0.9031142 0.2670826
vn -0.3362316 0.9031142 0.2670826
vn -0.3362316 0.9031142 0.2670826
vn -0.3362316 0.9031142 0.2670826
vn 0.3375074 -0.9025788 -0.2672829
vn 0.3375074 -0.9025788 -0.2672829
vn 0.3375074 -0.9025788 -0.2672829
vn 0.3375074 -0.9025788 -0.2672829
vn 0.3375074 -0.9025788 -0.2672829
vn 0.3375074 -0.9025788 -0.2672829
vn 0.3375074 -0.9025788 -0.2672829
vn 0.3375074 -0.9025788 -0.2672829
vn 0.3375074 -0.9025788 -0.2672829
vn 0.3375074 -0.9025788 -0.2672829
vn 0.3375074 -0.9025788 -0.2672829
vn 0.3375074 -0.9025788 -0.2672829
vn 0.3375074 -0.9025788 -0.2672829
vn 0.3375074 -0.9025788 -0.2672829
vn 0.3375074 -0.9025788 -0.2672829
vn 0.3375074 -0.9025788 -0.2672829
vn -0.3362316 0.9031142 0.2670826
vn -0.3362316 0.9031142 0.2670826
vn -0.3362316 0.9031142 0.2670826
vn -0.3362316 0.9031142 0.2670826
vn -0.3362316 0.9031142 0.2670826
vn -0.3362316 0.9031142 0.2670826
vn -0.3362316 0.9031142 0.2670826
vn -0.3362316 0.9031142 0.2670826
vn -0.3362316 0.9031142 0.2670826
vn -0.3362316 0.9031142 0.2670826
vn -0.3362316 0.9031142 0.2670826
vn -0.3362316 0.9031142 0.2670826
vn -0.3362316 0.9031142 0.2670826
vn -0.3362316 0.9031142 0.2670826
vn -0.3362316 0.9031142 0.2670826
vn -0.3362316 0.9031142 0.2670826
vn 0.3375074 -0.9025788 -0.2672829
vn 0.3375074 -0.9025788 -0.2672829
vn 0.3375074 -0.9025788 -0.2672829
vn 0.3375074 -0.9025788 -0.2672829
vn 0.3375074 -0.9025788 -0.2672829
vn 0.3375074 -0.9025788 -0.2672829
vn 0.3375074 -0.9025788 -0.2672829
vn 0.3375074 -0.9025788 -0.2672829
vn 0.3375074 -0.9025788 -0.2672829
vn 0.3375074 -0.9025788 -0.2672829
vn 0.3375074 -0.9025788 -0.2672829
vn 0.3375074 -0.9025788 -0.2672829
vn 0.3375074 -0.9025788 -0.2672829
vn 0.3375074 -0.9025788 -0.2672829
vn 0.3375074 -0.9025788 -0.2672829
vn 0.3375074 -0.9025788 -0.2672829
vn 0.3302629 0.9067364 -0.2622128
vn 0.3302629 0.9067364 -0.2622128
vn 0.3302629 0.9067364 -0.2622128
vn 0.3302629 0.9067364 -0.2622128
vn 0.3302629 0.9067364 -0.2622128
vn 0.3302629 0.9067364 -0.2622128
vn 0.3302629 0.9067364 -0.2622128
vn 0.3302629 0.9067364 -0.2622128
vn 0.3302629 0.9067364 -0.2622128
vn 0.3302629 0.9067364 -0.2622128
vn 0.3302629 0.9067364 -0.2622128
vn 0.3302629 0.9067364 -0.2622128
vn 0.3302629 0.9067364 -0.2622128
vn 0.3302629 0.9067364 -0.2622128
vn 0.3302629 0.9067364 -0.2622128
vn 0.3302629 0.9067364 -0.2622128
vn 0.3302629 0.9067364 -0.2622128
vn 0.3302629 0.9067364 -0.2622128
vn 0.3302629 0.9067364 -0.2622128
vn 0.3302629 0.9067364 -0.2622128
vn 0.3302629 0.9067364 -0.2622128
vn 0.3302629 0.9067364 -0.2622128
vn 0.3302629 0.9067364 -0.2622128
vn 0.3302629 0.9067364 -0.2622128
vn -0.3307983 -0.9062011 0.2633857
vn -0.3307983 -0.9062011 0.2633857
vn -0.3307983 -0.9062011 0.2633857
vn -0.3307983 -0.9062011 0.2633857
vn -0.3307983 -0.9062011 0.2633857
vn -0.3307983 -0.9062011 0.2633857
vn -0.3307983 -0.9062011 0.2633857
vn -0.3307983 -0.9062011 0.2633857
vn -0.3307983 -0.9062011 0.2633857
vn -0.3307983 -0.9062011 0.2633857
vn -0.3307983 -0.9062011 0.2633857
vn -0.3307983 -0.9062011 0.2633857
vn -0.3307983 -0.9062011 0.2633857
vn -0.3307983 -0.9062011 0.2633857
vn -0.3307983 -0.9062011 0.2633857
vn -0.3307983 -0.9062011 0.2633857
vn -0.3307983 -0.9062011 0.2633857
vn -0.3307983 -0.9062011 0.2633857
vn -0.3307983 -0.9062011 0.2633857
vn -0.3307983 -0.9062011 0.2633857
vn -0.3307983 -0.9062011 0.2633857
vn -0.3307983 -0.9062011 0.2633857
vn -0.3307983 -0.9062011 0.2633857
vn -0.3307983 -0.9062011 0.2633857
g Combined_M_Cmn_ami01_Prefab_Mesh_0
f 3/3/3 2/2/2 1/1/1
f 4/4/4 3/3/3 1/1/1
f 7/7/7 6/6/6 5/5/5
f 8/8/8 7/7/7 5/5/5
f 11/11/11 10/10/10 9/9/9
f 12/12/12 11/11/11 9/9/9
f 15/15/15 14/14/14 13/13/13
f 16/16/16 15/15/15 13/13/13
f 19/19/19 18/18/18 17/17/17
f 20/20/20 19/19/19 17/17/17
f 23/23/23 22/22/22 21/21/21
f 24/24/24 23/23/23 21/21/21
f 27/27/27 26/26/26 25/25/25
f 28/28/28 27/27/27 25/25/25
f 31/31/31 30/30/30 29/29/29
f 32/32/32 31/31/31 29/29/29
f 35/35/35 34/34/34 33/33/33
f 36/36/36 35/35/35 33/33/33
f 39/39/39 38/38/38 37/37/37
f 40/40/40 39/39/39 37/37/37
f 43/43/43 42/42/42 41/41/41
f 44/44/44 43/43/43 41/41/41
f 47/47/47 46/46/46 45/45/45
f 48/48/48 47/47/47 45/45/45
f 51/51/51 50/50/50 49/49/49
f 52/52/52 51/51/51 49/49/49
f 55/55/55 54/54/54 53/53/53
f 56/56/56 55/55/55 53/53/53
f 59/59/59 58/58/58 57/57/57
f 60/60/60 59/59/59 57/57/57
f 63/63/63 62/62/62 61/61/61
f 64/64/64 63/63/63 61/61/61
f 67/67/67 66/66/66 65/65/65
f 68/68/68 67/67/67 65/65/65
f 71/71/71 70/70/70 69/69/69
f 72/72/72 71/71/71 69/69/69
f 75/75/75 74/74/74 73/73/73
f 76/76/76 75/75/75 73/73/73
f 79/79/79 78/78/78 77/77/77
f 80/80/80 79/79/79 77/77/77
f 83/83/83 82/82/82 81/81/81
f 84/84/84 83/83/83 81/81/81
f 87/87/87 86/86/86 85/85/85
f 88/88/88 87/87/87 85/85/85
f 91/91/91 90/90/90 89/89/89
f 92/92/92 91/91/91 89/89/89
f 95/95/95 94/94/94 93/93/93
f 96/96/96 95/95/95 93/93/93
f 99/99/99 98/98/98 97/97/97
f 100/100/100 97/97/97 98/98/98
f 103/103/103 102/102/102 101/101/101
f 104/104/104 101/101/101 102/102/102
f 107/107/107 106/106/106 105/105/105
f 108/108/108 105/105/105 106/106/106
f 111/111/111 110/110/110 109/109/109
f 112/112/112 109/109/109 110/110/110
f 115/115/115 114/114/114 113/113/113
f 113/113/113 116/116/116 115/115/115
f 119/119/119 118/118/118 117/117/117
f 117/117/117 120/120/120 119/119/119
f 123/123/123 122/122/122 121/121/121
f 121/121/121 124/124/124 123/123/123
f 127/127/127 126/126/126 125/125/125
f 125/125/125 128/128/128 127/127/127
f 131/131/131 130/130/130 129/129/129
f 132/132/132 129/129/129 130/130/130
f 135/135/135 134/134/134 133/133/133
f 136/136/136 133/133/133 134/134/134
f 139/139/139 138/138/138 137/137/137
f 140/140/140 137/137/137 138/138/138
f 143/143/143 142/142/142 141/141/141
f 144/144/144 141/141/141 142/142/142
f 147/147/147 146/146/146 145/145/145
f 145/145/145 148/148/148 147/147/147
f 151/151/151 150/150/150 149/149/149
f 149/149/149 152/152/152 151/151/151
f 155/155/155 154/154/154 153/153/153
f 153/153/153 156/156/156 155/155/155
f 159/159/159 158/158/158 157/157/157
f 157/157/157 160/160/160 159/159/159
f 163/163/163 162/162/162 161/161/161
f 164/164/164 161/161/161 162/162/162
f 167/167/167 166/166/166 165/165/165
f 168/168/168 165/165/165 166/166/166
f 171/171/171 170/170/170 169/169/169
f 172/172/172 169/169/169 170/170/170
f 175/175/175 174/174/174 173/173/173
f 176/176/176 173/173/173 174/174/174
f 179/179/179 178/178/178 177/177/177
f 180/180/180 177/177/177 178/178/178
f 183/183/183 182/182/182 181/181/181
f 184/184/184 181/181/181 182/182/182
f 187/187/187 186/186/186 185/185/185
f 185/185/185 188/188/188 187/187/187
f 191/191/191 190/190/190 189/189/189
f 189/189/189 192/192/192 191/191/191
f 195/195/195 194/194/194 193/193/193
f 193/193/193 196/196/196 195/195/195
f 199/199/199 198/198/198 197/197/197
f 197/197/197 200/200/200 199/199/199
f 203/203/203 202/202/202 201/201/201
f 201/201/201 204/204/204 203/203/203
f 207/207/207 206/206/206 205/205/205
f 205/205/205 208/208/208 207/207/207
