g Combined_ShadowCollisionPrefab_Mesh
v -164.8008 50.00144 117.1213
v -164.8008 50.00144 121.5038
v -164.8008 45.61901 121.5038
v -164.8008 45.61901 117.1213
v -164.8008 50.00144 121.5038
v -164.8008 50.00144 117.1213
v -160.416 50.00144 117.1125
v -160.416 50.00144 121.5082
v -160.416 50.00144 121.5082
v -160.416 50.00144 117.1125
v -156.0315 50.00144 117.1169
v -156.0315 50.00144 121.5082
v -156.0315 50.00144 121.5082
v -156.0315 50.00144 117.1169
v -151.6468 50.00144 117.1125
v -151.6468 50.00144 121.5082
v -151.6468 50.00144 121.5082
v -151.6468 50.00144 117.1125
v -147.262 50.00144 117.1169
v -147.262 50.00144 121.5082
v -142.8775 45.61901 121.5038
v -142.8775 50.00144 121.5038
v -142.8775 50.00144 117.1213
v -142.8775 45.61901 117.1213
v -147.262 50.00144 121.5082
v -147.262 50.00144 117.1169
v -142.8775 50.00144 117.1213
v -142.8775 50.00144 121.5038
v 106.438 50.23618 153.3045
v 106.438 50.23618 154.7074
v 99.56174 50.23618 154.7074
v 99.56174 50.23618 153.3045
v 99.56174 50.23618 138.1658
v 99.56174 50.23618 136.7629
v 106.438 50.23618 136.7629
v 106.438 50.23618 138.1658
v 97.9204 50.36707 138.3329
v 97.9204 50.36707 136.6406
v 99.56174 50.36707 136.6406
v 99.56174 50.36707 138.3329
v 99.56174 50.36707 154.8297
v 97.9204 50.36707 154.8297
v 97.9204 50.36707 153.1374
v 99.56174 50.36707 153.1374
v 98.06094 50.23618 153.1374
v 98.06094 50.23618 138.3329
v 99.42199 50.23618 138.3329
v 99.42199 50.23618 153.1374
v 106.438 50.36707 138.3329
v 106.438 50.36707 136.6406
v 108.0796 50.36707 136.6406
v 108.0796 50.36707 138.3329
v 106.5786 50.23618 153.1374
v 106.5786 50.23618 138.3329
v 107.9396 50.23618 138.3329
v 107.9396 50.23618 153.1374
v 108.0796 50.36707 154.8297
v 106.438 50.36707 154.8297
v 106.438 50.36707 153.1374
v 108.0796 50.36707 153.1374
v 106.438 50.23618 153.3045
v 106.438 50.23618 154.7074
v 99.56174 50.23618 154.7074
v 99.56174 50.23618 153.3045
v 99.56174 50.23618 138.1658
v 99.56174 50.23618 136.7629
v 106.438 50.23618 136.7629
v 106.438 50.23618 138.1658
v 97.9204 50.36707 138.3329
v 97.9204 50.36707 136.6406
v 99.56174 50.36707 136.6406
v 99.56174 50.36707 138.3329
v 99.56174 50.36707 154.8297
v 97.9204 50.36707 154.8297
v 97.9204 50.36707 153.1374
v 99.56174 50.36707 153.1374
v 98.06094 50.23618 153.1374
v 98.06094 50.23618 138.3329
v 99.42199 50.23618 138.3329
v 99.42199 50.23618 153.1374
v 106.438 50.36707 138.3329
v 106.438 50.36707 136.6406
v 108.0796 50.36707 136.6406
v 108.0796 50.36707 138.3329
v 106.5786 50.23618 153.1374
v 106.5786 50.23618 138.3329
v 107.9396 50.23618 138.3329
v 107.9396 50.23618 153.1374
v 108.0796 50.36707 154.8297
v 106.438 50.36707 154.8297
v 106.438 50.36707 153.1374
v 108.0796 50.36707 153.1374
v 96.27959 50.23618 153.2904
v 96.27959 50.23618 154.6934
v 89.40329 50.23618 154.6934
v 89.40329 50.23618 153.2904
v 89.40329 50.23618 138.1518
v 89.40329 50.23618 136.7488
v 96.27959 50.23618 136.7488
v 96.27959 50.23618 138.1518
v 87.7617 50.36707 138.3188
v 87.7617 50.36707 136.6265
v 89.40329 50.36707 136.6265
v 89.40329 50.36707 138.3188
v 89.40329 50.36707 154.8157
v 87.7617 50.36707 154.8157
v 87.7617 50.36707 153.1234
v 89.40329 50.36707 153.1234
v 87.90224 50.23618 153.1234
v 87.90224 50.23618 138.3188
v 89.26328 50.23618 138.3188
v 89.26328 50.23618 153.1234
v 96.27959 50.36707 138.3188
v 96.27959 50.36707 136.6265
v 97.92093 50.36707 136.6265
v 97.92093 50.36707 138.3188
v 96.42013 50.23618 153.1234
v 96.42013 50.23618 138.3188
v 97.78117 50.23618 138.3188
v 97.78117 50.23618 153.1234
v 97.92093 50.36707 154.8157
v 96.27959 50.36707 154.8157
v 96.27959 50.36707 153.1234
v 97.92093 50.36707 153.1234
v 96.27959 50.23618 153.2904
v 96.27959 50.23618 154.6934
v 89.40329 50.23618 154.6934
v 89.40329 50.23618 153.2904
v 89.40329 50.23618 138.1518
v 89.40329 50.23618 136.7488
v 96.27959 50.23618 136.7488
v 96.27959 50.23618 138.1518
v 87.7617 50.36707 138.3188
v 87.7617 50.36707 136.6265
v 89.40329 50.36707 136.6265
v 89.40329 50.36707 138.3188
v 89.40329 50.36707 154.8157
v 87.7617 50.36707 154.8157
v 87.7617 50.36707 153.1234
v 89.40329 50.36707 153.1234
v 87.90224 50.23618 153.1234
v 87.90224 50.23618 138.3188
v 89.26328 50.23618 138.3188
v 89.26328 50.23618 153.1234
v 96.27959 50.36707 138.3188
v 96.27959 50.36707 136.6265
v 97.92093 50.36707 136.6265
v 97.92093 50.36707 138.3188
v 96.42013 50.23618 153.1234
v 96.42013 50.23618 138.3188
v 97.78117 50.23618 138.3188
v 97.78117 50.23618 153.1234
v 97.92093 50.36707 154.8157
v 96.27959 50.36707 154.8157
v 96.27959 50.36707 153.1234
v 97.92093 50.36707 153.1234
v -24.01888 50.02512 61.56934
v -24.01888 50.02512 62.9723
v -30.8952 50.02512 62.9723
v -30.8952 50.02512 61.56934
v -30.8952 50.02512 46.4307
v -30.8952 50.02512 45.02775
v -24.01888 50.02512 45.02775
v -24.01888 50.02512 46.4307
v -32.53678 50.15629 46.59777
v -32.53678 50.15629 44.90543
v -30.8952 50.15629 44.90543
v -30.8952 50.15629 46.59777
v -30.8952 50.15629 63.0946
v -32.53678 50.15629 63.0946
v -32.53678 50.15629 61.40226
v -30.8952 50.15629 61.40226
v -32.39625 50.02512 61.40226
v -32.39625 50.02512 46.59777
v -31.03519 50.02512 46.59777
v -31.03519 50.02512 61.40226
v -24.01888 50.15629 46.59777
v -24.01888 50.15629 44.90543
v -22.3773 50.15629 44.90543
v -22.3773 50.15629 46.59777
v -23.87836 50.02512 61.40226
v -23.87836 50.02512 46.59777
v -22.51731 50.02512 46.59777
v -22.51731 50.02512 61.40226
v -22.3773 50.15629 63.0946
v -24.01888 50.15629 63.0946
v -24.01888 50.15629 61.40226
v -22.3773 50.15629 61.40226
v -24.01888 50.02512 61.56934
v -24.01888 50.02512 62.9723
v -30.8952 50.02512 62.9723
v -30.8952 50.02512 61.56934
v -30.8952 50.02512 46.4307
v -30.8952 50.02512 45.02775
v -24.01888 50.02512 45.02775
v -24.01888 50.02512 46.4307
v -32.53678 50.15629 46.59777
v -32.53678 50.15629 44.90543
v -30.8952 50.15629 44.90543
v -30.8952 50.15629 46.59777
v -30.8952 50.15629 63.0946
v -32.53678 50.15629 63.0946
v -32.53678 50.15629 61.40226
v -30.8952 50.15629 61.40226
v -32.39625 50.02512 61.40226
v -32.39625 50.02512 46.59777
v -31.03519 50.02512 46.59777
v -31.03519 50.02512 61.40226
v -24.01888 50.15629 46.59777
v -24.01888 50.15629 44.90543
v -22.3773 50.15629 44.90543
v -22.3773 50.15629 46.59777
v -23.87836 50.02512 61.40226
v -23.87836 50.02512 46.59777
v -22.51731 50.02512 46.59777
v -22.51731 50.02512 61.40226
v -22.3773 50.15629 63.0946
v -24.01888 50.15629 63.0946
v -24.01888 50.15629 61.40226
v -22.3773 50.15629 61.40226
vt 0.6144527 0.969596
vt 0.3390789 0.9696111
vt 0.3421284 0.6972717
vt 0.6176381 0.6972717
vt 0.623737 0.731284
vt 0.623737 0.9136034
vt 0.8060716 0.9136034
vt 0.8060716 0.731284
vt 0.6314815 0.4216715
vt 0.6314815 0.5887133
vt 0.7983271 0.5887133
vt 0.7983271 0.4216715
vt 0.623737 0.731284
vt 0.623737 0.9136034
vt 0.8060716 0.9136034
vt 0.8060716 0.731284
vt 0.6314815 0.4216715
vt 0.6314815 0.5887133
vt 0.7983271 0.5887133
vt 0.7983271 0.4216715
vt 0.3421284 0.6972717
vt 0.3421737 0.969596
vt 0.6175475 0.9696111
vt 0.6176381 0.6972717
vt 0.623737 0.731284
vt 0.623737 0.9136034
vt 0.8060716 0.9136034
vt 0.8060716 0.731284
vt 0.3430644 0.1985162
vt 0.2532105 0.1985162
vt 0.2532105 0.8010898
vt 0.3430644 0.8010898
vt 0.3430644 0.8010898
vt 0.2532105 0.8010898
vt 0.2532105 0.1985162
vt 0.3430644 0.1985162
vt 0.4972139 0.6657805
vt 0.4972139 0.8264971
vt 0.3457968 0.8264971
vt 0.3457968 0.6657805
vt 0.3457968 0.8264971
vt 0.4972139 0.8264971
vt 0.4972139 0.6657805
vt 0.3457968 0.6657805
vt 0.3422643 0.9944749
vt 0.3422643 0.005131
vt 0.25392 0.005131
vt 0.25392 0.9944749
vt 0.4972139 0.6657805
vt 0.4972139 0.8264971
vt 0.3457968 0.8264971
vt 0.3457968 0.6657805
vt 0.3422643 0.9944749
vt 0.3422643 0.005131
vt 0.25392 0.005131
vt 0.25392 0.9944749
vt 0.3457968 0.8264971
vt 0.4972139 0.8264971
vt 0.4972139 0.6657805
vt 0.3457968 0.6657805
vt 0.3430644 0.1985162
vt 0.2532105 0.1985162
vt 0.2532105 0.8010898
vt 0.3430644 0.8010898
vt 0.3430644 0.8010898
vt 0.2532105 0.8010898
vt 0.2532105 0.1985162
vt 0.3430644 0.1985162
vt 0.4972139 0.6657805
vt 0.4972139 0.8264971
vt 0.3457968 0.8264971
vt 0.3457968 0.6657805
vt 0.3457968 0.8264971
vt 0.4972139 0.8264971
vt 0.4972139 0.6657805
vt 0.3457968 0.6657805
vt 0.3422643 0.9944749
vt 0.3422643 0.005131
vt 0.25392 0.005131
vt 0.25392 0.9944749
vt 0.4972139 0.6657805
vt 0.4972139 0.8264971
vt 0.3457968 0.8264971
vt 0.3457968 0.6657805
vt 0.3422643 0.9944749
vt 0.3422643 0.005131
vt 0.25392 0.005131
vt 0.25392 0.9944749
vt 0.3457968 0.8264971
vt 0.4972139 0.8264971
vt 0.4972139 0.6657805
vt 0.3457968 0.6657805
vt 0.3430644 0.1985162
vt 0.2532105 0.1985162
vt 0.2532105 0.8010898
vt 0.3430644 0.8010898
vt 0.3430644 0.8010898
vt 0.2532105 0.8010898
vt 0.2532105 0.1985162
vt 0.3430644 0.1985162
vt 0.4972139 0.6657805
vt 0.4972139 0.8264971
vt 0.3457968 0.8264971
vt 0.3457968 0.6657805
vt 0.3457968 0.8264971
vt 0.4972139 0.8264971
vt 0.4972139 0.6657805
vt 0.3457968 0.6657805
vt 0.3422643 0.9944749
vt 0.3422643 0.005131
vt 0.25392 0.005131
vt 0.25392 0.9944749
vt 0.4972139 0.6657805
vt 0.4972139 0.8264971
vt 0.3457968 0.8264971
vt 0.3457968 0.6657805
vt 0.3422643 0.9944749
vt 0.3422643 0.005131
vt 0.25392 0.005131
vt 0.25392 0.9944749
vt 0.3457968 0.8264971
vt 0.4972139 0.8264971
vt 0.4972139 0.6657805
vt 0.3457968 0.6657805
vt 0.3430644 0.1985162
vt 0.2532105 0.1985162
vt 0.2532105 0.8010898
vt 0.3430644 0.8010898
vt 0.3430644 0.8010898
vt 0.2532105 0.8010898
vt 0.2532105 0.1985162
vt 0.3430644 0.1985162
vt 0.4972139 0.6657805
vt 0.4972139 0.8264971
vt 0.3457968 0.8264971
vt 0.3457968 0.6657805
vt 0.3457968 0.8264971
vt 0.4972139 0.8264971
vt 0.4972139 0.6657805
vt 0.3457968 0.6657805
vt 0.3422643 0.9944749
vt 0.3422643 0.005131
vt 0.25392 0.005131
vt 0.25392 0.9944749
vt 0.4972139 0.6657805
vt 0.4972139 0.8264971
vt 0.3457968 0.8264971
vt 0.3457968 0.6657805
vt 0.3422643 0.9944749
vt 0.3422643 0.005131
vt 0.25392 0.005131
vt 0.25392 0.9944749
vt 0.3457968 0.8264971
vt 0.4972139 0.8264971
vt 0.4972139 0.6657805
vt 0.3457968 0.6657805
vt 0.3430644 0.1985162
vt 0.2532105 0.1985162
vt 0.2532105 0.8010898
vt 0.3430644 0.8010898
vt 0.3430644 0.8010898
vt 0.2532105 0.8010898
vt 0.2532105 0.1985162
vt 0.3430644 0.1985162
vt 0.4972139 0.6657805
vt 0.4972139 0.8264971
vt 0.3457968 0.8264971
vt 0.3457968 0.6657805
vt 0.3457968 0.8264971
vt 0.4972139 0.8264971
vt 0.4972139 0.6657805
vt 0.3457968 0.6657805
vt 0.3422643 0.9944749
vt 0.3422643 0.005131
vt 0.25392 0.005131
vt 0.25392 0.9944749
vt 0.4972139 0.6657805
vt 0.4972139 0.8264971
vt 0.3457968 0.8264971
vt 0.3457968 0.6657805
vt 0.3422643 0.9944749
vt 0.3422643 0.005131
vt 0.25392 0.005131
vt 0.25392 0.9944749
vt 0.3457968 0.8264971
vt 0.4972139 0.8264971
vt 0.4972139 0.6657805
vt 0.3457968 0.6657805
vt 0.3430644 0.1985162
vt 0.2532105 0.1985162
vt 0.2532105 0.8010898
vt 0.3430644 0.8010898
vt 0.3430644 0.8010898
vt 0.2532105 0.8010898
vt 0.2532105 0.1985162
vt 0.3430644 0.1985162
vt 0.4972139 0.6657805
vt 0.4972139 0.8264971
vt 0.3457968 0.8264971
vt 0.3457968 0.6657805
vt 0.3457968 0.8264971
vt 0.4972139 0.8264971
vt 0.4972139 0.6657805
vt 0.3457968 0.6657805
vt 0.3422643 0.9944749
vt 0.3422643 0.005131
vt 0.25392 0.005131
vt 0.25392 0.9944749
vt 0.4972139 0.6657805
vt 0.4972139 0.8264971
vt 0.3457968 0.8264971
vt 0.3457968 0.6657805
vt 0.3422643 0.9944749
vt 0.3422643 0.005131
vt 0.25392 0.005131
vt 0.25392 0.9944749
vt 0.3457968 0.8264971
vt 0.4972139 0.8264971
vt 0.4972139 0.6657805
vt 0.3457968 0.6657805
vn -0.9999995 0.0009775162 0
vn -0.9999995 0.0009775162 0
vn -0.9999995 0.0009775162 0
vn -0.9999995 0.0009775162 0
vn -0.0009775162 0.9999995 0
vn -0.0009775162 0.9999995 0
vn -0.0009775162 0.9999995 0
vn -0.0009775162 0.9999995 0
vn -0.0009775162 0.9999995 0
vn -0.0009775162 0.9999995 0
vn -0.0009775162 0.9999995 0
vn -0.0009775162 0.9999995 0
vn -0.0009775162 0.9999995 0
vn -0.0009775162 0.9999995 0
vn -0.0009775162 0.9999995 0
vn -0.0009775162 0.9999995 0
vn -0.0009775162 0.9999995 0
vn -0.0009775162 0.9999995 0
vn -0.0009775162 0.9999995 0
vn -0.0009775162 0.9999995 0
vn 0.9999995 0.0009775162 0
vn 0.9999995 0.0009775162 0
vn 0.9999995 0.0009775162 0
vn 0.9999995 0.0009775162 0
vn -0.0009775162 0.9999995 0
vn -0.0009775162 0.9999995 0
vn -0.0009775162 0.9999995 0
vn -0.0009775162 0.9999995 0
vn 0.0009775162 0.9999995 0
vn 0.0009775162 0.9999995 0
vn 0.0009775162 0.9999995 0
vn 0.0009775162 0.9999995 0
vn 0.0009775162 0.9999995 0
vn 0.0009775162 0.9999995 0
vn 0.0009775162 0.9999995 0
vn 0.0009775162 0.9999995 0
vn 0.0009775162 0.9999995 0
vn 0.0009775162 0.9999995 0
vn 0.0009775162 0.9999995 0
vn 0.0009775162 0.9999995 0
vn 0.0009775162 0.9999995 0
vn 0.0009775162 0.9999995 0
vn 0.0009775162 0.9999995 0
vn 0.0009775162 0.9999995 0
vn 0.0009775162 0.9999995 0
vn 0.0009775162 0.9999995 0
vn 0.0009775162 0.9999995 0
vn 0.0009775162 0.9999995 0
vn 0.0009775162 0.9999995 0
vn 0.0009775162 0.9999995 0
vn 0.0009775162 0.9999995 0
vn 0.0009775162 0.9999995 0
vn 0.0009775162 0.9999995 0
vn 0.0009775162 0.9999995 0
vn 0.0009775162 0.9999995 0
vn 0.0009775162 0.9999995 0
vn 0.0009775162 0.9999995 0
vn 0.0009775162 0.9999995 0
vn 0.0009775162 0.9999995 0
vn 0.0009775162 0.9999995 0
vn 0.0009775162 0.9999995 0
vn 0.0009775162 0.9999995 0
vn 0.0009775162 0.9999995 0
vn 0.0009775162 0.9999995 0
vn 0.0009775162 0.9999995 0
vn 0.0009775162 0.9999995 0
vn 0.0009775162 0.9999995 0
vn 0.0009775162 0.9999995 0
vn 0.0009775162 0.9999995 0
vn 0.0009775162 0.9999995 0
vn 0.0009775162 0.9999995 0
vn 0.0009775162 0.9999995 0
vn 0.0009775162 0.9999995 0
vn 0.0009775162 0.9999995 0
vn 0.0009775162 0.9999995 0
vn 0.0009775162 0.9999995 0
vn 0.0009775162 0.9999995 0
vn 0.0009775162 0.9999995 0
vn 0.0009775162 0.9999995 0
vn 0.0009775162 0.9999995 0
vn 0.0009775162 0.9999995 0
vn 0.0009775162 0.9999995 0
vn 0.0009775162 0.9999995 0
vn 0.0009775162 0.9999995 0
vn 0.0009775162 0.9999995 0
vn 0.0009775162 0.9999995 0
vn 0.0009775162 0.9999995 0
vn 0.0009775162 0.9999995 0
vn 0.0009775162 0.9999995 0
vn 0.0009775162 0.9999995 0
vn 0.0009775162 0.9999995 0
vn 0.0009775162 0.9999995 0
vn 0.0009775162 0.9999995 0
vn 0.0009775162 0.9999995 0
vn 0.0009775162 0.9999995 0
vn 0.0009775162 0.9999995 0
vn 0.0009775162 0.9999995 0
vn 0.0009775162 0.9999995 0
vn 0.0009775162 0.9999995 0
vn 0.0009775162 0.9999995 0
vn 0.0009775162 0.9999995 0
vn 0.0009775162 0.9999995 0
vn 0.0009775162 0.9999995 0
vn 0.0009775162 0.9999995 0
vn 0.0009775162 0.9999995 0
vn 0.0009775162 0.9999995 0
vn 0.0009775162 0.9999995 0
vn 0.0009775162 0.9999995 0
vn 0.0009775162 0.9999995 0
vn 0.0009775162 0.9999995 0
vn 0.0009775162 0.9999995 0
vn 0.0009775162 0.9999995 0
vn 0.0009775162 0.9999995 0
vn 0.0009775162 0.9999995 0
vn 0.0009775162 0.9999995 0
vn 0.0009775162 0.9999995 0
vn 0.0009775162 0.9999995 0
vn 0.0009775162 0.9999995 0
vn 0.0009775162 0.9999995 0
vn 0.0009775162 0.9999995 0
vn 0.0009775162 0.9999995 0
vn 0.0009775162 0.9999995 0
vn 0.0009775162 0.9999995 0
vn 0.0009775162 0.9999995 0
vn 0.0009775162 0.9999995 0
vn 0.0009775162 0.9999995 0
vn 0.0009775162 0.9999995 0
vn 0.0009775162 0.9999995 0
vn 0.0009775162 0.9999995 0
vn 0.0009775162 0.9999995 0
vn 0.0009775162 0.9999995 0
vn 0.0009775162 0.9999995 0
vn 0.0009775162 0.9999995 0
vn 0.0009775162 0.9999995 0
vn 0.0009775162 0.9999995 0
vn 0.0009775162 0.9999995 0
vn 0.0009775162 0.9999995 0
vn 0.0009775162 0.9999995 0
vn 0.0009775162 0.9999995 0
vn 0.0009775162 0.9999995 0
vn 0.0009775162 0.9999995 0
vn 0.0009775162 0.9999995 0
vn 0.0009775162 0.9999995 0
vn 0.0009775162 0.9999995 0
vn 0.0009775162 0.9999995 0
vn 0.0009775162 0.9999995 0
vn 0.0009775162 0.9999995 0
vn 0.0009775162 0.9999995 0
vn 0.0009775162 0.9999995 0
vn 0.0009775162 0.9999995 0
vn 0.0009775162 0.9999995 0
vn 0.0009775162 0.9999995 0
vn 0.0009775162 0.9999995 0
vn 0.0009775162 0.9999995 0
vn 0.0009775162 0.9999995 0
vn 0.0009775162 0.9999995 0
vn 0.0009775162 0.9999995 0
vn 0.0009775162 0.9999995 0
vn 0.0009775162 0.9999995 0
vn 0.0009775162 0.9999995 0
vn 0.0009775162 0.9999995 0
vn 0.0009775162 0.9999995 0
vn 0.0009775162 0.9999995 0
vn 0.0009775162 0.9999995 0
vn 0.0009775162 0.9999995 0
vn 0.0009775162 0.9999995 0
vn 0.0009775162 0.9999995 0
vn 0.0009775162 0.9999995 0
vn 0.0009775162 0.9999995 0
vn 0.0009775162 0.9999995 0
vn 0.0009775162 0.9999995 0
vn 0.0009775162 0.9999995 0
vn 0.0009775162 0.9999995 0
vn 0.0009775162 0.9999995 0
vn 0.0009775162 0.9999995 0
vn 0.0009775162 0.9999995 0
vn 0.0009775162 0.9999995 0
vn 0.0009775162 0.9999995 0
vn 0.0009775162 0.9999995 0
vn 0.0009775162 0.9999995 0
vn 0.0009775162 0.9999995 0
vn 0.0009775162 0.9999995 0
vn 0.0009775162 0.9999995 0
vn 0.0009775162 0.9999995 0
vn 0.0009775162 0.9999995 0
vn 0.0009775162 0.9999995 0
vn 0.0009775162 0.9999995 0
vn 0.0009775162 0.9999995 0
vn 0.0009775162 0.9999995 0
vn 0.0009775162 0.9999995 0
vn 0.0009775162 0.9999995 0
vn 0.0009775162 0.9999995 0
vn 0.0009775162 0.9999995 0
vn 0.0009775162 0.9999995 0
vn 0.0009775162 0.9999995 0
vn 0.0009775162 0.9999995 0
vn 0.0009775162 0.9999995 0
vn 0.0009775162 0.9999995 0
vn 0.0009775162 0.9999995 0
vn 0.0009775162 0.9999995 0
vn 0.0009775162 0.9999995 0
vn 0.0009775162 0.9999995 0
vn 0.0009775162 0.9999995 0
vn 0.0009775162 0.9999995 0
vn 0.0009775162 0.9999995 0
vn 0.0009775162 0.9999995 0
vn 0.0009775162 0.9999995 0
vn 0.0009775162 0.9999995 0
vn 0.0009775162 0.9999995 0
vn 0.0009775162 0.9999995 0
vn 0.0009775162 0.9999995 0
vn 0.0009775162 0.9999995 0
vn 0.0009775162 0.9999995 0
vn 0.0009775162 0.9999995 0
vn 0.0009775162 0.9999995 0
vn 0.0009775162 0.9999995 0
vn 0.0009775162 0.9999995 0
vn 0.0009775162 0.9999995 0
vn 0.0009775162 0.9999995 0
vn 0.0009775162 0.9999995 0
g Combined_ShadowCollisionPrefab_Mesh_0
f 3/3/3 2/2/2 1/1/1
f 4/4/4 3/3/3 1/1/1
f 7/7/7 6/6/6 5/5/5
f 8/8/8 7/7/7 5/5/5
f 11/11/11 10/10/10 9/9/9
f 12/12/12 11/11/11 9/9/9
f 15/15/15 14/14/14 13/13/13
f 16/16/16 15/15/15 13/13/13
f 19/19/19 18/18/18 17/17/17
f 20/20/20 19/19/19 17/17/17
f 23/23/23 22/22/22 21/21/21
f 24/24/24 23/23/23 21/21/21
f 27/27/27 26/26/26 25/25/25
f 28/28/28 27/27/27 25/25/25
f 31/31/31 30/30/30 29/29/29
f 29/29/29 32/32/32 31/31/31
f 35/35/35 34/34/34 33/33/33
f 33/33/33 36/36/36 35/35/35
f 39/39/39 38/38/38 37/37/37
f 40/40/40 39/39/39 37/37/37
f 43/43/43 42/42/42 41/41/41
f 44/44/44 43/43/43 41/41/41
f 47/47/47 46/46/46 45/45/45
f 48/48/48 47/47/47 45/45/45
f 51/51/51 50/50/50 49/49/49
f 52/52/52 51/51/51 49/49/49
f 55/55/55 54/54/54 53/53/53
f 56/56/56 55/55/55 53/53/53
f 59/59/59 58/58/58 57/57/57
f 60/60/60 59/59/59 57/57/57
f 63/63/63 62/62/62 61/61/61
f 61/61/61 64/64/64 63/63/63
f 67/67/67 66/66/66 65/65/65
f 65/65/65 68/68/68 67/67/67
f 71/71/71 70/70/70 69/69/69
f 72/72/72 71/71/71 69/69/69
f 75/75/75 74/74/74 73/73/73
f 76/76/76 75/75/75 73/73/73
f 79/79/79 78/78/78 77/77/77
f 80/80/80 79/79/79 77/77/77
f 83/83/83 82/82/82 81/81/81
f 84/84/84 83/83/83 81/81/81
f 87/87/87 86/86/86 85/85/85
f 88/88/88 87/87/87 85/85/85
f 91/91/91 90/90/90 89/89/89
f 92/92/92 91/91/91 89/89/89
f 95/95/95 94/94/94 93/93/93
f 93/93/93 96/96/96 95/95/95
f 99/99/99 98/98/98 97/97/97
f 97/97/97 100/100/100 99/99/99
f 103/103/103 102/102/102 101/101/101
f 104/104/104 103/103/103 101/101/101
f 107/107/107 106/106/106 105/105/105
f 108/108/108 107/107/107 105/105/105
f 111/111/111 110/110/110 109/109/109
f 112/112/112 111/111/111 109/109/109
f 115/115/115 114/114/114 113/113/113
f 116/116/116 115/115/115 113/113/113
f 119/119/119 118/118/118 117/117/117
f 120/120/120 119/119/119 117/117/117
f 123/123/123 122/122/122 121/121/121
f 124/124/124 123/123/123 121/121/121
f 127/127/127 126/126/126 125/125/125
f 125/125/125 128/128/128 127/127/127
f 131/131/131 130/130/130 129/129/129
f 129/129/129 132/132/132 131/131/131
f 135/135/135 134/134/134 133/133/133
f 136/136/136 135/135/135 133/133/133
f 139/139/139 138/138/138 137/137/137
f 140/140/140 139/139/139 137/137/137
f 143/143/143 142/142/142 141/141/141
f 144/144/144 143/143/143 141/141/141
f 147/147/147 146/146/146 145/145/145
f 148/148/148 147/147/147 145/145/145
f 151/151/151 150/150/150 149/149/149
f 152/152/152 151/151/151 149/149/149
f 155/155/155 154/154/154 153/153/153
f 156/156/156 155/155/155 153/153/153
f 159/159/159 158/158/158 157/157/157
f 157/157/157 160/160/160 159/159/159
f 163/163/163 162/162/162 161/161/161
f 161/161/161 164/164/164 163/163/163
f 167/167/167 166/166/166 165/165/165
f 168/168/168 167/167/167 165/165/165
f 171/171/171 170/170/170 169/169/169
f 172/172/172 171/171/171 169/169/169
f 175/175/175 174/174/174 173/173/173
f 176/176/176 175/175/175 173/173/173
f 179/179/179 178/178/178 177/177/177
f 180/180/180 179/179/179 177/177/177
f 183/183/183 182/182/182 181/181/181
f 184/184/184 183/183/183 181/181/181
f 187/187/187 186/186/186 185/185/185
f 188/188/188 187/187/187 185/185/185
f 191/191/191 190/190/190 189/189/189
f 189/189/189 192/192/192 191/191/191
f 195/195/195 194/194/194 193/193/193
f 193/193/193 196/196/196 195/195/195
f 199/199/199 198/198/198 197/197/197
f 200/200/200 199/199/199 197/197/197
f 203/203/203 202/202/202 201/201/201
f 204/204/204 203/203/203 201/201/201
f 207/207/207 206/206/206 205/205/205
f 208/208/208 207/207/207 205/205/205
f 211/211/211 210/210/210 209/209/209
f 212/212/212 211/211/211 209/209/209
f 215/215/215 214/214/214 213/213/213
f 216/216/216 215/215/215 213/213/213
f 219/219/219 218/218/218 217/217/217
f 220/220/220 219/219/219 217/217/217
