g Tail
v 0.3721542 3.03989 -34.80478
v 0.4425774 1.210129 -38.00117
v 0.4656105 1.538719 -33.29536
v 0.07240677 13.09779 -40.58628
v 0.06853104 13.21783 -42.58064
v -1.144409E-05 13.51381 -40.94399
v -1.144409E-05 13.52449 -42.44012
v -1.144409E-05 13.50318 -39.44791
v 0.0762825 12.97771 -38.59192
v 0.3017273 4.869705 -31.60838
v 0.4912987 1.905624 -28.02399
v -0.06855392 13.21783 -42.58064
v 0.06853104 13.21783 -42.58064
v -1.144409E-05 13.52449 -42.44012
v 0.4425774 1.210129 -38.00117
v 0.06853104 13.21783 -42.58064
v -0.06855392 13.21783 -42.58064
v -0.4426003 1.210129 -38.00117
v -0.0763588 12.97771 -38.59192
v 0.0762825 12.97771 -38.59192
v 0.3017273 4.869705 -31.60838
v -0.3017502 4.869705 -31.60838
v -0.3017502 4.869705 -31.60838
v 0.3017273 4.869705 -31.60838
v 0.4912987 1.905624 -28.02399
v -0.4913788 1.905624 -28.02399
v -1.144409E-05 13.50318 -39.44791
v 0.0762825 12.97771 -38.59192
v -0.0763588 12.97771 -38.59192
v -0.3721771 3.03989 -34.80478
v -0.3017502 4.869705 -31.60838
v -0.4913788 1.905624 -28.02399
v -0.4656868 1.538498 -33.29547
v -0.07242966 13.09779 -40.58628
v -0.06855392 13.21783 -42.58064
v -1.144409E-05 13.51381 -40.94399
v -1.144409E-05 13.52449 -42.44012
v -0.4426003 1.210129 -38.00117
v -0.0763588 12.97771 -38.59192
v -1.144409E-05 13.50318 -39.44791
v 14.53793 -0.8436432 -43.51653
v 14.14428 -0.8702736 -41.43735
v 14.11599 -0.4524879 -41.43735
v 14.50958 -0.4258003 -43.51653
v 14.14428 -0.8702736 -41.43735
v 14.53793 -0.8436432 -43.51653
v 2.45499 -1.838223 -39.6624
v 3.549004 -1.730869 -33.26812
v 2.407761 -1.047607 -39.6624
v 14.50958 -0.4258003 -43.51653
v 14.11599 -0.4524879 -41.43735
v 3.502663 -0.9402008 -33.26812
v 14.14428 -0.8702736 -41.43735
v 3.549004 -1.730869 -33.26812
v 3.502663 -0.9402008 -33.26812
v 14.11599 -0.4524879 -41.43735
v 14.50958 -0.4258003 -43.51653
v 2.407761 -1.047607 -39.6624
v 2.45499 -1.838223 -39.6624
v 14.53793 -0.8436432 -43.51653
v -14.50966 -0.4258003 -43.51653
v -14.11601 -0.4524879 -41.43735
v -14.14431 -0.8702736 -41.43735
v -14.53795 -0.8436432 -43.51653
v -14.14431 -0.8702736 -41.43735
v -3.549084 -1.730869 -33.26812
v -2.455013 -1.838223 -39.6624
v -14.53795 -0.8436432 -43.51653
v -2.407784 -1.047607 -39.6624
v -3.502686 -0.9402008 -33.26812
v -14.11601 -0.4524879 -41.43735
v -14.50966 -0.4258003 -43.51653
v -3.549084 -1.730869 -33.26812
v -14.14431 -0.8702736 -41.43735
v -14.11601 -0.4524879 -41.43735
v -3.502686 -0.9402008 -33.26812
v -14.50966 -0.4258003 -43.51653
v -14.53795 -0.8436432 -43.51653
v -2.455013 -1.838223 -39.6624
v -2.407784 -1.047607 -39.6624
vt 0.4051247 0.2434935
vt 0.4584801 0.2351355
vt 0.3922867 0.2150057
vt 0.4317551 0.4117028
vt 0.4584801 0.4237927
vt 0.4344809 0.4192783
vt 0.454946 0.427258
vt 0.4140244 0.4112986
vt 0.4050387 0.3996129
vt 0.3517091 0.2518515
vt 0.3180707 0.1924339
vt 0.4692974 0.4237927
vt 0.4584801 0.4237927
vt 0.4724875 0.427086
vt 0.4584801 0.2351355
vt 0.4584801 0.4237927
vt 0.4692974 0.4237927
vt 0.4692974 0.2351355
vt 1.062364 0.1150793
vt 1.070988 0.1150793
vt 1.070988 0.005186934
vt 1.062364 0.005186934
vt 1.062364 0.005186934
vt 1.070988 0.005186934
vt 1.070988 -0.03899359
vt 1.062364 -0.03899359
vt 1.06668 0.1237641
vt 1.070988 0.1150793
vt 1.062364 0.1150793
vt 0.5173904 0.242668
vt 0.5655349 0.2502091
vt 0.5958542 0.1966473
vt 0.5289643 0.216992
vt 0.4933912 0.412898
vt 0.4692974 0.4237927
vt 0.4909319 0.4197254
vt 0.4724875 0.427086
vt 0.4692974 0.2351355
vt 0.5174763 0.4019947
vt 0.5093763 0.4125369
vt 0.9019019 0.4224254
vt 0.9153246 0.3979791
vt 0.9103889 0.3953651
vt 0.8969662 0.4198028
vt 0.9153246 0.3979791
vt 0.9019019 0.4224254
vt 1.062811 0.4224254
vt 1.070575 0.3419323
vt 1.062811 0.4321765
vt 0.9019019 0.4321765
vt 0.9151698 0.4564508
vt 1.070472 0.5131254
vt 0.9132093 0.4652302
vt 1.066766 0.5227646
vt 1.070472 0.5131254
vt 0.9151698 0.4564508
vt 0.9019019 0.4321765
vt 1.062811 0.4321765
vt 1.062811 0.4224254
vt 0.9019019 0.4224254
vt 0.49168 0.02180837
vt 0.4782573 -0.002629355
vt 0.4733216 -6.727874E-06
vt 0.4867443 0.024431
vt 0.4733216 -6.727874E-06
vt 0.3180707 -0.05606216
vt 0.3258354 0.024431
vt 0.4867443 0.024431
vt 0.3258354 0.03418201
vt 0.3181825 0.1151395
vt 0.473485 0.05845636
vt 0.4867443 0.03418201
vt 0.3218885 0.1247701
vt 0.4754455 0.06723572
vt 0.473485 0.05845636
vt 0.3181825 0.1151395
vt 0.4867443 0.03418201
vt 0.4867443 0.024431
vt 0.3258354 0.024431
vt 0.3258354 0.03418201
vn 0.9993466 0.03614455 0
vn 0.9994801 0.03224134 0
vn 0.9985578 0.05368603 0
vn 0.9994152 0.0341932 0
vn 0.9994152 0.0341932 0
vn 0.9831911 0.1825788 0
vn 0.9813246 0.1923592 0
vn 0.985802 0.1631606 0.03966179
vn 0.9994801 0.03224134 0
vn 0.9991978 0.04004611 0
vn 0.9985578 0.05368603 0
vn -0.0009770393 0.4171829 -0.908822
vn -0.0009770393 0.4171829 -0.908822
vn -0.0009770393 0.4171829 -0.908822
vn -0.0009770393 -0.3566082 -0.9342535
vn -0.0009770393 -0.3566082 -0.9342535
vn -0.0009770393 -0.3566082 -0.9342535
vn -0.0009770393 -0.3566082 -0.9342535
vn -0.0009770393 0.6516651 0.7585062
vn -0.0009770393 0.6516651 0.7585062
vn -0.0009770393 0.6516651 0.7585062
vn -0.0009770393 0.6516651 0.7585062
vn -0.0009770393 0.7708602 0.6370036
vn -0.0009770393 0.7708602 0.6370036
vn -0.0009770393 0.7708602 0.6370036
vn -0.0009770393 0.7708602 0.6370036
vn -0.0009770393 0.8529289 0.5220262
vn -0.0009770393 0.8529289 0.5220262
vn -0.0009770393 0.8529289 0.5220262
vn -0.9993466 0.03614455 0
vn -0.9991978 0.0400461 0
vn -0.9985578 0.05368602 0
vn -0.9985578 0.05368602 0
vn -0.9994152 0.0341932 0
vn -0.9994152 0.0341932 0
vn -0.9831911 0.1825788 0
vn -0.9813246 0.1923591 0
vn -0.9994801 0.03224134 0
vn -0.9994801 0.03224134 0
vn -0.9858022 0.1631606 0.03965728
vn 0.9799399 0.06545961 0.188236
vn 0.9799399 0.06545961 0.188236
vn 0.9799399 0.06545961 0.188236
vn 0.9799399 0.06545961 0.188236
vn 0.08304572 -0.9955721 0.04404083
vn 0.08304572 -0.9955721 0.04404083
vn 0.08304572 -0.9955721 0.04404083
vn 0.08304572 -0.9955721 0.04404083
vn -0.05173907 0.9986606 0
vn -0.05173907 0.9986606 0
vn -0.05173907 0.9986606 0
vn -0.05173907 0.9986606 0
vn 0.6086766 0.03810346 0.792503
vn 0.6086766 0.03810346 0.792503
vn 0.6086766 0.03810346 0.792503
vn 0.6086766 0.03810346 0.792503
vn -0.3018959 -0.01856309 -0.9531602
vn -0.3018959 -0.01856309 -0.9531602
vn -0.3018959 -0.01856309 -0.9531602
vn -0.3018959 -0.01856309 -0.9531602
vn -0.9799401 0.06545961 0.1882353
vn -0.9799401 0.06545961 0.1882353
vn -0.9799401 0.06545961 0.1882353
vn -0.9799401 0.06545961 0.1882353
vn -0.08304584 -0.9955721 0.04404083
vn -0.08304584 -0.9955721 0.04404083
vn -0.08304584 -0.9955721 0.04404083
vn -0.08304584 -0.9955721 0.04404083
vn 0.05173895 0.9986606 0
vn 0.05173895 0.9986606 0
vn 0.05173895 0.9986606 0
vn 0.05173895 0.9986606 0
vn -0.6086767 0.03810346 0.7925029
vn -0.6086767 0.03810346 0.7925029
vn -0.6086767 0.03810346 0.7925029
vn -0.6086767 0.03810346 0.7925029
vn 0.3018957 -0.01856309 -0.9531602
vn 0.3018957 -0.01856309 -0.9531602
vn 0.3018957 -0.01856309 -0.9531602
vn 0.3018957 -0.01856309 -0.9531602
g Tail_0
f 3/3/3 2/2/2 1/1/1
f 1/1/1 2/2/2 4/4/4
f 2/2/2 5/5/5 4/4/4
f 4/4/4 5/5/5 6/6/6
f 5/5/5 7/7/7 6/6/6
f 4/4/4 6/6/6 8/8/8
f 9/9/9 4/4/4 8/8/8
f 1/1/1 4/4/4 9/9/9
f 10/10/10 1/1/1 9/9/9
f 3/3/3 1/1/1 10/10/10
f 11/11/11 3/3/3 10/10/10
f 14/14/14 13/13/13 12/12/12
f 17/17/17 16/16/16 15/15/15
f 18/18/18 17/17/17 15/15/15
f 21/21/21 20/20/20 19/19/19
f 22/22/22 21/21/21 19/19/19
f 25/25/25 24/24/24 23/23/23
f 26/26/26 25/25/25 23/23/23
f 29/29/29 28/28/28 27/27/27
f 32/32/32 31/31/31 30/30/30
f 33/33/33 32/32/32 30/30/30
f 34/34/34 30/30/30 31/31/31
f 34/34/34 35/35/35 30/30/30
f 34/34/34 36/36/36 35/35/35
f 36/36/36 37/37/37 35/35/35
f 35/35/35 38/38/38 30/30/30
f 33/33/33 30/30/30 38/38/38
f 39/39/39 34/34/34 31/31/31
f 34/34/34 39/39/39 36/36/36
f 39/39/39 40/40/40 36/36/36
f 43/43/43 42/42/42 41/41/41
f 44/44/44 43/43/43 41/41/41
f 47/47/47 46/46/46 45/45/45
f 48/48/48 47/47/47 45/45/45
f 51/51/51 50/50/50 49/49/49
f 52/52/52 51/51/51 49/49/49
f 55/55/55 54/54/54 53/53/53
f 56/56/56 55/55/55 53/53/53
f 59/59/59 58/58/58 57/57/57
f 60/60/60 59/59/59 57/57/57
f 63/63/63 62/62/62 61/61/61
f 64/64/64 63/63/63 61/61/61
f 67/67/67 66/66/66 65/65/65
f 68/68/68 67/67/67 65/65/65
f 71/71/71 70/70/70 69/69/69
f 72/72/72 71/71/71 69/69/69
f 75/75/75 74/74/74 73/73/73
f 76/76/76 75/75/75 73/73/73
f 79/79/79 78/78/78 77/77/77
f 80/80/80 79/79/79 77/77/77
