g Wing
v 46.60727 -1.981686 -17.39369
v 46.60727 -1.991173 -18.02538
v 46.93059 -1.991173 -18.02538
v 46.92424 -1.981686 -17.3936
v 46.55634 -3.515579 -15.46907
v 46.60727 -1.981686 -17.39369
v 46.92424 -1.981686 -17.3936
v 46.84538 -3.747868 -15.24045
v 46.84538 -3.747868 -15.24045
v 46.92424 -1.981686 -17.3936
v 46.93059 -1.991173 -18.02538
v 46.88655 -3.570988 -17.54523
v 46.88655 -3.570988 -17.54523
v 46.93059 -1.991173 -18.02538
v 46.60727 -1.991173 -18.02538
v 46.60727 -3.570988 -17.54523
v 46.60727 -3.570988 -17.54523
v 46.60727 -1.991173 -18.02538
v 46.60727 -1.981686 -17.39369
v 46.55634 -3.515579 -15.46907
v 44.47059 -3.881779 -12.10123
v 8.572086 -8.043243 14.14705
v 8.57325 -7.675163 14.14822
v 5.346035 -7.392033 16.74848
v 5.346035 -8.664822 16.74848
v 44.20241 -3.656204 -12.31257
v 5.325447 -6.892105 16.2934
v 17.21198 -5.757168 3.384445
v 11.4186 -6.049519 6.166603
v 44.47059 -3.881779 -12.10123
v 46.55634 -3.515579 -15.46907
v 46.84538 -3.747868 -15.24045
v 44.20501 -4.241798 -12.3123
v 8.572086 -8.043243 14.14705
v 8.309185 -8.707787 13.77942
v 4.617577 -9.826969 15.32719
v 5.346035 -8.664822 16.74848
v 46.67978 -3.960728 -15.40471
v 46.60727 -3.855461 -17.38402
v 46.88655 -3.570988 -17.54523
v 46.60727 -3.570988 -17.54523
v 45.10211 -4.195255 -16.06612
v 45.10202 -3.708122 -16.68421
v 24.74611 -6.723103 -5.849098
v 24.89041 -5.605354 -9.043999
v 6.270882 -9.252922 10.88645
v 4.912075 -9.616344 8.957798
v 17.96084 -7.565781 -3.507435
v 18.15321 -6.237762 -7.069607
v 11.7566 -6.681747 -6.006821
v 11.64659 -8.308201 -2.301067
v 5.267979 -7.125645 -5.516468
v 5.210064 -9.050713 -1.802837
v 4.912075 -9.616344 8.957798
v 6.270882 -9.252922 10.88645
v 44.20501 -4.241798 -12.3123
v 24.74611 -6.723103 -5.849098
v 17.96084 -7.565781 -3.507435
v 11.64659 -8.308201 -2.301067
v 5.210064 -9.050713 -1.802837
v 45.10211 -4.195255 -16.06612
v 45.10202 -3.708122 -16.68421
v 46.60727 -3.570988 -17.54523
v 31.43937 -4.876804 -9.853645
v 24.89041 -5.605354 -9.043999
v 17.77672 -6.04549 -3.730232
v 18.15321 -6.237762 -7.069607
v 11.7566 -6.681747 -6.006821
v 11.6081 -6.467991 -2.00639
v 5.267979 -7.125645 -5.516468
v 5.314793 -6.890491 -1.323135
v 11.6081 -6.467991 -2.00639
v 11.4186 -6.049519 6.166603
v 5.625225 -6.341778 8.461269
v 5.314793 -6.890491 -1.323135
v 17.77672 -6.04549 -3.730232
v 17.21198 -5.757168 3.384445
v 31.43937 -4.876804 -9.853645
v 44.20241 -3.656204 -12.31257
v 45.10202 -3.708122 -16.68421
v 8.57325 -7.675163 14.14822
v 5.346035 -7.392033 16.74848
v 5.625225 -6.341778 8.461269
v -46.60727 -1.981686 -17.39369
v -46.92424 -1.981686 -17.3936
v -46.93059 -1.991173 -18.02538
v -46.60727 -1.991173 -18.02538
v -46.55634 -3.515579 -15.46907
v -46.84538 -3.747868 -15.24045
v -46.92424 -1.981686 -17.3936
v -46.60727 -1.981686 -17.39369
v -46.84538 -3.747868 -15.24045
v -46.88655 -3.570988 -17.54523
v -46.93059 -1.991173 -18.02538
v -46.92424 -1.981686 -17.3936
v -46.88655 -3.570988 -17.54523
v -46.60727 -3.570988 -17.54523
v -46.60727 -1.991173 -18.02538
v -46.93059 -1.991173 -18.02538
v -46.60727 -3.570988 -17.54523
v -46.55634 -3.515579 -15.46907
v -46.60727 -1.981686 -17.39369
v -46.60727 -1.991173 -18.02538
v -44.47059 -3.881779 -12.10123
v -8.57325 -7.675163 14.14822
v -8.572086 -8.043243 14.14705
v -5.346035 -7.392033 16.74848
v -5.346035 -8.664822 16.74848
v -44.20241 -3.656204 -12.31257
v -17.21198 -5.757168 3.384445
v -5.325447 -6.892105 16.2934
v -44.47059 -3.881779 -12.10123
v -46.55634 -3.515579 -15.46907
v -46.84538 -3.747868 -15.24045
v -44.20501 -4.241798 -12.3123
v -8.572086 -8.043243 14.14705
v -8.309189 -8.707787 13.77942
v -4.61758 -9.826969 15.32719
v -5.346035 -8.664822 16.74848
v -46.67978 -3.960728 -15.40471
v -46.60727 -3.855461 -17.38402
v -46.88655 -3.570988 -17.54523
v -46.60727 -3.570988 -17.54523
v -45.10211 -4.195255 -16.06612
v -45.10202 -3.708122 -16.68421
v -24.89042 -5.605354 -9.043999
v -24.74612 -6.723103 -5.849098
v -6.270885 -9.252922 10.88645
v -4.912075 -9.616344 8.957798
v -18.15321 -6.237762 -7.069607
v -17.96085 -7.565781 -3.507435
v -11.75661 -6.681747 -6.006821
v -11.6466 -8.308201 -2.301067
v -5.267982 -7.125645 -5.516468
v -5.210064 -9.050713 -1.802837
v -44.20501 -4.241798 -12.3123
v -6.270885 -9.252922 10.88645
v -4.912075 -9.616344 8.957798
v -24.74612 -6.723103 -5.849098
v -45.10211 -4.195255 -16.06612
v -17.96085 -7.565781 -3.507435
v -11.6466 -8.308201 -2.301067
v -5.210064 -9.050713 -1.802837
v -45.10202 -3.708122 -16.68421
v -46.60727 -3.570988 -17.54523
v -24.89042 -5.605354 -9.043999
v -31.43937 -4.876804 -9.853645
v -17.77672 -6.04549 -3.730232
v -18.15321 -6.237762 -7.069607
v -11.6081 -6.467991 -2.00639
v -11.75661 -6.681747 -6.006821
v -5.267982 -7.125645 -5.516468
v -5.314796 -6.890491 -1.323135
v -11.6081 -6.467991 -2.00639
v -5.314796 -6.890491 -1.323135
v -5.625229 -6.341778 8.461269
v -11.4186 -6.049519 6.166603
v -17.77672 -6.04549 -3.730232
v -17.21198 -5.757168 3.384445
v -31.43937 -4.876804 -9.853645
v -44.20241 -3.656204 -12.31257
v -45.10202 -3.708122 -16.68421
v -5.346035 -7.392033 16.74848
v -8.57325 -7.675163 14.14822
v -11.4186 -6.049519 6.166603
v -5.625229 -6.341778 8.461269
vt 0.3898209 0.1800863
vt 0.3857071 0.1892715
vt 0.3899128 0.1907423
vt 0.3932529 0.1839703
vt 0.4359077 0.1655233
vt 0.3898209 0.1800863
vt 0.3932529 0.1839703
vt 0.4333183 0.1771982
vt 0.4333183 0.1771982
vt 0.3932529 0.1839703
vt 0.3899128 0.1907423
vt 0.4191154 0.2005251
vt 0.4191154 0.2005251
vt 0.3899128 0.1907423
vt 0.3889323 0.1959363
vt 0.4227159 0.2090897
vt 0.4231373 0.1468006
vt 0.3895987 0.1562692
vt 0.393498 0.1618768
vt 0.4359077 0.1655233
vt 0.494918 0.1769837
vt 0.9519322 0.1862149
vt 0.9519322 0.1769837
vt 0.9935682 0.1769837
vt 0.9935682 0.1862149
vt 0.4958373 0.1657761
vt 0.9905345 0.1657761
vt 0.8147675 0.1324138
vt 0.8809099 0.1212675
vt 0.494918 0.1769837
vt 0.4359077 0.1655233
vt 0.4333183 0.1771982
vt 0.4954772 0.1866745
vt 0.9519322 0.1862149
vt 0.9514726 0.1970394
vt 0.9931622 0.2071822
vt 0.9935682 0.1862149
vt 0.4380986 0.1845525
vt 0.4265999 0.2030071
vt 0.4191154 0.2005251
vt 0.4227159 0.2090897
vt 0.465409 0.2112117
vt 0.4587825 0.2221972
vt 0.69595 0.2548164
vt 0.6838385 0.2792617
vt 0.9479333 0.2367755
vt 0.9464549 0.2598035
vt 0.7658156 0.2768179
vt 0.7508696 0.302489
vt 0.8028474 0.3338825
vt 0.8229951 0.304611
vt 0.8566638 0.3683556
vt 0.8792552 0.3397889
vt 0.9464549 0.2598035
vt 0.9479333 0.2367755
vt 0.4954772 0.1866745
vt 0.69595 0.2548164
vt 0.7658156 0.2768179
vt 0.8229951 0.304611
vt 0.8792552 0.3397889
vt 0.465409 0.2112117
vt 0.4625362 0.1356619
vt 0.4231373 0.1468006
vt 0.6200784 0.1115537
vt 0.6789203 0.07718016
vt 0.7705269 0.0800376
vt 0.7510535 0.05769135
vt 0.8057431 0.02357826
vt 0.8311844 0.05694826
vt 0.8604252 -0.01052716
vt 0.884748 0.02388469
vt 0.8311844 0.05694826
vt 0.8809099 0.1212675
vt 0.942433 0.1060763
vt 0.884748 0.02388469
vt 0.7705269 0.0800376
vt 0.8147675 0.1324138
vt 0.6200784 0.1115537
vt 0.4958373 0.1657761
vt 0.4625362 0.1356619
vt 0.9519322 0.1769837
vt 0.9935682 0.1769837
vt 0.942433 0.1060763
vt 0.3898209 0.1800863
vt 0.3932529 0.1839703
vt 0.3899128 0.1907423
vt 0.3857071 0.1892715
vt 0.4359077 0.1655233
vt 0.4333183 0.1771982
vt 0.3932529 0.1839703
vt 0.3898209 0.1800863
vt 0.4333183 0.1771982
vt 0.4191154 0.2005251
vt 0.3899128 0.1907423
vt 0.3932529 0.1839703
vt 0.4191154 0.2005251
vt 0.4227159 0.2090897
vt 0.3889323 0.1959363
vt 0.3899128 0.1907423
vt 0.4231373 0.1468006
vt 0.4359077 0.1655233
vt 0.393498 0.1618768
vt 0.3895987 0.1562692
vt 0.494918 0.1769837
vt 0.9519322 0.1769837
vt 0.9519322 0.1862149
vt 0.9935682 0.1769837
vt 0.9935682 0.1862149
vt 0.4958373 0.1657761
vt 0.8147675 0.1324138
vt 0.9905345 0.1657761
vt 0.494918 0.1769837
vt 0.4359077 0.1655233
vt 0.4333183 0.1771982
vt 0.4954772 0.1866745
vt 0.9519322 0.1862149
vt 0.9514726 0.1970394
vt 0.9931622 0.2071822
vt 0.9935682 0.1862149
vt 0.4380986 0.1845525
vt 0.4265999 0.2030071
vt 0.4191154 0.2005251
vt 0.4227159 0.2090897
vt 0.465409 0.2112117
vt 0.4587825 0.2221972
vt 0.6838385 0.2792617
vt 0.69595 0.2548164
vt 0.9479333 0.2367755
vt 0.9464549 0.2598035
vt 0.7508696 0.302489
vt 0.7658156 0.2768179
vt 0.8028474 0.3338825
vt 0.8229951 0.304611
vt 0.8566638 0.3683556
vt 0.8792552 0.3397889
vt 0.4954772 0.1866745
vt 0.9479333 0.2367755
vt 0.9464549 0.2598035
vt 0.69595 0.2548164
vt 0.465409 0.2112117
vt 0.7658156 0.2768179
vt 0.8229951 0.304611
vt 0.8792552 0.3397889
vt 0.4625362 0.1356619
vt 0.4231373 0.1468006
vt 0.6789203 0.07718016
vt 0.6200784 0.1115537
vt 0.7705269 0.0800376
vt 0.7510535 0.05769135
vt 0.8311844 0.05694826
vt 0.8057431 0.02357826
vt 0.8604252 -0.01052716
vt 0.884748 0.02388469
vt 0.8311844 0.05694826
vt 0.884748 0.02388469
vt 0.942433 0.1060763
vt 0.8809099 0.1212675
vt 0.7705269 0.0800376
vt 0.8147675 0.1324138
vt 0.6200784 0.1115537
vt 0.4958373 0.1657761
vt 0.4625362 0.1356619
vt 0.9935682 0.1769837
vt 0.9519322 0.1769837
vt 0.8809099 0.1212675
vt 0.942433 0.1060763
vn 0.0009443164 0.9998872 -0.0149923
vn 0.0009443164 0.9998872 -0.0149923
vn 0.0009443164 0.9998872 -0.0149923
vn 0.0009443164 0.9998872 -0.0149923
vn 0.05958676 0.775091 0.6290337
vn 0.05958676 0.775091 0.6290337
vn 0.05958676 0.775091 0.6290337
vn 0.05958676 0.775091 0.6290337
vn 0.9997023 -0.02439841 0
vn 0.9997023 -0.02439841 0
vn 0.9997023 -0.02439841 0
vn 0.9997023 -0.02439841 0
vn -0.001010478 -0.2902471 -0.9569512
vn -0.001010478 -0.2902471 -0.9569512
vn -0.001010478 -0.2902471 -0.9569512
vn -0.001010478 -0.2902471 -0.9569512
vn -0.9998872 0.001010478 -0.01498807
vn -0.9998872 0.001010478 -0.01498807
vn -0.9998872 0.001010478 -0.01498807
vn -0.9998872 0.001010478 -0.01498807
vn 0.6088712 -0.07522476 0.7896942
vn 0.556093 -0.4954958 0.6672665
vn 0.5443645 0.3098608 0.7795214
vn 0.6284187 0.1417524 0.7648504
vn 0.5756405 -0.5052695 0.6429158
vn 0.1925097 0.9138783 0.3574445
vn 0.1260482 0.9568827 0.261701
vn -0.06745771 0.9977221 0
vn -0.0557434 0.9979324 -0.03199453
vn 0.6088712 -0.07522476 0.7896942
vn 0.02831078 0.9979324 0.05770144
vn 0.8532149 -0.03417504 0.5204387
vn 0.2941566 -0.9235858 0.2458886
vn 0.556093 -0.4954958 0.6672665
vn 0.2863376 -0.9333596 0.2164502
vn 0.3977583 -0.8844908 0.243853
vn 0.5756405 -0.5052695 0.6429158
vn 0.3664824 -0.9255406 0.09521203
vn 0.159279 -0.9196763 -0.3589229
vn 0.7300656 -0.6772875 -0.09102681
vn -0.3489558 -0.6538304 -0.6713685
vn -0.01078421 -0.960726 -0.2772891
vn -0.08115512 -0.913812 -0.3979465
vn 0.07131523 -0.9880925 -0.136335
vn -0.05378872 -0.9255406 -0.3748086
vn 0.1788265 -0.9822283 0.0569973
vn 0.1534147 -0.9880925 0.01170603
vn 0.06349629 -0.9783188 -0.197131
vn 0.004853785 -0.9353143 -0.3537847
vn 0.03417504 -0.9157668 -0.4002539
vn 0.07913423 -0.9744093 -0.2103909
vn 0.04981303 -0.9020836 -0.4286769
vn 0.08890802 -0.9744093 -0.2064507
vn 0.1534147 -0.9880925 0.01170603
vn 0.1788265 -0.9822283 0.0569973
vn 0.2941566 -0.9235858 0.2458886
vn 0.07131523 -0.9880925 -0.136335
vn 0.06349629 -0.9783188 -0.197131
vn 0.07913423 -0.9744093 -0.2103909
vn 0.08890802 -0.9744093 -0.2064507
vn -0.01078421 -0.960726 -0.2772891
vn -0.1026574 0.9940229 -0.0371479
vn -0.1065668 0.9940229 -0.0237068
vn -0.1065668 0.9920681 -0.06666604
vn -0.1182954 0.9901134 -0.07537622
vn -0.09483844 0.9940229 -0.05407536
vn -0.09483844 0.9940229 -0.05407536
vn -0.07724565 0.9959777 -0.04540425
vn -0.07529086 0.9959777 -0.04857724
vn -0.07333618 0.9959777 -0.05148068
vn -0.07138139 0.9959777 -0.05415851
vn -0.07529086 0.9959777 -0.04857724
vn -0.0557434 0.9979324 -0.03199453
vn -0.05183393 0.9979324 -0.0380029
vn -0.07138139 0.9959777 -0.05415851
vn -0.09483844 0.9940229 -0.05407536
vn -0.06745771 0.9977221 0
vn -0.1065668 0.9920681 -0.06666604
vn 0.1925097 0.9138783 0.3574445
vn -0.1026574 0.9940229 -0.0371479
vn 0.5443645 0.3098608 0.7795214
vn 0.6284187 0.1417524 0.7648504
vn -0.05183393 0.9979324 -0.0380029
vn 0.0009443164 0.9998872 -0.0149923
vn 0.0009443164 0.9998872 -0.0149923
vn 0.0009443164 0.9998872 -0.0149923
vn 0.0009443164 0.9998872 -0.0149923
vn -0.05965286 0.775091 0.6290274
vn -0.05965286 0.775091 0.6290274
vn -0.05965286 0.775091 0.6290274
vn -0.05965286 0.775091 0.6290274
vn -0.9997023 -0.0243968 0
vn -0.9997023 -0.0243968 0
vn -0.9997023 -0.0243968 0
vn -0.9997023 -0.0243968 0
vn 0.0009443164 -0.2902471 -0.9569513
vn 0.0009443164 -0.2902471 -0.9569513
vn 0.0009443164 -0.2902471 -0.9569513
vn 0.0009443164 -0.2902471 -0.9569513
vn 0.999821 0.001010478 -0.01889192
vn 0.999821 0.001010478 -0.01889192
vn 0.999821 0.001010478 -0.01889192
vn 0.999821 0.001010478 -0.01889192
vn -0.6089373 -0.07522476 0.7896433
vn -0.5444307 0.3098608 0.7794752
vn -0.5561592 -0.4954958 0.6672113
vn -0.6284849 0.1417524 0.764796
vn -0.5757067 -0.5052695 0.6428565
vn -0.1925759 0.9138783 0.3574088
vn 0.06739186 0.9977266 0
vn -0.1261144 0.9568827 0.2616691
vn -0.6089373 -0.07522476 0.7896433
vn -0.028377 0.9979324 0.05766889
vn -0.853281 -0.03417504 0.5203304
vn -0.2942228 -0.9235858 0.2458095
vn -0.5561592 -0.4954958 0.6672113
vn -0.2864038 -0.9333596 0.2163626
vn -0.3978245 -0.8844908 0.243745
vn -0.5757067 -0.5052695 0.6428565
vn -0.3665485 -0.9255406 0.09495721
vn -0.1593451 -0.9196763 -0.3588936
vn -0.7301318 -0.6772875 -0.09049454
vn 0.3488896 -0.6538304 -0.6714029
vn 0.01071805 -0.960726 -0.2772916
vn 0.08108902 -0.913812 -0.39796
vn 0.0537225 -0.9255406 -0.3748181
vn -0.07138139 -0.9880925 -0.1363005
vn -0.1788926 -0.9822283 0.05678933
vn -0.1534808 -0.9880925 0.01080581
vn -0.004919946 -0.9353143 -0.3537838
vn -0.06356245 -0.9783188 -0.1971097
vn -0.03424114 -0.9157668 -0.4002482
vn -0.07920045 -0.9744093 -0.2103659
vn -0.04987913 -0.9020836 -0.4286692
vn -0.08897418 -0.9744093 -0.2064223
vn -0.2942228 -0.9235858 0.2458095
vn -0.1788926 -0.9822283 0.05678933
vn -0.1534808 -0.9880925 0.01080581
vn -0.07138139 -0.9880925 -0.1363005
vn 0.01071805 -0.960726 -0.2772916
vn -0.06356245 -0.9783188 -0.1971097
vn -0.07920045 -0.9744093 -0.2103659
vn -0.08897418 -0.9744093 -0.2064223
vn 0.1025912 0.9940229 -0.03733037
vn 0.1065007 0.9940229 -0.02400164
vn 0.1182292 0.9901134 -0.07548013
vn 0.1065007 0.9920681 -0.06677146
vn 0.09477222 0.9940229 -0.05419152
vn 0.09477222 0.9940229 -0.05419152
vn 0.07522476 0.9959777 -0.04867958
vn 0.07717949 0.9959777 -0.04551701
vn 0.07327002 0.9959777 -0.05157496
vn 0.07131523 0.9959777 -0.05424539
vn 0.07522476 0.9959777 -0.04867958
vn 0.07131523 0.9959777 -0.05424539
vn 0.05176777 0.9979324 -0.03809298
vn 0.05763203 0.9979324 -0.02845155
vn 0.09477222 0.9940229 -0.05419152
vn 0.06739186 0.9977266 0
vn 0.1065007 0.9920681 -0.06677146
vn -0.1925759 0.9138783 0.3574088
vn 0.1025912 0.9940229 -0.03733037
vn -0.6284849 0.1417524 0.764796
vn -0.5444307 0.3098608 0.7794752
vn 0.05763203 0.9979324 -0.02845155
vn 0.05176777 0.9979324 -0.03809298
g Wing_0
f 3/3/3 2/2/2 1/1/1
f 4/4/4 3/3/3 1/1/1
f 7/7/7 6/6/6 5/5/5
f 8/8/8 7/7/7 5/5/5
f 11/11/11 10/10/10 9/9/9
f 12/12/12 11/11/11 9/9/9
f 15/15/15 14/14/14 13/13/13
f 16/16/16 15/15/15 13/13/13
f 19/19/19 18/18/18 17/17/17
f 20/20/20 19/19/19 17/17/17
f 23/23/23 22/22/22 21/21/21
f 22/22/22 23/23/23 24/24/24
f 25/25/25 22/22/22 24/24/24
f 28/28/28 27/27/27 26/26/26
f 28/28/28 29/29/29 27/27/27
f 30/30/30 26/26/26 27/27/27
f 26/26/26 30/30/30 31/31/31
f 30/30/30 32/32/32 31/31/31
f 30/30/30 33/33/33 32/32/32
f 30/30/30 34/34/34 33/33/33
f 34/34/34 35/35/35 33/33/33
f 35/35/35 34/34/34 36/36/36
f 34/34/34 37/37/37 36/36/36
f 33/33/33 38/38/38 32/32/32
f 38/38/38 39/39/39 32/32/32
f 39/39/39 40/40/40 32/32/32
f 39/39/39 41/41/41 40/40/40
f 38/38/38 42/42/42 39/39/39
f 39/39/39 42/42/42 41/41/41
f 38/38/38 33/33/33 42/42/42
f 42/42/42 43/43/43 41/41/41
f 42/42/42 44/44/44 43/43/43
f 44/44/44 45/45/45 43/43/43
f 46/46/46 33/33/33 35/35/35
f 36/36/36 46/46/46 35/35/35
f 36/36/36 47/47/47 46/46/46
f 44/44/44 48/48/48 45/45/45
f 48/48/48 49/49/49 45/45/45
f 50/50/50 49/49/49 48/48/48
f 51/51/51 50/50/50 48/48/48
f 52/52/52 50/50/50 51/51/51
f 53/53/53 52/52/52 51/51/51
f 56/56/56 55/55/55 54/54/54
f 57/57/57 56/56/56 54/54/54
f 54/54/54 58/58/58 57/57/57
f 54/54/54 59/59/59 58/58/58
f 54/54/54 60/60/60 59/59/59
f 57/57/57 61/61/61 56/56/56
f 31/31/31 63/63/63 62/62/62
f 26/26/26 31/31/31 62/62/62
f 62/62/62 65/65/65 64/64/64
f 65/65/65 66/66/66 64/64/64
f 65/65/65 67/67/67 66/66/66
f 66/66/66 67/67/67 68/68/68
f 69/69/69 66/66/66 68/68/68
f 69/69/69 68/68/68 70/70/70
f 71/71/71 69/69/69 70/70/70
f 74/74/74 73/73/73 72/72/72
f 75/75/75 74/74/74 72/72/72
f 72/72/72 73/73/73 76/76/76
f 73/73/73 77/77/77 76/76/76
f 78/78/78 76/76/76 77/77/77
f 78/78/78 77/77/77 79/79/79
f 80/80/80 78/78/78 79/79/79
f 82/82/82 81/81/81 27/27/27
f 81/81/81 30/30/30 27/27/27
f 29/29/29 83/83/83 27/27/27
f 86/86/86 85/85/85 84/84/84
f 87/87/87 86/86/86 84/84/84
f 90/90/90 89/89/89 88/88/88
f 91/91/91 90/90/90 88/88/88
f 94/94/94 93/93/93 92/92/92
f 95/95/95 94/94/94 92/92/92
f 98/98/98 97/97/97 96/96/96
f 99/99/99 98/98/98 96/96/96
f 102/102/102 101/101/101 100/100/100
f 103/103/103 102/102/102 100/100/100
f 106/106/106 105/105/105 104/104/104
f 105/105/105 106/106/106 107/107/107
f 106/106/106 108/108/108 107/107/107
f 111/111/111 110/110/110 109/109/109
f 109/109/109 112/112/112 111/111/111
f 112/112/112 109/109/109 113/113/113
f 114/114/114 112/112/112 113/113/113
f 115/115/115 112/112/112 114/114/114
f 116/116/116 112/112/112 115/115/115
f 117/117/117 116/116/116 115/115/115
f 116/116/116 117/117/117 118/118/118
f 119/119/119 116/116/116 118/118/118
f 120/120/120 115/115/115 114/114/114
f 121/121/121 120/120/120 114/114/114
f 122/122/122 121/121/121 114/114/114
f 123/123/123 121/121/121 122/122/122
f 124/124/124 120/120/120 121/121/121
f 124/124/124 121/121/121 123/123/123
f 115/115/115 120/120/120 124/124/124
f 125/125/125 124/124/124 123/123/123
f 125/125/125 126/126/126 124/124/124
f 126/126/126 127/127/127 124/124/124
f 115/115/115 128/128/128 117/117/117
f 128/128/128 118/118/118 117/117/117
f 129/129/129 118/118/118 128/128/128
f 126/126/126 130/130/130 127/127/127
f 130/130/130 131/131/131 127/127/127
f 130/130/130 132/132/132 131/131/131
f 132/132/132 133/133/133 131/131/131
f 132/132/132 134/134/134 133/133/133
f 134/134/134 135/135/135 133/133/133
f 138/138/138 137/137/137 136/136/136
f 139/139/139 138/138/138 136/136/136
f 139/139/139 136/136/136 140/140/140
f 139/139/139 141/141/141 138/138/138
f 142/142/142 138/138/138 141/141/141
f 142/142/142 143/143/143 138/138/138
f 145/145/145 113/113/113 144/144/144
f 113/113/113 109/109/109 144/144/144
f 144/144/144 147/147/147 146/146/146
f 147/147/147 148/148/148 146/146/146
f 148/148/148 149/149/149 146/146/146
f 149/149/149 148/148/148 150/150/150
f 151/151/151 149/149/149 150/150/150
f 151/151/151 150/150/150 152/152/152
f 150/150/150 153/153/153 152/152/152
f 156/156/156 155/155/155 154/154/154
f 157/157/157 156/156/156 154/154/154
f 157/157/157 154/154/154 158/158/158
f 159/159/159 157/157/157 158/158/158
f 159/159/159 158/158/158 160/160/160
f 161/161/161 159/159/159 160/160/160
f 162/162/162 161/161/161 160/160/160
f 164/164/164 163/163/163 111/111/111
f 112/112/112 164/164/164 111/111/111
f 166/166/166 165/165/165 111/111/111
f 165/165/165 110/110/110 111/111/111
